<?xml version="1.0" encoding="UTF-8" standalone="no"?><svg xmlns="http://www.w3.org/2000/svg" xmlns:xlink="http://www.w3.org/1999/xlink" contentScriptType="application/ecmascript" contentStyleType="text/css" height="259.2px" preserveAspectRatio="none" style="width:108px;height:259px;" version="1.1" viewBox="0 0 108 259" width="108px" zoomAndPan="magnify"><defs><filter height="300%" id="fpe1rv91mlidu" width="300%" x="-1" y="-1"><feGaussianBlur result="blurOut" stdDeviation="1.2"/><feColorMatrix in="blurOut" result="blurOut2" type="matrix" values="0 0 0 0 0 0 0 0 0 0 0 0 0 0 0 0 0 0 .4 0"/><feOffset dx="2.4" dy="2.4" in="blurOut2" result="blurOut3"/><feBlend in="SourceGraphic" in2="blurOut3" mode="normal"/></filter></defs><g><!--MD5=[15636c1ca4a123c16a2a1a8e90aca7a9]
cluster Model--><polygon fill="#FFFFFF" filter="url(#fpe1rv91mlidu)" points="13.2,14.4,43.2,14.4,47.4,28.5656,94.8,28.5656,94.8,252,13.2,252,13.2,14.4" style="stroke: #000000; stroke-width: 0.8999999999999999;"/><line style="stroke: #000000; stroke-width: 0.8999999999999999;" x1="13.2" x2="47.4" y1="28.5656" y2="28.5656"/><text fill="#000000" font-family="sans-serif" font-size="8.4" font-weight="bold" lengthAdjust="spacingAndGlyphs" textLength="26.4" x="15.6" y="24.3199">Model</text><!--MD5=[8f63dadf5c643e74a34e53c8f0a15d23]
class Persona--><rect fill="#FEFECE" filter="url(#fpe1rv91mlidu)" height="125.0297" id="Persona" style="stroke: #A80036; stroke-width: 0.8999999999999999;" width="62.4" x="22.8" y="36"/><ellipse cx="38.55" cy="48.0563" fill="#ADD1B2" rx="6.6" ry="6.6" style="stroke: #A80036; stroke-width: 0.6;"/><path d="M39.75,45.9563 Q39.8719,45.6563 40.0125,45.5063 Q40.1531,45.3562 40.3125,45.3562 Q40.5938,45.3562 40.7719,45.525 Q40.95,45.6938 40.95,46.0875 L40.95,47.025 Q40.95,47.4187 40.7813,47.5875 Q40.6125,47.7563 40.35,47.7563 Q40.1156,47.7563 39.9656,47.6531 Q39.8156,47.55 39.75,47.2781 Q39.7219,47.0906 39.6188,46.9875 Q39.4313,46.7906 39.0938,46.6781 Q38.7563,46.5563 38.4187,46.5563 Q37.9969,46.5563 37.6406,46.725 Q37.2937,46.8938 37.0219,47.2688 Q36.75,47.6438 36.75,48.1594 L36.75,48.7125 Q36.75,49.3313 37.2563,49.7438 Q37.7625,50.1563 38.6625,50.1563 Q39.1969,50.1563 39.5719,50.0344 Q39.7875,49.9688 40.0313,49.7531 Q40.1906,49.6313 40.275,49.5938 Q40.3594,49.5563 40.4625,49.5563 Q40.6594,49.5563 40.8,49.7156 Q40.95,49.8656 40.95,50.0813 Q40.95,50.2875 40.7438,50.5313 Q40.4438,50.8875 39.9656,51.0844 Q39.3375,51.3562 38.5688,51.3562 Q37.6687,51.3562 36.9469,51 Q36.3656,50.7188 35.9531,50.1094 Q35.55,49.5 35.55,48.7781 L35.55,48.1219 Q35.55,47.3719 35.9063,46.7156 Q36.2719,46.0594 36.9,45.7125 Q37.5375,45.3562 38.25,45.3562 Q38.6813,45.3562 39.0563,45.5063 Q39.4313,45.6563 39.75,45.9563 Z "/><text fill="#000000" font-family="sans-serif" font-size="7.2" font-style="italic" lengthAdjust="spacingAndGlyphs" textLength="26.4" x="49.35" y="46.4742">«Entity»</text><text fill="#000000" font-family="sans-serif" font-size="7.2" lengthAdjust="spacingAndGlyphs" textLength="28.2" x="48.45" y="55.5305">Persona</text><line style="stroke: #A80036; stroke-width: 0.8999999999999999;" x1="23.4" x2="84.6" y1="60.1125" y2="60.1125"/><rect fill="none" height="3.6" style="stroke: #C82930; stroke-width: 0.6;" width="3.6" x="27.6" y="64.9125"/><text fill="#000000" font-family="sans-serif" font-size="6.6" lengthAdjust="spacingAndGlyphs" textLength="26.4" x="34.8" y="69.3639">uid: Long</text><rect fill="none" height="3.6" style="stroke: #C82930; stroke-width: 0.6;" width="3.6" x="27.6" y="73.2141"/><text fill="#000000" font-family="sans-serif" font-size="6.6" lengthAdjust="spacingAndGlyphs" textLength="42.6" x="34.8" y="77.6654">codigo: Integer</text><rect fill="none" height="3.6" style="stroke: #C82930; stroke-width: 0.6;" width="3.6" x="27.6" y="81.5156"/><text fill="#000000" font-family="sans-serif" font-size="6.6" lengthAdjust="spacingAndGlyphs" textLength="28.2" x="34.8" y="85.967">rut: String</text><rect fill="none" height="3.6" style="stroke: #C82930; stroke-width: 0.6;" width="3.6" x="27.6" y="89.8172"/><text fill="#000000" font-family="sans-serif" font-size="6.6" lengthAdjust="spacingAndGlyphs" textLength="42" x="34.8" y="94.2686">nombre: String</text><rect fill="none" height="3.6" style="stroke: #C82930; stroke-width: 0.6;" width="3.6" x="27.6" y="98.1187"/><text fill="#000000" font-family="sans-serif" font-size="6.6" lengthAdjust="spacingAndGlyphs" textLength="34.8" x="34.8" y="102.5701">email: String</text><rect fill="none" height="3.6" style="stroke: #C82930; stroke-width: 0.6;" width="3.6" x="27.6" y="106.4203"/><text fill="#000000" font-family="sans-serif" font-size="6.6" lengthAdjust="spacingAndGlyphs" textLength="37.2" x="34.8" y="110.8717">cargo: String</text><rect fill="none" height="3.6" style="stroke: #C82930; stroke-width: 0.6;" width="3.6" x="27.6" y="114.7219"/><text fill="#000000" font-family="sans-serif" font-size="6.6" lengthAdjust="spacingAndGlyphs" textLength="39.6" x="34.8" y="119.1732">unidad: String</text><rect fill="none" height="3.6" style="stroke: #C82930; stroke-width: 0.6;" width="3.6" x="27.6" y="123.0234"/><text fill="#000000" font-family="sans-serif" font-size="6.6" lengthAdjust="spacingAndGlyphs" textLength="46.8" x="34.8" y="127.4748">direccion: String</text><rect fill="none" height="3.6" style="stroke: #C82930; stroke-width: 0.6;" width="3.6" x="27.6" y="131.325"/><text fill="#000000" font-family="sans-serif" font-size="6.6" lengthAdjust="spacingAndGlyphs" textLength="33" x="34.8" y="135.7764">sexo: Sexo</text><rect fill="none" height="3.6" style="stroke: #C82930; stroke-width: 0.6;" width="3.6" x="27.6" y="139.6266"/><text fill="#000000" font-family="sans-serif" font-size="6.6" lengthAdjust="spacingAndGlyphs" textLength="34.8" x="34.8" y="144.0779">movil: String</text><rect fill="none" height="3.6" style="stroke: #C82930; stroke-width: 0.6;" width="3.6" x="27.6" y="147.9281"/><text fill="#000000" font-family="sans-serif" font-size="6.6" lengthAdjust="spacingAndGlyphs" textLength="28.8" x="34.8" y="152.3795">fijo: String</text><line style="stroke: #A80036; stroke-width: 0.8999999999999999;" x1="23.4" x2="84.6" y1="156.2297" y2="156.2297"/><!--MD5=[2bd084d4f9b8ff009b6d8ba013c0f313]
class Sexo--><rect fill="#FEFECE" filter="url(#fpe1rv91mlidu)" height="45.4031" id="Sexo" style="stroke: #A80036; stroke-width: 0.8999999999999999;" width="45" x="31.5" y="196.8"/><ellipse cx="44.82" cy="206.4" fill="#EB937F" rx="6.6" ry="6.6" style="stroke: #A80036; stroke-width: 0.6;"/><path d="M43.92,207 L43.92,208.2 L46.32,208.2 L46.32,207.6 L46.32,207.3094 L46.695,207 L46.92,207 L47.145,207 L47.52,207.3094 L47.52,207.6 L47.52,209.4 L42.72,209.4 L42.4294,209.4 L42.12,209.025 L42.12,208.8 L42.12,208.575 L42.4294,208.2 L42.72,208.2 L42.72,208.2 L42.72,204.6 L42.72,204.6 L42.4294,204.6 L42.12,204.225 L42.12,204 L42.12,203.775 L42.4294,203.4 L42.72,203.4 L47.52,203.4 L47.52,205.2 L47.52,205.4906 L47.145,205.8 L46.92,205.8 L46.695,205.8 L46.32,205.4906 L46.32,205.2 L46.32,204.6 L43.92,204.6 L43.92,205.8 L44.52,205.8 L44.52,205.5094 L44.52,205.5094 L44.895,205.2 L45.12,205.2 L45.345,205.2 L45.72,205.5094 L45.72,205.8 L45.72,207 L45.72,207.2906 L45.345,207.6 L45.345,207.6 L45.12,207.6 L44.895,207.6 L44.52,207.2906 L44.52,207.2906 L44.52,207 L43.92,207 Z "/><text fill="#000000" font-family="sans-serif" font-size="7.2" lengthAdjust="spacingAndGlyphs" textLength="16.2" x="54.18" y="209.3461">Sexo</text><line style="stroke: #A80036; stroke-width: 0.8999999999999999;" x1="32.1" x2="75.9" y1="216" y2="216"/><text fill="#000000" font-family="sans-serif" font-size="6.6" lengthAdjust="spacingAndGlyphs" textLength="37.8" x="35.1" y="225.2514">MASCULINO,</text><text fill="#000000" font-family="sans-serif" font-size="6.6" lengthAdjust="spacingAndGlyphs" textLength="30" x="35.1" y="233.5529">FEMENINO</text><line style="stroke: #A80036; stroke-width: 0.8999999999999999;" x1="32.1" x2="75.9" y1="237.4031" y2="237.4031"/><!--MD5=[93eda055a1fdb4dab9fc4d9c53718769]
link Persona to Sexo--><path d="M54,160.932 C54,172.464 54,183.906 54,193.542 " fill="none" id="Persona-&gt;Sexo" style="stroke: #A80036; stroke-width: 0.6;"/><polygon fill="#A80036" points="54,196.734,56.4,191.334,54,193.734,51.6,191.334,54,196.734" style="stroke: #A80036; stroke-width: 0.6;"/><!--MD5=[65a325526069c6d8ff5a8cfa44a4bba6]
@startuml

package Model {

    class Persona <<Entity>> {
        - uid: Long
        - codigo: Integer
        - rut: String
        - nombre: String
        - email: String
        - cargo: String
        - unidad: String
        - direccion: String
        - sexo: Sexo
        - movil: String
        - fijo: String
    }

    enum Sexo {
        MASCULINO,
        FEMENINO
    }
    Persona - -> Sexo
        
}        

@enduml

PlantUML version 1.2020.09(Sun May 10 06:51:06 CLT 2020)
(GPL source distribution)
Java Runtime: OpenJDK Runtime Environment
JVM: OpenJDK 64-Bit Server VM
Java Version: 11.0.7+10-b944.20
Operating System: Windows 10
Default Encoding: Cp1252
Language: en
Country: US
--></g></svg>