<?xml version="1.0" encoding="UTF-8" standalone="no"?><svg xmlns="http://www.w3.org/2000/svg" xmlns:xlink="http://www.w3.org/1999/xlink" contentScriptType="application/ecmascript" contentStyleType="text/css" height="658px" preserveAspectRatio="none" style="width:416px;height:658px;" version="1.1" viewBox="0 0 416 658" width="416px" zoomAndPan="magnify"><defs><filter height="300%" id="futfv3p2d7pqx" width="300%" x="-1" y="-1"><feGaussianBlur result="blurOut" stdDeviation="2.0"/><feColorMatrix in="blurOut" result="blurOut2" type="matrix" values="0 0 0 0 0 0 0 0 0 0 0 0 0 0 0 0 0 0 .4 0"/><feOffset dx="4.0" dy="4.0" in="blurOut2" result="blurOut3"/><feBlend in="SourceGraphic" in2="blurOut3" mode="normal"/></filter></defs><g><!--MD5=[15636c1ca4a123c16a2a1a8e90aca7a9]
cluster Model--><polygon fill="#FFFFFF" filter="url(#futfv3p2d7pqx)" points="22,24,72,24,79,47.6094,394,47.6094,394,646,22,646,22,24" style="stroke: #000000; stroke-width: 1.5;"/><line style="stroke: #000000; stroke-width: 1.5;" x1="22" x2="79" y1="47.6094" y2="47.6094"/><text fill="#000000" font-family="sans-serif" font-size="14" font-weight="bold" lengthAdjust="spacingAndGlyphs" textLength="44" x="26" y="40.5332">Model</text><!--MD5=[8f63dadf5c643e74a34e53c8f0a15d23]
class Persona--><rect fill="#FEFECE" filter="url(#futfv3p2d7pqx)" height="208.3828" id="Persona" style="stroke: #A80036; stroke-width: 1.5;" width="104" x="252" y="60"/><ellipse cx="278.25" cy="80.0938" fill="#ADD1B2" rx="11" ry="11" style="stroke: #A80036; stroke-width: 1.0;"/><path d="M280.25,76.5938 Q280.4531,76.0938 280.6875,75.8438 Q280.9219,75.5938 281.1875,75.5938 Q281.6563,75.5938 281.9531,75.875 Q282.25,76.1563 282.25,76.8125 L282.25,78.375 Q282.25,79.0313 281.9688,79.3125 Q281.6875,79.5938 281.25,79.5938 Q280.8594,79.5938 280.6094,79.4219 Q280.3594,79.25 280.25,78.7969 Q280.2031,78.4844 280.0313,78.3125 Q279.7188,77.9844 279.1563,77.7969 Q278.5938,77.5938 278.0313,77.5938 Q277.3281,77.5938 276.7344,77.875 Q276.1563,78.1563 275.7031,78.7813 Q275.25,79.4063 275.25,80.2656 L275.25,81.1875 Q275.25,82.2188 276.0938,82.9063 Q276.9375,83.5938 278.4375,83.5938 Q279.3281,83.5938 279.9531,83.3906 Q280.3125,83.2813 280.7188,82.9219 Q280.9844,82.7188 281.125,82.6563 Q281.2656,82.5938 281.4375,82.5938 Q281.7656,82.5938 282,82.8594 Q282.25,83.1094 282.25,83.4688 Q282.25,83.8125 281.9063,84.2188 Q281.4063,84.8125 280.6094,85.1406 Q279.5625,85.5938 278.2813,85.5938 Q276.7813,85.5938 275.5781,85 Q274.6094,84.5313 273.9219,83.5156 Q273.25,82.5 273.25,81.2969 L273.25,80.2031 Q273.25,78.9531 273.8438,77.8594 Q274.4531,76.7656 275.5,76.1875 Q276.5625,75.5938 277.75,75.5938 Q278.4688,75.5938 279.0938,75.8438 Q279.7188,76.0938 280.25,76.5938 Z "/><text fill="#000000" font-family="sans-serif" font-size="12" font-style="italic" lengthAdjust="spacingAndGlyphs" textLength="44" x="296.25" y="77.457">«Entity»</text><text fill="#000000" font-family="sans-serif" font-size="12" lengthAdjust="spacingAndGlyphs" textLength="47" x="294.75" y="92.5508">Persona</text><line style="stroke: #A80036; stroke-width: 1.5;" x1="253" x2="355" y1="100.1875" y2="100.1875"/><rect fill="none" height="6" style="stroke: #C82930; stroke-width: 1.0;" width="6" x="260" y="108.1875"/><text fill="#000000" font-family="sans-serif" font-size="11" lengthAdjust="spacingAndGlyphs" textLength="31" x="272" y="115.6064">uid: int</text><rect fill="none" height="6" style="stroke: #C82930; stroke-width: 1.0;" width="6" x="260" y="122.0234"/><text fill="#000000" font-family="sans-serif" font-size="11" lengthAdjust="spacingAndGlyphs" textLength="71" x="272" y="129.4424">codigo: Integer</text><rect fill="none" height="6" style="stroke: #C82930; stroke-width: 1.0;" width="6" x="260" y="135.8594"/><text fill="#000000" font-family="sans-serif" font-size="11" lengthAdjust="spacingAndGlyphs" textLength="47" x="272" y="143.2783">rut: String</text><rect fill="none" height="6" style="stroke: #C82930; stroke-width: 1.0;" width="6" x="260" y="149.6953"/><text fill="#000000" font-family="sans-serif" font-size="11" lengthAdjust="spacingAndGlyphs" textLength="70" x="272" y="157.1143">nombre: String</text><rect fill="none" height="6" style="stroke: #C82930; stroke-width: 1.0;" width="6" x="260" y="163.5313"/><text fill="#000000" font-family="sans-serif" font-size="11" lengthAdjust="spacingAndGlyphs" textLength="58" x="272" y="170.9502">email: String</text><rect fill="none" height="6" style="stroke: #C82930; stroke-width: 1.0;" width="6" x="260" y="177.3672"/><text fill="#000000" font-family="sans-serif" font-size="11" lengthAdjust="spacingAndGlyphs" textLength="62" x="272" y="184.7861">cargo: String</text><rect fill="none" height="6" style="stroke: #C82930; stroke-width: 1.0;" width="6" x="260" y="191.2031"/><text fill="#000000" font-family="sans-serif" font-size="11" lengthAdjust="spacingAndGlyphs" textLength="66" x="272" y="198.6221">unidad: String</text><rect fill="none" height="6" style="stroke: #C82930; stroke-width: 1.0;" width="6" x="260" y="205.0391"/><text fill="#000000" font-family="sans-serif" font-size="11" lengthAdjust="spacingAndGlyphs" textLength="78" x="272" y="212.458">direccion: String</text><rect fill="none" height="6" style="stroke: #C82930; stroke-width: 1.0;" width="6" x="260" y="218.875"/><text fill="#000000" font-family="sans-serif" font-size="11" lengthAdjust="spacingAndGlyphs" textLength="58" x="272" y="226.2939">movil: String</text><rect fill="none" height="6" style="stroke: #C82930; stroke-width: 1.0;" width="6" x="260" y="232.7109"/><text fill="#000000" font-family="sans-serif" font-size="11" lengthAdjust="spacingAndGlyphs" textLength="48" x="272" y="240.1299">fijo: String</text><rect fill="none" height="6" style="stroke: #C82930; stroke-width: 1.0;" width="6" x="260" y="246.5469"/><text fill="#000000" font-family="sans-serif" font-size="11" lengthAdjust="spacingAndGlyphs" textLength="55" x="272" y="253.9658">sexo: Sexo</text><line style="stroke: #A80036; stroke-width: 1.5;" x1="253" x2="355" y1="260.3828" y2="260.3828"/><!--MD5=[2bd084d4f9b8ff009b6d8ba013c0f313]
class Sexo--><rect fill="#FEFECE" filter="url(#futfv3p2d7pqx)" height="75.6719" id="Sexo" style="stroke: #A80036; stroke-width: 1.5;" width="72" x="306" y="359.5"/><ellipse cx="326.85" cy="375.5" fill="#EB937F" rx="11" ry="11" style="stroke: #A80036; stroke-width: 1.0;"/><path d="M325.35,376.5 L325.35,378.5 L329.35,378.5 L329.35,377.5 L329.35,377.0156 L329.975,376.5 L330.35,376.5 L330.725,376.5 L331.35,377.0156 L331.35,377.5 L331.35,380.5 L323.35,380.5 L322.8656,380.5 L322.35,379.875 L322.35,379.5 L322.35,379.125 L322.8656,378.5 L323.35,378.5 L323.35,378.5 L323.35,372.5 L323.35,372.5 L322.8656,372.5 L322.35,371.875 L322.35,371.5 L322.35,371.125 L322.8656,370.5 L323.35,370.5 L331.35,370.5 L331.35,373.5 L331.35,373.9844 L330.725,374.5 L330.35,374.5 L329.975,374.5 L329.35,373.9844 L329.35,373.5 L329.35,372.5 L325.35,372.5 L325.35,374.5 L326.35,374.5 L326.35,374.0156 L326.35,374.0156 L326.975,373.5 L327.35,373.5 L327.725,373.5 L328.35,374.0156 L328.35,374.5 L328.35,376.5 L328.35,376.9844 L327.725,377.5 L327.725,377.5 L327.35,377.5 L326.975,377.5 L326.35,376.9844 L326.35,376.9844 L326.35,376.5 L325.35,376.5 Z "/><text fill="#000000" font-family="sans-serif" font-size="12" lengthAdjust="spacingAndGlyphs" textLength="27" x="342.15" y="380.4102">Sexo</text><line style="stroke: #A80036; stroke-width: 1.5;" x1="307" x2="377" y1="391.5" y2="391.5"/><text fill="#000000" font-family="sans-serif" font-size="11" lengthAdjust="spacingAndGlyphs" textLength="60" x="312" y="406.9189">MASCULINO</text><text fill="#000000" font-family="sans-serif" font-size="11" lengthAdjust="spacingAndGlyphs" textLength="50" x="312" y="420.7549">FEMENINO</text><line style="stroke: #A80036; stroke-width: 1.5;" x1="307" x2="377" y1="427.1719" y2="427.1719"/><!--MD5=[c697cdd6c102d1ef4f6082caf1dabcae]
class Marca--><rect fill="#FEFECE" filter="url(#futfv3p2d7pqx)" height="103.3438" id="Marca" style="stroke: #A80036; stroke-width: 1.5;" width="65" x="178.5" y="527"/><ellipse cx="193.5" cy="543" fill="#EB937F" rx="11" ry="11" style="stroke: #A80036; stroke-width: 1.0;"/><path d="M192,544 L192,546 L196,546 L196,545 L196,544.5156 L196.625,544 L197,544 L197.375,544 L198,544.5156 L198,545 L198,548 L190,548 L189.5156,548 L189,547.375 L189,547 L189,546.625 L189.5156,546 L190,546 L190,546 L190,540 L190,540 L189.5156,540 L189,539.375 L189,539 L189,538.625 L189.5156,538 L190,538 L198,538 L198,541 L198,541.4844 L197.375,542 L197,542 L196.625,542 L196,541.4844 L196,541 L196,540 L192,540 L192,542 L193,542 L193,541.5156 L193,541.5156 L193.625,541 L194,541 L194.375,541 L195,541.5156 L195,542 L195,544 L195,544.4844 L194.375,545 L194.375,545 L194,545 L193.625,545 L193,544.4844 L193,544.4844 L193,544 L192,544 Z "/><text fill="#000000" font-family="sans-serif" font-size="12" lengthAdjust="spacingAndGlyphs" textLength="33" x="207.5" y="547.9102">Marca</text><line style="stroke: #A80036; stroke-width: 1.5;" x1="179.5" x2="242.5" y1="559" y2="559"/><text fill="#000000" font-family="sans-serif" font-size="11" lengthAdjust="spacingAndGlyphs" textLength="20" x="184.5" y="574.4189">AJS</text><text fill="#000000" font-family="sans-serif" font-size="11" lengthAdjust="spacingAndGlyphs" textLength="30" x="184.5" y="588.2549">Acura</text><text fill="#000000" font-family="sans-serif" font-size="11" lengthAdjust="spacingAndGlyphs" textLength="22" x="184.5" y="602.0908">Audi</text><text fill="#000000" font-family="sans-serif" font-size="11" lengthAdjust="spacingAndGlyphs" textLength="9" x="184.5" y="615.9268">...</text><line style="stroke: #A80036; stroke-width: 1.5;" x1="179.5" x2="242.5" y1="622.3438" y2="622.3438"/><!--MD5=[1d6438b19b75334de94d74596f8416e5]
class Vehiculo--><rect fill="#FEFECE" filter="url(#futfv3p2d7pqx)" height="139.2031" id="Vehiculo" style="stroke: #A80036; stroke-width: 1.5;" width="120" x="151" y="328"/><ellipse cx="184.45" cy="348.0938" fill="#ADD1B2" rx="11" ry="11" style="stroke: #A80036; stroke-width: 1.0;"/><path d="M186.45,344.5938 Q186.6531,344.0938 186.8875,343.8438 Q187.1219,343.5938 187.3875,343.5938 Q187.8563,343.5938 188.1531,343.875 Q188.45,344.1563 188.45,344.8125 L188.45,346.375 Q188.45,347.0313 188.1688,347.3125 Q187.8875,347.5938 187.45,347.5938 Q187.0594,347.5938 186.8094,347.4219 Q186.5594,347.25 186.45,346.7969 Q186.4031,346.4844 186.2313,346.3125 Q185.9188,345.9844 185.3563,345.7969 Q184.7938,345.5938 184.2313,345.5938 Q183.5281,345.5938 182.9344,345.875 Q182.3563,346.1563 181.9031,346.7813 Q181.45,347.4063 181.45,348.2656 L181.45,349.1875 Q181.45,350.2188 182.2938,350.9063 Q183.1375,351.5938 184.6375,351.5938 Q185.5281,351.5938 186.1531,351.3906 Q186.5125,351.2813 186.9188,350.9219 Q187.1844,350.7188 187.325,350.6563 Q187.4656,350.5938 187.6375,350.5938 Q187.9656,350.5938 188.2,350.8594 Q188.45,351.1094 188.45,351.4688 Q188.45,351.8125 188.1063,352.2188 Q187.6063,352.8125 186.8094,353.1406 Q185.7625,353.5938 184.4813,353.5938 Q182.9813,353.5938 181.7781,353 Q180.8094,352.5313 180.1219,351.5156 Q179.45,350.5 179.45,349.2969 L179.45,348.2031 Q179.45,346.9531 180.0438,345.8594 Q180.6531,344.7656 181.7,344.1875 Q182.7625,343.5938 183.95,343.5938 Q184.6688,343.5938 185.2938,343.8438 Q185.9188,344.0938 186.45,344.5938 Z "/><text fill="#000000" font-family="sans-serif" font-size="12" font-style="italic" lengthAdjust="spacingAndGlyphs" textLength="44" x="204.05" y="345.457">«Entity»</text><text fill="#000000" font-family="sans-serif" font-size="12" lengthAdjust="spacingAndGlyphs" textLength="47" x="202.55" y="360.5508">Vehiculo</text><line style="stroke: #A80036; stroke-width: 1.5;" x1="152" x2="270" y1="368.1875" y2="368.1875"/><rect fill="none" height="6" style="stroke: #C82930; stroke-width: 1.0;" width="6" x="159" y="376.1875"/><text fill="#000000" font-family="sans-serif" font-size="11" lengthAdjust="spacingAndGlyphs" textLength="31" x="171" y="383.6064">uid: int</text><rect fill="none" height="6" style="stroke: #C82930; stroke-width: 1.0;" width="6" x="159" y="390.0234"/><text fill="#000000" font-family="sans-serif" font-size="11" lengthAdjust="spacingAndGlyphs" textLength="60" x="171" y="397.4424">placa: String</text><rect fill="none" height="6" style="stroke: #C82930; stroke-width: 1.0;" width="6" x="159" y="403.8594"/><text fill="#000000" font-family="sans-serif" font-size="11" lengthAdjust="spacingAndGlyphs" textLength="68" x="171" y="411.2783">modelo: String</text><rect fill="none" height="6" style="stroke: #C82930; stroke-width: 1.0;" width="6" x="159" y="417.6953"/><text fill="#000000" font-family="sans-serif" font-size="11" lengthAdjust="spacingAndGlyphs" textLength="37" x="171" y="425.1143">anio: int</text><rect fill="none" height="6" style="stroke: #C82930; stroke-width: 1.0;" width="6" x="159" y="431.5313"/><text fill="#000000" font-family="sans-serif" font-size="11" lengthAdjust="spacingAndGlyphs" textLength="94" x="171" y="438.9502">observacion: String</text><rect fill="none" height="6" style="stroke: #C82930; stroke-width: 1.0;" width="6" x="159" y="445.3672"/><text fill="#000000" font-family="sans-serif" font-size="11" lengthAdjust="spacingAndGlyphs" textLength="66" x="171" y="452.7861">marca: Marca</text><line style="stroke: #A80036; stroke-width: 1.5;" x1="152" x2="270" y1="459.2031" y2="459.2031"/><!--MD5=[2c7daca40e04ed325659866a6c2cdad8]
class Porteria--><rect fill="#FEFECE" filter="url(#futfv3p2d7pqx)" height="117.1797" id="Porteria" style="stroke: #A80036; stroke-width: 1.5;" width="78" x="38" y="339"/><ellipse cx="54.35" cy="355" fill="#EB937F" rx="11" ry="11" style="stroke: #A80036; stroke-width: 1.0;"/><path d="M52.85,356 L52.85,358 L56.85,358 L56.85,357 L56.85,356.5156 L57.475,356 L57.85,356 L58.225,356 L58.85,356.5156 L58.85,357 L58.85,360 L50.85,360 L50.3656,360 L49.85,359.375 L49.85,359 L49.85,358.625 L50.3656,358 L50.85,358 L50.85,358 L50.85,352 L50.85,352 L50.3656,352 L49.85,351.375 L49.85,351 L49.85,350.625 L50.3656,350 L50.85,350 L58.85,350 L58.85,353 L58.85,353.4844 L58.225,354 L57.85,354 L57.475,354 L56.85,353.4844 L56.85,353 L56.85,352 L52.85,352 L52.85,354 L53.85,354 L53.85,353.5156 L53.85,353.5156 L54.475,353 L54.85,353 L55.225,353 L55.85,353.5156 L55.85,354 L55.85,356 L55.85,356.4844 L55.225,357 L55.225,357 L54.85,357 L54.475,357 L53.85,356.4844 L53.85,356.4844 L53.85,356 L52.85,356 Z "/><text fill="#000000" font-family="sans-serif" font-size="12" lengthAdjust="spacingAndGlyphs" textLength="43" x="68.65" y="359.9102">Porteria</text><line style="stroke: #A80036; stroke-width: 1.5;" x1="39" x2="115" y1="371" y2="371"/><text fill="#000000" font-family="sans-serif" font-size="11" lengthAdjust="spacingAndGlyphs" textLength="21" x="44" y="386.4189">SUR</text><text fill="#000000" font-family="sans-serif" font-size="11" lengthAdjust="spacingAndGlyphs" textLength="47" x="44" y="400.2549">CENTRAL</text><text fill="#000000" font-family="sans-serif" font-size="11" lengthAdjust="spacingAndGlyphs" textLength="52" x="44" y="414.0908">MANCILLA</text><text fill="#000000" font-family="sans-serif" font-size="11" lengthAdjust="spacingAndGlyphs" textLength="45" x="44" y="427.9268">SANGRA</text><text fill="#000000" font-family="sans-serif" font-size="11" lengthAdjust="spacingAndGlyphs" textLength="66" x="44" y="441.7627">HUANCHACA</text><line style="stroke: #A80036; stroke-width: 1.5;" x1="39" x2="115" y1="448.1797" y2="448.1797"/><!--MD5=[9f35603b252cdd4401c7cdb0cea7e6cf]
class Registro--><rect fill="#FEFECE" filter="url(#futfv3p2d7pqx)" height="111.5313" id="Registro" style="stroke: #A80036; stroke-width: 1.5;" width="114" x="81" y="108"/><ellipse cx="111.75" cy="128.0938" fill="#ADD1B2" rx="11" ry="11" style="stroke: #A80036; stroke-width: 1.0;"/><path d="M113.75,124.5938 Q113.9531,124.0938 114.1875,123.8438 Q114.4219,123.5938 114.6875,123.5938 Q115.1563,123.5938 115.4531,123.875 Q115.75,124.1563 115.75,124.8125 L115.75,126.375 Q115.75,127.0313 115.4688,127.3125 Q115.1875,127.5938 114.75,127.5938 Q114.3594,127.5938 114.1094,127.4219 Q113.8594,127.25 113.75,126.7969 Q113.7031,126.4844 113.5313,126.3125 Q113.2188,125.9844 112.6563,125.7969 Q112.0938,125.5938 111.5313,125.5938 Q110.8281,125.5938 110.2344,125.875 Q109.6563,126.1563 109.2031,126.7813 Q108.75,127.4063 108.75,128.2656 L108.75,129.1875 Q108.75,130.2188 109.5938,130.9063 Q110.4375,131.5938 111.9375,131.5938 Q112.8281,131.5938 113.4531,131.3906 Q113.8125,131.2813 114.2188,130.9219 Q114.4844,130.7188 114.625,130.6563 Q114.7656,130.5938 114.9375,130.5938 Q115.2656,130.5938 115.5,130.8594 Q115.75,131.1094 115.75,131.4688 Q115.75,131.8125 115.4063,132.2188 Q114.9063,132.8125 114.1094,133.1406 Q113.0625,133.5938 111.7813,133.5938 Q110.2813,133.5938 109.0781,133 Q108.1094,132.5313 107.4219,131.5156 Q106.75,130.5 106.75,129.2969 L106.75,128.2031 Q106.75,126.9531 107.3438,125.8594 Q107.9531,124.7656 109,124.1875 Q110.0625,123.5938 111.25,123.5938 Q111.9688,123.5938 112.5938,123.8438 Q113.2188,124.0938 113.75,124.5938 Z "/><text fill="#000000" font-family="sans-serif" font-size="12" font-style="italic" lengthAdjust="spacingAndGlyphs" textLength="44" x="130.75" y="125.457">«Entity»</text><text fill="#000000" font-family="sans-serif" font-size="12" lengthAdjust="spacingAndGlyphs" textLength="47" x="129.25" y="140.5508">Registro</text><line style="stroke: #A80036; stroke-width: 1.5;" x1="82" x2="194" y1="148.1875" y2="148.1875"/><rect fill="none" height="6" style="stroke: #C82930; stroke-width: 1.0;" width="6" x="89" y="156.1875"/><text fill="#000000" font-family="sans-serif" font-size="11" lengthAdjust="spacingAndGlyphs" textLength="31" x="101" y="163.6064">uid: int</text><rect fill="none" height="6" style="stroke: #C82930; stroke-width: 1.0;" width="6" x="89" y="170.0234"/><text fill="#000000" font-family="sans-serif" font-size="11" lengthAdjust="spacingAndGlyphs" textLength="62" x="101" y="177.4424">fecha: String</text><rect fill="none" height="6" style="stroke: #C82930; stroke-width: 1.0;" width="6" x="89" y="183.8594"/><text fill="#000000" font-family="sans-serif" font-size="11" lengthAdjust="spacingAndGlyphs" textLength="88" x="101" y="191.2783">vehiculo: Vehiculo</text><rect fill="none" height="6" style="stroke: #C82930; stroke-width: 1.0;" width="6" x="89" y="197.6953"/><text fill="#000000" font-family="sans-serif" font-size="11" lengthAdjust="spacingAndGlyphs" textLength="80" x="101" y="205.1143">porteria: Porteria</text><line style="stroke: #A80036; stroke-width: 1.5;" x1="82" x2="194" y1="211.5313" y2="211.5313"/><!--MD5=[93eda055a1fdb4dab9fc4d9c53718769]
link Persona to Sexo--><path d="M320.94,268.22 C325.93,298.62 331.11,330.18 335.09,354.39 " fill="none" id="Persona-&gt;Sexo" style="stroke: #A80036; stroke-width: 1.0;"/><polygon fill="#A80036" points="335.92,359.44,338.3994,349.9083,335.105,354.5069,330.5064,351.2124,335.92,359.44" style="stroke: #A80036; stroke-width: 1.0;"/><!--MD5=[28a8ff83bf1873a2a9c941a981da284c]
link Vehiculo to Marca--><path d="M211,467.19 C211,485.15 211,504.3 211,521.51 " fill="none" id="Vehiculo-&gt;Marca" style="stroke: #A80036; stroke-width: 1.0;"/><polygon fill="#A80036" points="211,526.78,215,517.78,211,521.78,207,517.78,211,526.78" style="stroke: #A80036; stroke-width: 1.0;"/><!--MD5=[61b1cc7e641473c853329f5c9b5df142]
link Persona to Vehiculo--><path d="M262.53,268.22 C255.14,286.63 247.57,305.46 240.59,322.83 " fill="none" id="Persona-&gt;Vehiculo" style="stroke: #A80036; stroke-width: 1.0;"/><polygon fill="#A80036" points="238.64,327.69,245.6964,320.8193,240.497,323.0476,238.2686,317.8481,238.64,327.69" style="stroke: #A80036; stroke-width: 1.0;"/><!--MD5=[73f3fe83ac77ea1d45a0c1be7c1e48ae]
link Registro to Porteria--><path d="M123.47,220.16 C114.47,254.32 102.88,298.28 93.53,333.77 " fill="none" id="Registro-&gt;Porteria" style="stroke: #A80036; stroke-width: 1.0;"/><polygon fill="#A80036" points="92.17,338.94,98.3299,331.2552,93.4432,334.1048,90.5936,329.2181,92.17,338.94" style="stroke: #A80036; stroke-width: 1.0;"/><!--MD5=[b0f78b729b557d454a4a683c9910219b]
link Registro to Vehiculo--><path d="M155.39,220.16 C165.08,250.88 177.27,289.53 187.76,322.81 " fill="none" id="Registro-&gt;Vehiculo" style="stroke: #A80036; stroke-width: 1.0;"/><polygon fill="#A80036" points="189.3,327.68,190.4168,317.8947,187.8005,322.9101,182.785,320.2939,189.3,327.68" style="stroke: #A80036; stroke-width: 1.0;"/><!--MD5=[2ec32cc6d07edc3f7cf55b05948cf180]
@startuml

package Model {

    class Persona <<Entity>> {
        - uid: int
        - codigo: Integer
        - rut: String
        - nombre: String
        - email: String
        - cargo: String
        - unidad: String
        - direccion: String
        - movil: String
        - fijo: String
        - sexo: Sexo
    }

    enum Sexo {
        MASCULINO
        FEMENINO
    }
    Persona - -> Sexo

    enum Marca {
        AJS
        Acura
        Audi
        ...
    }

    class Vehiculo <<Entity>> {
        - uid: int
        - placa: String
        - modelo: String
        - anio: int
        - observacion: String
        - marca: Marca
    }
    Vehiculo - -> Marca
    Persona - -> Vehiculo

    enum Porteria {
        SUR
        CENTRAL
        MANCILLA
        SANGRA
        HUANCHACA
    }

    class Registro <<Entity>> {
        - uid: int
        - fecha: String
        - vehiculo: Vehiculo
        - porteria: Porteria
    }
    Registro - -> Porteria
    Registro - -> Vehiculo

}

@enduml

PlantUML version 1.2020.09(Sun May 10 06:51:06 CLT 2020)
(GPL source distribution)
Java Runtime: OpenJDK Runtime Environment
JVM: OpenJDK 64-Bit Server VM
Java Version: 11.0.7+10-b944.20
Operating System: Windows 10
Default Encoding: Cp1252
Language: en
Country: US
--></g></svg>