<?xml version="1.0" encoding="UTF-8" standalone="no"?><svg xmlns="http://www.w3.org/2000/svg" xmlns:xlink="http://www.w3.org/1999/xlink" contentScriptType="application/ecmascript" contentStyleType="text/css" height="694px" preserveAspectRatio="none" style="width:445px;height:694px;" version="1.1" viewBox="0 0 445 694" width="445px" zoomAndPan="magnify"><defs><filter height="300%" id="f5qhqqzwg5xbk" width="300%" x="-1" y="-1"><feGaussianBlur result="blurOut" stdDeviation="2.0"/><feColorMatrix in="blurOut" result="blurOut2" type="matrix" values="0 0 0 0 0 0 0 0 0 0 0 0 0 0 0 0 0 0 .4 0"/><feOffset dx="4.0" dy="4.0" in="blurOut2" result="blurOut3"/><feBlend in="SourceGraphic" in2="blurOut3" mode="normal"/></filter></defs><g><!--MD5=[15636c1ca4a123c16a2a1a8e90aca7a9]
cluster Model--><polygon fill="#CCFFCC" filter="url(#f5qhqqzwg5xbk)" points="22,24,72,24,79,47.6094,423,47.6094,423,682,22,682,22,24" style="stroke: #000000; stroke-width: 1.5;"/><line style="stroke: #000000; stroke-width: 1.5;" x1="22" x2="79" y1="47.6094" y2="47.6094"/><text fill="#000000" font-family="sans-serif" font-size="14" font-weight="bold" lengthAdjust="spacingAndGlyphs" textLength="44" x="26" y="40.5332">Model</text><!--MD5=[8f63dadf5c643e74a34e53c8f0a15d23]
class Persona--><rect fill="#FEFECE" filter="url(#f5qhqqzwg5xbk)" height="208.3828" id="Persona" style="stroke: #A80036; stroke-width: 1.5;" width="104" x="244" y="60"/><ellipse cx="270.25" cy="80.0938" fill="#ADD1B2" rx="11" ry="11" style="stroke: #A80036; stroke-width: 1.0;"/><path d="M272.25,76.5938 Q272.4531,76.0938 272.6875,75.8438 Q272.9219,75.5938 273.1875,75.5938 Q273.6563,75.5938 273.9531,75.875 Q274.25,76.1563 274.25,76.8125 L274.25,78.375 Q274.25,79.0313 273.9688,79.3125 Q273.6875,79.5938 273.25,79.5938 Q272.8594,79.5938 272.6094,79.4219 Q272.3594,79.25 272.25,78.7969 Q272.2031,78.4844 272.0313,78.3125 Q271.7188,77.9844 271.1563,77.7969 Q270.5938,77.5938 270.0313,77.5938 Q269.3281,77.5938 268.7344,77.875 Q268.1563,78.1563 267.7031,78.7813 Q267.25,79.4063 267.25,80.2656 L267.25,81.1875 Q267.25,82.2188 268.0938,82.9063 Q268.9375,83.5938 270.4375,83.5938 Q271.3281,83.5938 271.9531,83.3906 Q272.3125,83.2813 272.7188,82.9219 Q272.9844,82.7188 273.125,82.6563 Q273.2656,82.5938 273.4375,82.5938 Q273.7656,82.5938 274,82.8594 Q274.25,83.1094 274.25,83.4688 Q274.25,83.8125 273.9063,84.2188 Q273.4063,84.8125 272.6094,85.1406 Q271.5625,85.5938 270.2813,85.5938 Q268.7813,85.5938 267.5781,85 Q266.6094,84.5313 265.9219,83.5156 Q265.25,82.5 265.25,81.2969 L265.25,80.2031 Q265.25,78.9531 265.8438,77.8594 Q266.4531,76.7656 267.5,76.1875 Q268.5625,75.5938 269.75,75.5938 Q270.4688,75.5938 271.0938,75.8438 Q271.7188,76.0938 272.25,76.5938 Z "/><text fill="#000000" font-family="sans-serif" font-size="12" font-style="italic" lengthAdjust="spacingAndGlyphs" textLength="44" x="288.25" y="77.457">«Entity»</text><text fill="#000000" font-family="sans-serif" font-size="12" lengthAdjust="spacingAndGlyphs" textLength="47" x="286.75" y="92.5508">Persona</text><line style="stroke: #A80036; stroke-width: 1.5;" x1="245" x2="347" y1="100.1875" y2="100.1875"/><rect fill="none" height="6" style="stroke: #C82930; stroke-width: 1.0;" width="6" x="252" y="108.1875"/><text fill="#000000" font-family="sans-serif" font-size="11" lengthAdjust="spacingAndGlyphs" textLength="31" x="264" y="115.6064">uid: int</text><rect fill="none" height="6" style="stroke: #C82930; stroke-width: 1.0;" width="6" x="252" y="122.0234"/><text fill="#000000" font-family="sans-serif" font-size="11" lengthAdjust="spacingAndGlyphs" textLength="71" x="264" y="129.4424">codigo: Integer</text><rect fill="none" height="6" style="stroke: #C82930; stroke-width: 1.0;" width="6" x="252" y="135.8594"/><text fill="#000000" font-family="sans-serif" font-size="11" lengthAdjust="spacingAndGlyphs" textLength="47" x="264" y="143.2783">rut: String</text><rect fill="none" height="6" style="stroke: #C82930; stroke-width: 1.0;" width="6" x="252" y="149.6953"/><text fill="#000000" font-family="sans-serif" font-size="11" lengthAdjust="spacingAndGlyphs" textLength="70" x="264" y="157.1143">nombre: String</text><rect fill="none" height="6" style="stroke: #C82930; stroke-width: 1.0;" width="6" x="252" y="163.5313"/><text fill="#000000" font-family="sans-serif" font-size="11" lengthAdjust="spacingAndGlyphs" textLength="58" x="264" y="170.9502">email: String</text><rect fill="none" height="6" style="stroke: #C82930; stroke-width: 1.0;" width="6" x="252" y="177.3672"/><text fill="#000000" font-family="sans-serif" font-size="11" lengthAdjust="spacingAndGlyphs" textLength="62" x="264" y="184.7861">cargo: String</text><rect fill="none" height="6" style="stroke: #C82930; stroke-width: 1.0;" width="6" x="252" y="191.2031"/><text fill="#000000" font-family="sans-serif" font-size="11" lengthAdjust="spacingAndGlyphs" textLength="66" x="264" y="198.6221">unidad: String</text><rect fill="none" height="6" style="stroke: #C82930; stroke-width: 1.0;" width="6" x="252" y="205.0391"/><text fill="#000000" font-family="sans-serif" font-size="11" lengthAdjust="spacingAndGlyphs" textLength="78" x="264" y="212.458">direccion: String</text><rect fill="none" height="6" style="stroke: #C82930; stroke-width: 1.0;" width="6" x="252" y="218.875"/><text fill="#000000" font-family="sans-serif" font-size="11" lengthAdjust="spacingAndGlyphs" textLength="58" x="264" y="226.2939">movil: String</text><rect fill="none" height="6" style="stroke: #C82930; stroke-width: 1.0;" width="6" x="252" y="232.7109"/><text fill="#000000" font-family="sans-serif" font-size="11" lengthAdjust="spacingAndGlyphs" textLength="48" x="264" y="240.1299">fijo: String</text><rect fill="none" height="6" style="stroke: #C82930; stroke-width: 1.0;" width="6" x="252" y="246.5469"/><text fill="#000000" font-family="sans-serif" font-size="11" lengthAdjust="spacingAndGlyphs" textLength="55" x="264" y="253.9658">sexo: Sexo</text><line style="stroke: #A80036; stroke-width: 1.5;" x1="245" x2="347" y1="260.3828" y2="260.3828"/><!--MD5=[2bd084d4f9b8ff009b6d8ba013c0f313]
class Sexo--><rect fill="#FEFECE" filter="url(#f5qhqqzwg5xbk)" height="75.6719" id="Sexo" style="stroke: #A80036; stroke-width: 1.5;" width="72" x="335" y="377.5"/><ellipse cx="355.85" cy="393.5" fill="#EB937F" rx="11" ry="11" style="stroke: #A80036; stroke-width: 1.0;"/><path d="M354.35,394.5 L354.35,396.5 L358.35,396.5 L358.35,395.5 L358.35,395.0156 L358.975,394.5 L359.35,394.5 L359.725,394.5 L360.35,395.0156 L360.35,395.5 L360.35,398.5 L352.35,398.5 L351.8656,398.5 L351.35,397.875 L351.35,397.5 L351.35,397.125 L351.8656,396.5 L352.35,396.5 L352.35,396.5 L352.35,390.5 L352.35,390.5 L351.8656,390.5 L351.35,389.875 L351.35,389.5 L351.35,389.125 L351.8656,388.5 L352.35,388.5 L360.35,388.5 L360.35,391.5 L360.35,391.9844 L359.725,392.5 L359.35,392.5 L358.975,392.5 L358.35,391.9844 L358.35,391.5 L358.35,390.5 L354.35,390.5 L354.35,392.5 L355.35,392.5 L355.35,392.0156 L355.35,392.0156 L355.975,391.5 L356.35,391.5 L356.725,391.5 L357.35,392.0156 L357.35,392.5 L357.35,394.5 L357.35,394.9844 L356.725,395.5 L356.725,395.5 L356.35,395.5 L355.975,395.5 L355.35,394.9844 L355.35,394.9844 L355.35,394.5 L354.35,394.5 Z "/><text fill="#000000" font-family="sans-serif" font-size="12" lengthAdjust="spacingAndGlyphs" textLength="27" x="371.15" y="398.4102">Sexo</text><line style="stroke: #A80036; stroke-width: 1.5;" x1="336" x2="406" y1="409.5" y2="409.5"/><text fill="#000000" font-family="sans-serif" font-size="11" lengthAdjust="spacingAndGlyphs" textLength="60" x="341" y="424.9189">MASCULINO</text><text fill="#000000" font-family="sans-serif" font-size="11" lengthAdjust="spacingAndGlyphs" textLength="50" x="341" y="438.7549">FEMENINO</text><line style="stroke: #A80036; stroke-width: 1.5;" x1="336" x2="406" y1="445.1719" y2="445.1719"/><!--MD5=[c697cdd6c102d1ef4f6082caf1dabcae]
class Marca--><rect fill="#FEFECE" filter="url(#f5qhqqzwg5xbk)" height="103.3438" id="Marca" style="stroke: #A80036; stroke-width: 1.5;" width="65" x="192.5" y="563"/><ellipse cx="207.5" cy="579" fill="#EB937F" rx="11" ry="11" style="stroke: #A80036; stroke-width: 1.0;"/><path d="M206,580 L206,582 L210,582 L210,581 L210,580.5156 L210.625,580 L211,580 L211.375,580 L212,580.5156 L212,581 L212,584 L204,584 L203.5156,584 L203,583.375 L203,583 L203,582.625 L203.5156,582 L204,582 L204,582 L204,576 L204,576 L203.5156,576 L203,575.375 L203,575 L203,574.625 L203.5156,574 L204,574 L212,574 L212,577 L212,577.4844 L211.375,578 L211,578 L210.625,578 L210,577.4844 L210,577 L210,576 L206,576 L206,578 L207,578 L207,577.5156 L207,577.5156 L207.625,577 L208,577 L208.375,577 L209,577.5156 L209,578 L209,580 L209,580.4844 L208.375,581 L208.375,581 L208,581 L207.625,581 L207,580.4844 L207,580.4844 L207,580 L206,580 Z "/><text fill="#000000" font-family="sans-serif" font-size="12" lengthAdjust="spacingAndGlyphs" textLength="33" x="221.5" y="583.9102">Marca</text><line style="stroke: #A80036; stroke-width: 1.5;" x1="193.5" x2="256.5" y1="595" y2="595"/><text fill="#000000" font-family="sans-serif" font-size="11" lengthAdjust="spacingAndGlyphs" textLength="20" x="198.5" y="610.4189">AJS</text><text fill="#000000" font-family="sans-serif" font-size="11" lengthAdjust="spacingAndGlyphs" textLength="30" x="198.5" y="624.2549">Acura</text><text fill="#000000" font-family="sans-serif" font-size="11" lengthAdjust="spacingAndGlyphs" textLength="22" x="198.5" y="638.0908">Audi</text><text fill="#000000" font-family="sans-serif" font-size="11" lengthAdjust="spacingAndGlyphs" textLength="9" x="198.5" y="651.9268">...</text><line style="stroke: #A80036; stroke-width: 1.5;" x1="193.5" x2="256.5" y1="658.3438" y2="658.3438"/><!--MD5=[1d6438b19b75334de94d74596f8416e5]
class Vehiculo--><rect fill="#FEFECE" filter="url(#f5qhqqzwg5xbk)" height="139.2031" id="Vehiculo" style="stroke: #A80036; stroke-width: 1.5;" width="120" x="165" y="346"/><ellipse cx="198.45" cy="366.0938" fill="#ADD1B2" rx="11" ry="11" style="stroke: #A80036; stroke-width: 1.0;"/><path d="M200.45,362.5938 Q200.6531,362.0938 200.8875,361.8438 Q201.1219,361.5938 201.3875,361.5938 Q201.8563,361.5938 202.1531,361.875 Q202.45,362.1563 202.45,362.8125 L202.45,364.375 Q202.45,365.0313 202.1688,365.3125 Q201.8875,365.5938 201.45,365.5938 Q201.0594,365.5938 200.8094,365.4219 Q200.5594,365.25 200.45,364.7969 Q200.4031,364.4844 200.2313,364.3125 Q199.9188,363.9844 199.3563,363.7969 Q198.7938,363.5938 198.2313,363.5938 Q197.5281,363.5938 196.9344,363.875 Q196.3563,364.1563 195.9031,364.7813 Q195.45,365.4063 195.45,366.2656 L195.45,367.1875 Q195.45,368.2188 196.2938,368.9063 Q197.1375,369.5938 198.6375,369.5938 Q199.5281,369.5938 200.1531,369.3906 Q200.5125,369.2813 200.9188,368.9219 Q201.1844,368.7188 201.325,368.6563 Q201.4656,368.5938 201.6375,368.5938 Q201.9656,368.5938 202.2,368.8594 Q202.45,369.1094 202.45,369.4688 Q202.45,369.8125 202.1063,370.2188 Q201.6063,370.8125 200.8094,371.1406 Q199.7625,371.5938 198.4813,371.5938 Q196.9813,371.5938 195.7781,371 Q194.8094,370.5313 194.1219,369.5156 Q193.45,368.5 193.45,367.2969 L193.45,366.2031 Q193.45,364.9531 194.0438,363.8594 Q194.6531,362.7656 195.7,362.1875 Q196.7625,361.5938 197.95,361.5938 Q198.6688,361.5938 199.2938,361.8438 Q199.9188,362.0938 200.45,362.5938 Z "/><text fill="#000000" font-family="sans-serif" font-size="12" font-style="italic" lengthAdjust="spacingAndGlyphs" textLength="44" x="218.05" y="363.457">«Entity»</text><text fill="#000000" font-family="sans-serif" font-size="12" lengthAdjust="spacingAndGlyphs" textLength="47" x="216.55" y="378.5508">Vehiculo</text><line style="stroke: #A80036; stroke-width: 1.5;" x1="166" x2="284" y1="386.1875" y2="386.1875"/><rect fill="none" height="6" style="stroke: #C82930; stroke-width: 1.0;" width="6" x="173" y="394.1875"/><text fill="#000000" font-family="sans-serif" font-size="11" lengthAdjust="spacingAndGlyphs" textLength="31" x="185" y="401.6064">uid: int</text><rect fill="none" height="6" style="stroke: #C82930; stroke-width: 1.0;" width="6" x="173" y="408.0234"/><text fill="#000000" font-family="sans-serif" font-size="11" lengthAdjust="spacingAndGlyphs" textLength="60" x="185" y="415.4424">placa: String</text><rect fill="none" height="6" style="stroke: #C82930; stroke-width: 1.0;" width="6" x="173" y="421.8594"/><text fill="#000000" font-family="sans-serif" font-size="11" lengthAdjust="spacingAndGlyphs" textLength="68" x="185" y="429.2783">modelo: String</text><rect fill="none" height="6" style="stroke: #C82930; stroke-width: 1.0;" width="6" x="173" y="435.6953"/><text fill="#000000" font-family="sans-serif" font-size="11" lengthAdjust="spacingAndGlyphs" textLength="37" x="185" y="443.1143">anio: int</text><rect fill="none" height="6" style="stroke: #C82930; stroke-width: 1.0;" width="6" x="173" y="449.5313"/><text fill="#000000" font-family="sans-serif" font-size="11" lengthAdjust="spacingAndGlyphs" textLength="94" x="185" y="456.9502">observacion: String</text><rect fill="none" height="6" style="stroke: #C82930; stroke-width: 1.0;" width="6" x="173" y="463.3672"/><text fill="#000000" font-family="sans-serif" font-size="11" lengthAdjust="spacingAndGlyphs" textLength="66" x="185" y="470.7861">marca: Marca</text><line style="stroke: #A80036; stroke-width: 1.5;" x1="166" x2="284" y1="477.2031" y2="477.2031"/><!--MD5=[2c7daca40e04ed325659866a6c2cdad8]
class Porteria--><rect fill="#FEFECE" filter="url(#f5qhqqzwg5xbk)" height="117.1797" id="Porteria" style="stroke: #A80036; stroke-width: 1.5;" width="78" x="38" y="357"/><ellipse cx="54.35" cy="373" fill="#EB937F" rx="11" ry="11" style="stroke: #A80036; stroke-width: 1.0;"/><path d="M52.85,374 L52.85,376 L56.85,376 L56.85,375 L56.85,374.5156 L57.475,374 L57.85,374 L58.225,374 L58.85,374.5156 L58.85,375 L58.85,378 L50.85,378 L50.3656,378 L49.85,377.375 L49.85,377 L49.85,376.625 L50.3656,376 L50.85,376 L50.85,376 L50.85,370 L50.85,370 L50.3656,370 L49.85,369.375 L49.85,369 L49.85,368.625 L50.3656,368 L50.85,368 L58.85,368 L58.85,371 L58.85,371.4844 L58.225,372 L57.85,372 L57.475,372 L56.85,371.4844 L56.85,371 L56.85,370 L52.85,370 L52.85,372 L53.85,372 L53.85,371.5156 L53.85,371.5156 L54.475,371 L54.85,371 L55.225,371 L55.85,371.5156 L55.85,372 L55.85,374 L55.85,374.4844 L55.225,375 L55.225,375 L54.85,375 L54.475,375 L53.85,374.4844 L53.85,374.4844 L53.85,374 L52.85,374 Z "/><text fill="#000000" font-family="sans-serif" font-size="12" lengthAdjust="spacingAndGlyphs" textLength="43" x="68.65" y="377.9102">Porteria</text><line style="stroke: #A80036; stroke-width: 1.5;" x1="39" x2="115" y1="389" y2="389"/><text fill="#000000" font-family="sans-serif" font-size="11" lengthAdjust="spacingAndGlyphs" textLength="21" x="44" y="404.4189">SUR</text><text fill="#000000" font-family="sans-serif" font-size="11" lengthAdjust="spacingAndGlyphs" textLength="47" x="44" y="418.2549">CENTRAL</text><text fill="#000000" font-family="sans-serif" font-size="11" lengthAdjust="spacingAndGlyphs" textLength="52" x="44" y="432.0908">MANCILLA</text><text fill="#000000" font-family="sans-serif" font-size="11" lengthAdjust="spacingAndGlyphs" textLength="45" x="44" y="445.9268">SANGRA</text><text fill="#000000" font-family="sans-serif" font-size="11" lengthAdjust="spacingAndGlyphs" textLength="66" x="44" y="459.7627">HUANCHACA</text><line style="stroke: #A80036; stroke-width: 1.5;" x1="39" x2="115" y1="466.1797" y2="466.1797"/><!--MD5=[9f35603b252cdd4401c7cdb0cea7e6cf]
class Registro--><rect fill="#FEFECE" filter="url(#f5qhqqzwg5xbk)" height="111.5313" id="Registro" style="stroke: #A80036; stroke-width: 1.5;" width="114" x="82" y="108"/><ellipse cx="112.75" cy="128.0938" fill="#ADD1B2" rx="11" ry="11" style="stroke: #A80036; stroke-width: 1.0;"/><path d="M114.75,124.5938 Q114.9531,124.0938 115.1875,123.8438 Q115.4219,123.5938 115.6875,123.5938 Q116.1563,123.5938 116.4531,123.875 Q116.75,124.1563 116.75,124.8125 L116.75,126.375 Q116.75,127.0313 116.4688,127.3125 Q116.1875,127.5938 115.75,127.5938 Q115.3594,127.5938 115.1094,127.4219 Q114.8594,127.25 114.75,126.7969 Q114.7031,126.4844 114.5313,126.3125 Q114.2188,125.9844 113.6563,125.7969 Q113.0938,125.5938 112.5313,125.5938 Q111.8281,125.5938 111.2344,125.875 Q110.6563,126.1563 110.2031,126.7813 Q109.75,127.4063 109.75,128.2656 L109.75,129.1875 Q109.75,130.2188 110.5938,130.9063 Q111.4375,131.5938 112.9375,131.5938 Q113.8281,131.5938 114.4531,131.3906 Q114.8125,131.2813 115.2188,130.9219 Q115.4844,130.7188 115.625,130.6563 Q115.7656,130.5938 115.9375,130.5938 Q116.2656,130.5938 116.5,130.8594 Q116.75,131.1094 116.75,131.4688 Q116.75,131.8125 116.4063,132.2188 Q115.9063,132.8125 115.1094,133.1406 Q114.0625,133.5938 112.7813,133.5938 Q111.2813,133.5938 110.0781,133 Q109.1094,132.5313 108.4219,131.5156 Q107.75,130.5 107.75,129.2969 L107.75,128.2031 Q107.75,126.9531 108.3438,125.8594 Q108.9531,124.7656 110,124.1875 Q111.0625,123.5938 112.25,123.5938 Q112.9688,123.5938 113.5938,123.8438 Q114.2188,124.0938 114.75,124.5938 Z "/><text fill="#000000" font-family="sans-serif" font-size="12" font-style="italic" lengthAdjust="spacingAndGlyphs" textLength="44" x="131.75" y="125.457">«Entity»</text><text fill="#000000" font-family="sans-serif" font-size="12" lengthAdjust="spacingAndGlyphs" textLength="47" x="130.25" y="140.5508">Registro</text><line style="stroke: #A80036; stroke-width: 1.5;" x1="83" x2="195" y1="148.1875" y2="148.1875"/><rect fill="none" height="6" style="stroke: #C82930; stroke-width: 1.0;" width="6" x="90" y="156.1875"/><text fill="#000000" font-family="sans-serif" font-size="11" lengthAdjust="spacingAndGlyphs" textLength="31" x="102" y="163.6064">uid: int</text><rect fill="none" height="6" style="stroke: #C82930; stroke-width: 1.0;" width="6" x="90" y="170.0234"/><text fill="#000000" font-family="sans-serif" font-size="11" lengthAdjust="spacingAndGlyphs" textLength="62" x="102" y="177.4424">fecha: String</text><rect fill="none" height="6" style="stroke: #C82930; stroke-width: 1.0;" width="6" x="90" y="183.8594"/><text fill="#000000" font-family="sans-serif" font-size="11" lengthAdjust="spacingAndGlyphs" textLength="88" x="102" y="191.2783">vehiculo: Vehiculo</text><rect fill="none" height="6" style="stroke: #C82930; stroke-width: 1.0;" width="6" x="90" y="197.6953"/><text fill="#000000" font-family="sans-serif" font-size="11" lengthAdjust="spacingAndGlyphs" textLength="80" x="102" y="205.1143">porteria: Porteria</text><line style="stroke: #A80036; stroke-width: 1.5;" x1="83" x2="195" y1="211.5313" y2="211.5313"/><!--MD5=[93eda055a1fdb4dab9fc4d9c53718769]
link Persona to Sexo--><path d="M330.4666,279.5914 C330.4666,279.5914 334.31,292.39 336,298 C342.56,319.84 349.82,343.98 356.01,364.59 " fill="none" id="Persona-Sexo" style="stroke: #A80036; stroke-width: 1.0;"/><polygon fill="#A80036" points="359.81,377.25,361.0511,367.4796,358.3712,372.4615,353.3894,369.7817,359.81,377.25" style="stroke: #A80036; stroke-width: 1.0;"/><line style="stroke: #A80036; stroke-width: 1.0;" x1="358.3712" x2="356.07" y1="372.4615" y2="364.8"/><polygon fill="#A80036" points="327.01,268.1,324.9079,274.9979,330.4666,279.5914,332.5688,272.6935,327.01,268.1" style="stroke: #A80036; stroke-width: 1.0;"/><text fill="#000000" font-family="sans-serif" font-size="13" lengthAdjust="spacingAndGlyphs" textLength="14" x="341" y="312.4951">es</text><polygon fill="#000000" points="343.5,321.3516,346.5,327.3516,349.5,321.3516,343.5,321.3516" style="stroke: #000000; stroke-width: 1.0;"/><text fill="#000000" font-family="sans-serif" font-size="13" lengthAdjust="spacingAndGlyphs" textLength="7" x="350.1933" y="366.5674">1</text><!--MD5=[28a8ff83bf1873a2a9c941a981da284c]
link Vehiculo to Marca--><path d="M225,497.12 C225,497.12 225,533.11 225,549.46 " fill="none" id="Vehiculo-Marca" style="stroke: #A80036; stroke-width: 1.0;"/><polygon fill="#A80036" points="225,562.81,229,553.81,225,557.81,221,553.81,225,562.81" style="stroke: #A80036; stroke-width: 1.0;"/><line style="stroke: #A80036; stroke-width: 1.0;" x1="225" x2="225" y1="557.81" y2="549.81"/><polygon fill="#A80036" points="225,485.12,221,491.12,225,497.12,229,491.12,225,485.12" style="stroke: #A80036; stroke-width: 1.0;"/><text fill="#000000" font-family="sans-serif" font-size="13" lengthAdjust="spacingAndGlyphs" textLength="14" x="226" y="529.4951">es</text><polygon fill="#000000" points="228.5,538.3516,231.5,544.3516,234.5,538.3516,228.5,538.3516" style="stroke: #000000; stroke-width: 1.0;"/><text fill="#000000" font-family="sans-serif" font-size="13" lengthAdjust="spacingAndGlyphs" textLength="7" x="217.5297" y="552.2848">1</text><!--MD5=[61b1cc7e641473c853329f5c9b5df142]
link Persona to Vehiculo--><path d="M266.61,268.28 C259.66,292.69 252.4,318.22 245.92,341 " fill="none" id="Persona-&gt;Vehiculo" style="stroke: #A80036; stroke-width: 1.0;"/><polygon fill="#A80036" points="244.54,345.82,250.8527,338.2602,245.9098,341.0113,243.1587,336.0685,244.54,345.82" style="stroke: #A80036; stroke-width: 1.0;"/><polygon fill="#000000" points="281,309,284,303,287,309,281,309" style="stroke: #000000; stroke-width: 1.0;"/><text fill="#000000" font-family="sans-serif" font-size="13" lengthAdjust="spacingAndGlyphs" textLength="57" x="257" y="325.4951">pertenece</text><text fill="#000000" font-family="sans-serif" font-size="13" lengthAdjust="spacingAndGlyphs" textLength="7" x="239.1941" y="335.312">1</text><!--MD5=[73f3fe83ac77ea1d45a0c1be7c1e48ae]
link Registro to Porteria--><path d="M97.0262,230.7652 C97.0262,230.7652 75.54,275.29 70,298 C66.45,312.54 65.54,328.39 66.03,343.58 " fill="none" id="Registro-Porteria" style="stroke: #A80036; stroke-width: 1.0;"/><polygon fill="#A80036" points="66.79,356.71,70.2594,347.4924,66.499,351.7185,62.2729,347.9581,66.79,356.71" style="stroke: #A80036; stroke-width: 1.0;"/><line style="stroke: #A80036; stroke-width: 1.0;" x1="66.499" x2="66.035" y1="351.7185" y2="343.735"/><polygon fill="#A80036" points="102.79,220.24,96.3997,223.5813,97.0262,230.7652,103.4165,227.4238,102.79,220.24" style="stroke: #A80036; stroke-width: 1.0;"/><text fill="#000000" font-family="sans-serif" font-size="13" lengthAdjust="spacingAndGlyphs" textLength="42" x="71" y="312.4951">ingresa</text><polygon fill="#000000" points="87.5,321.3516,90.5,327.3516,93.5,321.3516,87.5,321.3516" style="stroke: #000000; stroke-width: 1.0;"/><text fill="#000000" font-family="sans-serif" font-size="13" lengthAdjust="spacingAndGlyphs" textLength="7" x="58.1191" y="346.0756">1</text><!--MD5=[b0f78b729b557d454a4a683c9910219b]
link Registro to Vehiculo--><path d="M161.2624,231.6649 C161.2624,231.6649 180.58,288.81 190,316 C191.99,321.75 194.07,327.69 196.16,333.66 " fill="none" id="Registro-Vehiculo" style="stroke: #A80036; stroke-width: 1.0;"/><polygon fill="#A80036" points="200.48,345.93,201.2548,336.1117,198.815,341.2154,193.7113,338.7756,200.48,345.93" style="stroke: #A80036; stroke-width: 1.0;"/><line style="stroke: #A80036; stroke-width: 1.0;" x1="198.815" x2="196.16" y1="341.2154" y2="333.665"/><polygon fill="#A80036" points="157.44,220.29,155.5596,227.2516,161.2624,231.6649,163.1428,224.7033,157.44,220.29" style="stroke: #A80036; stroke-width: 1.0;"/><text fill="#000000" font-family="sans-serif" font-size="13" lengthAdjust="spacingAndGlyphs" textLength="41" x="191" y="312.4951">incluye</text><polygon fill="#000000" points="207,321.3516,210,327.3516,213,321.3516,207,321.3516" style="stroke: #000000; stroke-width: 1.0;"/><text fill="#000000" font-family="sans-serif" font-size="13" lengthAdjust="spacingAndGlyphs" textLength="7" x="190.4153" y="334.949">1</text><!--MD5=[450b7221db19606f9a5fa1268ee44447]
@startuml

package Model #ccffcc {

    class Persona <<Entity>> {
        - uid: int
        - codigo: Integer
        - rut: String
        - nombre: String
        - email: String
        - cargo: String
        - unidad: String
        - direccion: String
        - movil: String
        - fijo: String
        - sexo: Sexo
    }

    enum Sexo {
        MASCULINO
        FEMENINO
    }
    Persona *- -> "1" Sexo: es >

    enum Marca {
        AJS
        Acura
        Audi
        ...
    }

    class Vehiculo <<Entity>> {
        - uid: int
        - placa: String
        - modelo: String
        - anio: int
        - observacion: String
        - marca: Marca
    }
    Vehiculo *- -> "1" Marca: es >
    Persona - -> "1" Vehiculo: pertenece <

    enum Porteria {
        SUR
        CENTRAL
        MANCILLA
        SANGRA
        HUANCHACA
    }

    class Registro <<Entity>> {
        - uid: int
        - fecha: String
        - vehiculo: Vehiculo
        - porteria: Porteria
    }
    Registro *- -> "1" Porteria: ingresa >
    Registro *- -> "1" Vehiculo: incluye >

}

@enduml

PlantUML version 1.2020.09(Sun May 10 06:51:06 CLT 2020)
(GPL source distribution)
Java Runtime: OpenJDK Runtime Environment
JVM: OpenJDK 64-Bit Server VM
Java Version: 11.0.7+10-b944.20
Operating System: Windows 10
Default Encoding: Cp1252
Language: en
Country: US
--></g></svg>