<?xml version="1.0" encoding="UTF-8" standalone="no"?><svg xmlns="http://www.w3.org/2000/svg" xmlns:xlink="http://www.w3.org/1999/xlink" contentScriptType="application/ecmascript" contentStyleType="text/css" height="710.4px" preserveAspectRatio="none" style="width:613px;height:710px;" version="1.1" viewBox="0 0 613 710" width="613.2px" zoomAndPan="magnify"><defs><filter height="300%" id="f1p455nqz18nl8" width="300%" x="-1" y="-1"><feGaussianBlur result="blurOut" stdDeviation="1.2"/><feColorMatrix in="blurOut" result="blurOut2" type="matrix" values="0 0 0 0 0 0 0 0 0 0 0 0 0 0 0 0 0 0 .4 0"/><feOffset dx="2.4" dy="2.4" in="blurOut2" result="blurOut3"/><feBlend in="SourceGraphic" in2="blurOut3" mode="normal"/></filter></defs><g><!--MD5=[4ffc462f7ab70bce5b61dcc3cbbdb396]
cluster Parking--><polygon fill="#FFFFFF" filter="url(#f1p455nqz18nl8)" points="13.2,14.7,48.6,14.7,52.8,28.8656,600,28.8656,600,703.2,13.2,703.2,13.2,14.7" style="stroke: #000000; stroke-width: 0.8999999999999999;"/><line style="stroke: #000000; stroke-width: 0.8999999999999999;" x1="13.2" x2="52.8" y1="28.8656" y2="28.8656"/><text fill="#000000" font-family="sans-serif" font-size="8.4" font-weight="bold" lengthAdjust="spacingAndGlyphs" textLength="31.8" x="15.6" y="24.6199">Parking</text><!--MD5=[cbbdb6576adee06cf5b8b0d59aa5b98b]
cluster Dao--><polygon fill="#FFFFFF" filter="url(#f1p455nqz18nl8)" points="387.6,593.4,407.4,593.4,411.6,607.5656,585.6,607.5656,585.6,678.6,387.6,678.6,387.6,593.4" style="stroke: #000000; stroke-width: 0.8999999999999999;"/><line style="stroke: #000000; stroke-width: 0.8999999999999999;" x1="387.6" x2="411.6" y1="607.5656" y2="607.5656"/><text fill="#000000" font-family="sans-serif" font-size="8.4" font-weight="bold" lengthAdjust="spacingAndGlyphs" textLength="16.2" x="390" y="603.3199">Dao</text><!--MD5=[b70bc78a2bdcba56cf07cfc345e604e5]
cluster ZeroIce--><polygon fill="#FFFFFF" filter="url(#f1p455nqz18nl8)" points="27.6,101.7,63,101.7,67.2,115.8656,373.2,115.8656,373.2,688.8,27.6,688.8,27.6,101.7" style="stroke: #000000; stroke-width: 0.8999999999999999;"/><line style="stroke: #000000; stroke-width: 0.8999999999999999;" x1="27.6" x2="67.2" y1="115.8656" y2="115.8656"/><text fill="#000000" font-family="sans-serif" font-size="8.4" font-weight="bold" lengthAdjust="spacingAndGlyphs" textLength="31.8" x="30" y="111.6199">ZeroIce</text><!--MD5=[15636c1ca4a123c16a2a1a8e90aca7a9]
cluster Model--><polygon fill="#FFFFFF" filter="url(#f1p455nqz18nl8)" points="168.6,408.6,198.6,408.6,202.8,422.7656,250.2,422.7656,250.2,674.4,168.6,674.4,168.6,408.6" style="stroke: #000000; stroke-width: 0.8999999999999999;"/><line style="stroke: #000000; stroke-width: 0.8999999999999999;" x1="168.6" x2="202.8" y1="422.7656" y2="422.7656"/><text fill="#000000" font-family="sans-serif" font-size="8.4" font-weight="bold" lengthAdjust="spacingAndGlyphs" textLength="26.4" x="171" y="418.5199">Model</text><!--MD5=[cdfd548b3455e70392372b1f27091970]
cluster Services--><polygon fill="#FFFFFF" filter="url(#f1p455nqz18nl8)" points="42,128.1,82.8,128.1,87,142.2656,175.2,142.2656,175.2,378.6,42,378.6,42,128.1" style="stroke: #000000; stroke-width: 0.8999999999999999;"/><line style="stroke: #000000; stroke-width: 0.8999999999999999;" x1="42" x2="87" y1="142.2656" y2="142.2656"/><text fill="#000000" font-family="sans-serif" font-size="8.4" font-weight="bold" lengthAdjust="spacingAndGlyphs" textLength="37.2" x="44.4" y="138.0199">Services</text><!--MD5=[84718776d214be480e4c259efcb737fc]
class Main--><rect fill="#FEFECE" filter="url(#f1p455nqz18nl8)" height="37.1016" id="Main" style="stroke: #A80036; stroke-width: 0.8999999999999999;" width="147" x="97.5" y="36.3"/><ellipse cx="160.65" cy="45.9" fill="#ADD1B2" rx="6.6" ry="6.6" style="stroke: #A80036; stroke-width: 0.6;"/><path d="M161.85,43.8 Q161.9719,43.5 162.1125,43.35 Q162.2531,43.2 162.4125,43.2 Q162.6938,43.2 162.8719,43.3688 Q163.05,43.5375 163.05,43.9313 L163.05,44.8688 Q163.05,45.2625 162.8813,45.4313 Q162.7125,45.6 162.45,45.6 Q162.2156,45.6 162.0656,45.4969 Q161.9156,45.3938 161.85,45.1219 Q161.8219,44.9344 161.7188,44.8313 Q161.5313,44.6344 161.1938,44.5219 Q160.8563,44.4 160.5187,44.4 Q160.0969,44.4 159.7406,44.5688 Q159.3937,44.7375 159.1219,45.1125 Q158.85,45.4875 158.85,46.0031 L158.85,46.5563 Q158.85,47.175 159.3563,47.5875 Q159.8625,48 160.7625,48 Q161.2969,48 161.6719,47.8781 Q161.8875,47.8125 162.1313,47.5969 Q162.2906,47.475 162.375,47.4375 Q162.4594,47.4 162.5625,47.4 Q162.7594,47.4 162.9,47.5594 Q163.05,47.7094 163.05,47.925 Q163.05,48.1313 162.8438,48.375 Q162.5438,48.7312 162.0656,48.9281 Q161.4375,49.2 160.6688,49.2 Q159.7687,49.2 159.0469,48.8438 Q158.4656,48.5625 158.0531,47.9531 Q157.65,47.3438 157.65,46.6219 L157.65,45.9656 Q157.65,45.2156 158.0063,44.5594 Q158.3719,43.9031 159,43.5563 Q159.6375,43.2 160.35,43.2 Q160.7813,43.2 161.1563,43.35 Q161.5313,43.5 161.85,43.8 Z "/><text fill="#000000" font-family="sans-serif" font-size="7.2" lengthAdjust="spacingAndGlyphs" textLength="15.6" x="172.95" y="48.8461">Main</text><line style="stroke: #A80036; stroke-width: 0.8999999999999999;" x1="98.1" x2="243.9" y1="55.5" y2="55.5"/><line style="stroke: #A80036; stroke-width: 0.8999999999999999;" x1="98.1" x2="243.9" y1="60.3" y2="60.3"/><rect fill="#F24D5C" height="3.6" style="stroke: #C82930; stroke-width: 0.6;" width="3.6" x="102.3" y="65.1"/><text fill="#000000" font-family="sans-serif" font-size="6.6" lengthAdjust="spacingAndGlyphs" textLength="131.4" x="109.5" y="69.5514">CreateHostBuilder(args: string[]): IHostBuilder</text><!--MD5=[55c64286b6ae6793bc468a66b463b5a5]
class ParkingContext--><rect fill="#FEFECE" filter="url(#f1p455nqz18nl8)" height="53.7047" id="ParkingContext" style="stroke: #A80036; stroke-width: 0.8999999999999999;" width="178.2" x="397.5" y="615"/><ellipse cx="459.15" cy="624.6" fill="#ADD1B2" rx="6.6" ry="6.6" style="stroke: #A80036; stroke-width: 0.6;"/><path d="M460.35,622.5 Q460.4719,622.2 460.6125,622.05 Q460.7531,621.9 460.9125,621.9 Q461.1937,621.9 461.3719,622.0688 Q461.55,622.2375 461.55,622.6313 L461.55,623.5688 Q461.55,623.9625 461.3812,624.1313 Q461.2125,624.3 460.95,624.3 Q460.7156,624.3 460.5656,624.1969 Q460.4156,624.0938 460.35,623.8219 Q460.3219,623.6344 460.2188,623.5313 Q460.0313,623.3344 459.6937,623.2219 Q459.3563,623.1 459.0188,623.1 Q458.5969,623.1 458.2406,623.2688 Q457.8938,623.4375 457.6219,623.8125 Q457.35,624.1875 457.35,624.7031 L457.35,625.2563 Q457.35,625.875 457.8563,626.2875 Q458.3625,626.7 459.2625,626.7 Q459.7969,626.7 460.1719,626.5781 Q460.3875,626.5125 460.6312,626.2969 Q460.7906,626.175 460.875,626.1375 Q460.9594,626.1 461.0625,626.1 Q461.2594,626.1 461.4,626.2594 Q461.55,626.4094 461.55,626.625 Q461.55,626.8313 461.3438,627.075 Q461.0438,627.4313 460.5656,627.6281 Q459.9375,627.9 459.1688,627.9 Q458.2688,627.9 457.5469,627.5437 Q456.9656,627.2625 456.5531,626.6531 Q456.15,626.0437 456.15,625.3219 L456.15,624.6656 Q456.15,623.9156 456.5062,623.2594 Q456.8719,622.6031 457.5,622.2563 Q458.1375,621.9 458.85,621.9 Q459.2813,621.9 459.6563,622.05 Q460.0313,622.2 460.35,622.5 Z "/><text fill="#000000" font-family="sans-serif" font-size="7.2" lengthAdjust="spacingAndGlyphs" textLength="49.8" x="471.45" y="627.5461">ParkingContext</text><line style="stroke: #A80036; stroke-width: 0.8999999999999999;" x1="398.1" x2="575.1" y1="634.2" y2="634.2"/><rect fill="none" height="3.6" style="stroke: #C82930; stroke-width: 0.6;" width="3.6" x="402.3" y="639"/><text fill="#000000" font-family="sans-serif" font-size="6.6" lengthAdjust="spacingAndGlyphs" textLength="83.4" x="409.5" y="643.4514">Personas: DbSet&lt;Personas&gt;</text><line style="stroke: #A80036; stroke-width: 0.8999999999999999;" x1="398.1" x2="575.1" y1="647.3016" y2="647.3016"/><polygon fill="#FFFF44" points="404.1,650.9016,406.5,653.3016,404.1,655.7016,401.7,653.3016" style="stroke: #B38D22; stroke-width: 0.6;"/><text fill="#000000" font-family="sans-serif" font-size="6.6" lengthAdjust="spacingAndGlyphs" textLength="162.6" x="409.5" y="656.5529">OnConfiguring(optionsBuilder: DbContextOptionsBuilder)</text><polygon fill="#FFFF44" points="404.1,659.2031,406.5,661.6031,404.1,664.0031,401.7,661.6031" style="stroke: #B38D22; stroke-width: 0.6;"/><text fill="#000000" font-family="sans-serif" font-size="6.6" lengthAdjust="spacingAndGlyphs" textLength="130.8" x="409.5" y="664.8545">OnModelCreating(modelBuilder: ModelBuilder)</text><!--MD5=[49499f469aef620978a017e4498b3263]
class ParkingService--><rect fill="#FEFECE" filter="url(#f1p455nqz18nl8)" height="95.2125" id="ParkingService" style="stroke: #A80036; stroke-width: 0.8999999999999999;" width="178.2" x="185.1" y="124.8"/><ellipse cx="247.05" cy="134.4" fill="#ADD1B2" rx="6.6" ry="6.6" style="stroke: #A80036; stroke-width: 0.6;"/><path d="M248.25,132.3 Q248.3719,132 248.5125,131.85 Q248.6531,131.7 248.8125,131.7 Q249.0938,131.7 249.2719,131.8688 Q249.45,132.0375 249.45,132.4313 L249.45,133.3688 Q249.45,133.7625 249.2813,133.9313 Q249.1125,134.1 248.85,134.1 Q248.6156,134.1 248.4656,133.9969 Q248.3156,133.8937 248.25,133.6219 Q248.2219,133.4344 248.1187,133.3312 Q247.9312,133.1344 247.5938,133.0219 Q247.2563,132.9 246.9188,132.9 Q246.4969,132.9 246.1406,133.0688 Q245.7938,133.2375 245.5219,133.6125 Q245.25,133.9875 245.25,134.5031 L245.25,135.0563 Q245.25,135.675 245.7563,136.0875 Q246.2625,136.5 247.1625,136.5 Q247.6969,136.5 248.0719,136.3781 Q248.2875,136.3125 248.5313,136.0969 Q248.6906,135.975 248.775,135.9375 Q248.8594,135.9 248.9625,135.9 Q249.1594,135.9 249.3,136.0594 Q249.45,136.2094 249.45,136.425 Q249.45,136.6313 249.2437,136.875 Q248.9438,137.2313 248.4656,137.4281 Q247.8375,137.7 247.0688,137.7 Q246.1688,137.7 245.4469,137.3438 Q244.8656,137.0625 244.4531,136.4531 Q244.05,135.8438 244.05,135.1219 L244.05,134.4656 Q244.05,133.7156 244.4063,133.0594 Q244.7719,132.4031 245.4,132.0563 Q246.0375,131.7 246.75,131.7 Q247.1812,131.7 247.5562,131.85 Q247.9312,132 248.25,132.3 Z "/><text fill="#000000" font-family="sans-serif" font-size="7.2" lengthAdjust="spacingAndGlyphs" textLength="49.2" x="259.35" y="137.3461">ParkingService</text><line style="stroke: #A80036; stroke-width: 0.8999999999999999;" x1="185.7" x2="362.7" y1="144" y2="144"/><rect fill="none" height="3.6" style="stroke: #C82930; stroke-width: 0.6;" width="3.6" x="189.9" y="148.8"/><text fill="#000000" font-family="sans-serif" font-size="6.6" lengthAdjust="spacingAndGlyphs" textLength="21.6" x="197.1" y="153.2514">Port: int</text><rect fill="none" height="3.6" style="stroke: #C82930; stroke-width: 0.6;" width="3.6" x="189.9" y="157.1016"/><text fill="#000000" font-family="sans-serif" font-size="6.6" lengthAdjust="spacingAndGlyphs" textLength="88.2" x="197.1" y="161.5529">_communicator: Communicator</text><rect fill="none" height="3.6" style="stroke: #C82930; stroke-width: 0.6;" width="3.6" x="189.9" y="165.4031"/><text fill="#000000" font-family="sans-serif" font-size="6.6" lengthAdjust="spacingAndGlyphs" textLength="97.2" x="197.1" y="169.8545">_logger: ILogger&lt;ParkingService&gt;</text><rect fill="none" height="3.6" style="stroke: #C82930; stroke-width: 0.6;" width="3.6" x="189.9" y="173.7047"/><text fill="#000000" font-family="sans-serif" font-size="6.6" lengthAdjust="spacingAndGlyphs" textLength="78.6" x="197.1" y="178.1561">_theRepo: RepositoryDisp_</text><line style="stroke: #A80036; stroke-width: 0.8999999999999999;" x1="185.7" x2="362.7" y1="182.0063" y2="182.0063"/><ellipse cx="191.7" cy="188.6063" fill="#84BE84" rx="1.8" ry="1.8" style="stroke: #038048; stroke-width: 0.6;"/><text fill="#000000" font-family="sans-serif" font-size="6.6" lengthAdjust="spacingAndGlyphs" textLength="162.6" x="197.1" y="191.2576">StartAsync(cancellationToken: CancellationToken): Task</text><ellipse cx="191.7" cy="196.9078" fill="#84BE84" rx="1.8" ry="1.8" style="stroke: #038048; stroke-width: 0.6;"/><text fill="#000000" font-family="sans-serif" font-size="6.6" lengthAdjust="spacingAndGlyphs" textLength="162" x="197.1" y="199.5592">StopAsync(cancellationToken: CancellationToken): Task</text><ellipse cx="191.7" cy="205.2094" fill="#84BE84" rx="1.8" ry="1.8" style="stroke: #038048; stroke-width: 0.6;"/><text fill="#000000" font-family="sans-serif" font-size="6.6" lengthAdjust="spacingAndGlyphs" textLength="28.2" x="197.1" y="207.8607">Dispose()</text><rect fill="#F24D5C" height="3.6" style="stroke: #C82930; stroke-width: 0.6;" width="3.6" x="189.9" y="211.7109"/><text fill="#000000" font-family="sans-serif" font-size="6.6" lengthAdjust="spacingAndGlyphs" textLength="103.8" x="197.1" y="216.1623">BuildCommunicator(): Communicator</text><!--MD5=[8f63dadf5c643e74a34e53c8f0a15d23]
class Persona--><rect fill="#FEFECE" filter="url(#f1p455nqz18nl8)" height="125.0297" id="Persona" style="stroke: #A80036; stroke-width: 0.8999999999999999;" width="62.4" x="178.2" y="430.2"/><ellipse cx="193.95" cy="442.2562" fill="#ADD1B2" rx="6.6" ry="6.6" style="stroke: #A80036; stroke-width: 0.6;"/><path d="M195.15,440.1563 Q195.2719,439.8563 195.4125,439.7063 Q195.5531,439.5563 195.7125,439.5563 Q195.9938,439.5563 196.1719,439.725 Q196.35,439.8938 196.35,440.2875 L196.35,441.225 Q196.35,441.6188 196.1813,441.7875 Q196.0125,441.9563 195.75,441.9563 Q195.5156,441.9563 195.3656,441.8531 Q195.2156,441.75 195.15,441.4781 Q195.1219,441.2906 195.0187,441.1875 Q194.8312,440.9906 194.4938,440.8781 Q194.1563,440.7562 193.8188,440.7562 Q193.3969,440.7562 193.0406,440.925 Q192.6938,441.0938 192.4219,441.4688 Q192.15,441.8438 192.15,442.3594 L192.15,442.9125 Q192.15,443.5313 192.6563,443.9437 Q193.1625,444.3563 194.0625,444.3563 Q194.5969,444.3563 194.9719,444.2344 Q195.1875,444.1688 195.4313,443.9531 Q195.5906,443.8313 195.675,443.7938 Q195.7594,443.7562 195.8625,443.7562 Q196.0594,443.7562 196.2,443.9156 Q196.35,444.0656 196.35,444.2813 Q196.35,444.4875 196.1437,444.7313 Q195.8438,445.0875 195.3656,445.2844 Q194.7375,445.5563 193.9688,445.5563 Q193.0688,445.5563 192.3469,445.2 Q191.7656,444.9188 191.3531,444.3094 Q190.95,443.7 190.95,442.9781 L190.95,442.3219 Q190.95,441.5719 191.3063,440.9156 Q191.6719,440.2594 192.3,439.9125 Q192.9375,439.5563 193.65,439.5563 Q194.0812,439.5563 194.4562,439.7063 Q194.8312,439.8563 195.15,440.1563 Z "/><text fill="#000000" font-family="sans-serif" font-size="7.2" font-style="italic" lengthAdjust="spacingAndGlyphs" textLength="26.4" x="204.75" y="440.6742">«Entity»</text><text fill="#000000" font-family="sans-serif" font-size="7.2" lengthAdjust="spacingAndGlyphs" textLength="28.2" x="203.85" y="449.7305">Persona</text><line style="stroke: #A80036; stroke-width: 0.8999999999999999;" x1="178.8" x2="240" y1="454.3125" y2="454.3125"/><rect fill="none" height="3.6" style="stroke: #C82930; stroke-width: 0.6;" width="3.6" x="183" y="459.1125"/><text fill="#000000" font-family="sans-serif" font-size="6.6" lengthAdjust="spacingAndGlyphs" textLength="26.4" x="190.2" y="463.5639">uid: Long</text><rect fill="none" height="3.6" style="stroke: #C82930; stroke-width: 0.6;" width="3.6" x="183" y="467.4141"/><text fill="#000000" font-family="sans-serif" font-size="6.6" lengthAdjust="spacingAndGlyphs" textLength="42.6" x="190.2" y="471.8654">codigo: Integer</text><rect fill="none" height="3.6" style="stroke: #C82930; stroke-width: 0.6;" width="3.6" x="183" y="475.7156"/><text fill="#000000" font-family="sans-serif" font-size="6.6" lengthAdjust="spacingAndGlyphs" textLength="28.2" x="190.2" y="480.167">rut: String</text><rect fill="none" height="3.6" style="stroke: #C82930; stroke-width: 0.6;" width="3.6" x="183" y="484.0172"/><text fill="#000000" font-family="sans-serif" font-size="6.6" lengthAdjust="spacingAndGlyphs" textLength="42" x="190.2" y="488.4686">nombre: String</text><rect fill="none" height="3.6" style="stroke: #C82930; stroke-width: 0.6;" width="3.6" x="183" y="492.3187"/><text fill="#000000" font-family="sans-serif" font-size="6.6" lengthAdjust="spacingAndGlyphs" textLength="34.8" x="190.2" y="496.7701">email: String</text><rect fill="none" height="3.6" style="stroke: #C82930; stroke-width: 0.6;" width="3.6" x="183" y="500.6203"/><text fill="#000000" font-family="sans-serif" font-size="6.6" lengthAdjust="spacingAndGlyphs" textLength="37.2" x="190.2" y="505.0717">cargo: String</text><rect fill="none" height="3.6" style="stroke: #C82930; stroke-width: 0.6;" width="3.6" x="183" y="508.9219"/><text fill="#000000" font-family="sans-serif" font-size="6.6" lengthAdjust="spacingAndGlyphs" textLength="39.6" x="190.2" y="513.3732">unidad: String</text><rect fill="none" height="3.6" style="stroke: #C82930; stroke-width: 0.6;" width="3.6" x="183" y="517.2234"/><text fill="#000000" font-family="sans-serif" font-size="6.6" lengthAdjust="spacingAndGlyphs" textLength="46.8" x="190.2" y="521.6748">direccion: String</text><rect fill="none" height="3.6" style="stroke: #C82930; stroke-width: 0.6;" width="3.6" x="183" y="525.525"/><text fill="#000000" font-family="sans-serif" font-size="6.6" lengthAdjust="spacingAndGlyphs" textLength="33" x="190.2" y="529.9764">sexo: Sexo</text><rect fill="none" height="3.6" style="stroke: #C82930; stroke-width: 0.6;" width="3.6" x="183" y="533.8266"/><text fill="#000000" font-family="sans-serif" font-size="6.6" lengthAdjust="spacingAndGlyphs" textLength="34.8" x="190.2" y="538.2779">movil: String</text><rect fill="none" height="3.6" style="stroke: #C82930; stroke-width: 0.6;" width="3.6" x="183" y="542.1281"/><text fill="#000000" font-family="sans-serif" font-size="6.6" lengthAdjust="spacingAndGlyphs" textLength="28.8" x="190.2" y="546.5795">fijo: String</text><line style="stroke: #A80036; stroke-width: 0.8999999999999999;" x1="178.8" x2="240" y1="550.4297" y2="550.4297"/><!--MD5=[2bd084d4f9b8ff009b6d8ba013c0f313]
class Sexo--><rect fill="#FEFECE" filter="url(#f1p455nqz18nl8)" height="45.4031" id="Sexo" style="stroke: #A80036; stroke-width: 0.8999999999999999;" width="45" x="186.9" y="619.2"/><ellipse cx="200.22" cy="628.8" fill="#EB937F" rx="6.6" ry="6.6" style="stroke: #A80036; stroke-width: 0.6;"/><path d="M199.32,629.4 L199.32,630.6 L201.72,630.6 L201.72,630 L201.72,629.7094 L202.095,629.4 L202.32,629.4 L202.545,629.4 L202.92,629.7094 L202.92,630 L202.92,631.8 L198.12,631.8 L197.8294,631.8 L197.52,631.425 L197.52,631.2 L197.52,630.975 L197.8294,630.6 L198.12,630.6 L198.12,630.6 L198.12,627 L198.12,627 L197.8294,627 L197.52,626.625 L197.52,626.4 L197.52,626.175 L197.8294,625.8 L198.12,625.8 L202.92,625.8 L202.92,627.6 L202.92,627.8906 L202.545,628.2 L202.32,628.2 L202.095,628.2 L201.72,627.8906 L201.72,627.6 L201.72,627 L199.32,627 L199.32,628.2 L199.92,628.2 L199.92,627.9094 L199.92,627.9094 L200.295,627.6 L200.52,627.6 L200.745,627.6 L201.12,627.9094 L201.12,628.2 L201.12,629.4 L201.12,629.6906 L200.745,630 L200.745,630 L200.52,630 L200.295,630 L199.92,629.6906 L199.92,629.6906 L199.92,629.4 L199.32,629.4 Z "/><text fill="#000000" font-family="sans-serif" font-size="7.2" lengthAdjust="spacingAndGlyphs" textLength="16.2" x="209.58" y="631.7461">Sexo</text><line style="stroke: #A80036; stroke-width: 0.8999999999999999;" x1="187.5" x2="231.3" y1="638.4" y2="638.4"/><text fill="#000000" font-family="sans-serif" font-size="6.6" lengthAdjust="spacingAndGlyphs" textLength="37.8" x="190.5" y="647.6514">MASCULINO,</text><text fill="#000000" font-family="sans-serif" font-size="6.6" lengthAdjust="spacingAndGlyphs" textLength="30" x="190.5" y="655.9529">FEMENINO</text><line style="stroke: #A80036; stroke-width: 0.8999999999999999;" x1="187.5" x2="231.3" y1="659.8031" y2="659.8031"/><!--MD5=[c05f8d4c5007184b0fb1ea93cdb8d9fe]
class Repository--><rect fill="#FEFECE" filter="url(#f1p455nqz18nl8)" height="42.0141" id="Repository" style="stroke: #A80036; stroke-width: 0.8999999999999999;" width="114" x="51.6" y="327"/><ellipse cx="88.35" cy="339.0563" fill="#B4A7E5" rx="6.6" ry="6.6" style="stroke: #A80036; stroke-width: 0.6;"/><path d="M88.95,337.2562 L88.95,340.8563 L90.15,340.8563 L90.4406,340.8563 L90.75,341.2313 L90.75,341.4563 L90.75,341.6813 L90.4406,342.0563 L90.15,342.0563 L86.55,342.0563 L86.2594,342.0563 L85.95,341.6813 L85.95,341.4563 L85.95,341.2313 L86.2594,340.8563 L86.55,340.8563 L87.75,340.8563 L87.75,337.2562 L86.55,337.2562 L86.2594,337.2562 L85.95,336.8812 L85.95,336.6563 L85.95,336.4313 L86.2594,336.0563 L86.55,336.0563 L90.15,336.0563 L90.4406,336.0563 L90.75,336.4313 L90.75,336.6563 L90.75,336.8812 L90.4406,337.2562 L90.15,337.2562 L88.95,337.2562 Z "/><text fill="#000000" font-family="sans-serif" font-size="7.2" font-style="italic" lengthAdjust="spacingAndGlyphs" textLength="18.6" x="109.05" y="337.4742">«Ice»</text><text fill="#000000" font-family="sans-serif" font-size="7.2" font-style="italic" lengthAdjust="spacingAndGlyphs" textLength="35.4" x="100.65" y="346.5305">Repository</text><line style="stroke: #A80036; stroke-width: 0.8999999999999999;" x1="52.2" x2="165" y1="351.1125" y2="351.1125"/><line style="stroke: #A80036; stroke-width: 0.8999999999999999;" x1="52.2" x2="165" y1="355.9125" y2="355.9125"/><ellipse cx="58.2" cy="362.5125" fill="#84BE84" rx="1.8" ry="1.8" style="stroke: #038048; stroke-width: 0.6;"/><text fill="#000000" font-family="sans-serif" font-size="6.6" lengthAdjust="spacingAndGlyphs" textLength="98.4" x="63.6" y="365.1639">save(persona: Persona): Persona</text><!--MD5=[362c5b265a65b786b7c4dfeaf2a77a2b]
class RepositoryDisp_--><rect fill="#FEFECE" filter="url(#f1p455nqz18nl8)" height="33.7125" id="RepositoryDisp_" style="stroke: #A80036; stroke-width: 0.8999999999999999;" width="74.4" x="70.8" y="256.8"/><ellipse cx="79.8" cy="268.8563" fill="#ADD1B2" rx="6.6" ry="6.6" style="stroke: #A80036; stroke-width: 0.6;"/><path d="M81,266.7562 Q81.1219,266.4563 81.2625,266.3063 Q81.4031,266.1563 81.5625,266.1563 Q81.8438,266.1563 82.0219,266.325 Q82.2,266.4938 82.2,266.8875 L82.2,267.825 Q82.2,268.2188 82.0313,268.3875 Q81.8625,268.5563 81.6,268.5563 Q81.3656,268.5563 81.2156,268.4531 Q81.0656,268.35 81,268.0781 Q80.9719,267.8906 80.8687,267.7875 Q80.6812,267.5906 80.3438,267.4781 Q80.0063,267.3563 79.6688,267.3563 Q79.2469,267.3563 78.8906,267.525 Q78.5438,267.6937 78.2719,268.0687 Q78,268.4437 78,268.9594 L78,269.5125 Q78,270.1312 78.5063,270.5438 Q79.0125,270.9563 79.9125,270.9563 Q80.4469,270.9563 80.8219,270.8344 Q81.0375,270.7688 81.2813,270.5531 Q81.4406,270.4313 81.525,270.3938 Q81.6094,270.3563 81.7125,270.3563 Q81.9094,270.3563 82.05,270.5156 Q82.2,270.6656 82.2,270.8812 Q82.2,271.0875 81.9937,271.3313 Q81.6938,271.6875 81.2156,271.8844 Q80.5875,272.1563 79.8188,272.1563 Q78.9188,272.1563 78.1969,271.8 Q77.6156,271.5188 77.2031,270.9094 Q76.8,270.3 76.8,269.5781 L76.8,268.9219 Q76.8,268.1719 77.1563,267.5156 Q77.5219,266.8594 78.15,266.5125 Q78.7875,266.1563 79.5,266.1563 Q79.9312,266.1563 80.3062,266.3063 Q80.6812,266.4563 81,266.7562 Z "/><text fill="#000000" font-family="sans-serif" font-size="7.2" font-style="italic" lengthAdjust="spacingAndGlyphs" textLength="43.2" x="94.2" y="267.2742">«Generated»</text><text fill="#000000" font-family="sans-serif" font-size="7.2" lengthAdjust="spacingAndGlyphs" textLength="55.2" x="88.2" y="276.3305">RepositoryDisp_</text><line style="stroke: #A80036; stroke-width: 0.8999999999999999;" x1="71.4" x2="144.6" y1="280.9125" y2="280.9125"/><line style="stroke: #A80036; stroke-width: 0.8999999999999999;" x1="71.4" x2="144.6" y1="285.7125" y2="285.7125"/><!--MD5=[6f9d70d0c5933597404f248c726eda22]
class RepositoryImpl--><rect fill="#FEFECE" filter="url(#f1p455nqz18nl8)" height="45.4031" id="RepositoryImpl" style="stroke: #A80036; stroke-width: 0.8999999999999999;" width="111.6" x="52.2" y="149.7"/><ellipse cx="80.55" cy="159.3" fill="#ADD1B2" rx="6.6" ry="6.6" style="stroke: #A80036; stroke-width: 0.6;"/><path d="M81.75,157.2 Q81.8719,156.9 82.0125,156.75 Q82.1531,156.6 82.3125,156.6 Q82.5938,156.6 82.7719,156.7687 Q82.95,156.9375 82.95,157.3312 L82.95,158.2687 Q82.95,158.6625 82.7813,158.8312 Q82.6125,159 82.35,159 Q82.1156,159 81.9656,158.8969 Q81.8156,158.7938 81.75,158.5219 Q81.7219,158.3344 81.6187,158.2313 Q81.4312,158.0344 81.0938,157.9219 Q80.7563,157.8 80.4188,157.8 Q79.9969,157.8 79.6406,157.9688 Q79.2938,158.1375 79.0219,158.5125 Q78.75,158.8875 78.75,159.4031 L78.75,159.9562 Q78.75,160.575 79.2563,160.9875 Q79.7625,161.4 80.6625,161.4 Q81.1969,161.4 81.5719,161.2781 Q81.7875,161.2125 82.0313,160.9969 Q82.1906,160.875 82.275,160.8375 Q82.3594,160.8 82.4625,160.8 Q82.6594,160.8 82.8,160.9594 Q82.95,161.1094 82.95,161.325 Q82.95,161.5313 82.7437,161.775 Q82.4438,162.1313 81.9656,162.3281 Q81.3375,162.6 80.5688,162.6 Q79.6688,162.6 78.9469,162.2438 Q78.3656,161.9625 77.9531,161.3531 Q77.55,160.7438 77.55,160.0219 L77.55,159.3656 Q77.55,158.6156 77.9063,157.9594 Q78.2719,157.3031 78.9,156.9562 Q79.5375,156.6 80.25,156.6 Q80.6812,156.6 81.0562,156.75 Q81.4312,156.9 81.75,157.2 Z "/><text fill="#000000" font-family="sans-serif" font-size="7.2" lengthAdjust="spacingAndGlyphs" textLength="49.8" x="92.85" y="162.2461">RepositoryImpl</text><line style="stroke: #A80036; stroke-width: 0.8999999999999999;" x1="52.8" x2="163.2" y1="168.9" y2="168.9"/><rect fill="none" height="3.6" style="stroke: #C82930; stroke-width: 0.6;" width="3.6" x="57" y="173.7"/><text fill="#000000" font-family="sans-serif" font-size="6.6" lengthAdjust="spacingAndGlyphs" textLength="96" x="64.2" y="178.1514">_logger: ILogger&lt;RepositoryImpl&gt;</text><rect fill="none" height="3.6" style="stroke: #C82930; stroke-width: 0.6;" width="3.6" x="57" y="182.0016"/><text fill="#000000" font-family="sans-serif" font-size="6.6" lengthAdjust="spacingAndGlyphs" textLength="93.6" x="64.2" y="186.4529">_parkingContext: ParkingContext</text><line style="stroke: #A80036; stroke-width: 0.8999999999999999;" x1="52.8" x2="163.2" y1="190.3031" y2="190.3031"/><!--MD5=[998eeed75530082c7356bc62571a541b]
reverse link Persona to ParkingContext--><path d="M227.4,557.922 C232.482,567.66 238.962,576.774 247.2,583.8 C269.934,603.174 339.192,618.564 397.398,628.542 " fill="none" id="Persona&lt;-ParkingContext" style="stroke: #A80036; stroke-width: 0.6; stroke-dasharray: 7.0,7.0;"/><polygon fill="#A80036" points="226.002,555.162,226.2929,561.0641,227.3539,557.8401,230.5779,558.9011,226.002,555.162" style="stroke: #A80036; stroke-width: 0.6;"/><text fill="#000000" font-family="sans-serif" font-size="7.8" lengthAdjust="spacingAndGlyphs" textLength="21" x="247.8" y="581.6971">«use»</text><!--MD5=[93eda055a1fdb4dab9fc4d9c53718769]
link Persona to Sexo--><path d="M209.4,555.192 C209.4,576.546 209.4,599.28 209.4,616.038 " fill="none" id="Persona-&gt;Sexo" style="stroke: #A80036; stroke-width: 0.6;"/><polygon fill="#A80036" points="209.4,619.098,211.8,613.698,209.4,616.098,207,613.698,209.4,619.098" style="stroke: #A80036; stroke-width: 0.6;"/><!--MD5=[b60dde4482872904c0d62ebd938258dd]
link Repository to Persona--><path d="M123.042,369.144 C136.914,388.878 158.364,419.394 176.412,445.074 " fill="none" id="Repository-&gt;Persona" style="stroke: #A80036; stroke-width: 0.6; stroke-dasharray: 7.0,7.0;"/><polygon fill="#A80036" points="178.152,447.546,177.0106,441.748,176.427,445.0915,173.0834,444.508,178.152,447.546" style="stroke: #A80036; stroke-width: 0.6;"/><text fill="#000000" font-family="sans-serif" font-size="7.8" lengthAdjust="spacingAndGlyphs" textLength="21" x="141.6" y="396.8971">«use»</text><!--MD5=[1cb80b4f72f29997f5b3ea78c0b4f80e]
link RepositoryDisp_ to Repository--><path d="M108.132,290.448 C108.192,297.552 108.264,306.156 108.33,314.502 " fill="none" id="RepositoryDisp_-&gt;Repository" style="stroke: #A80036; stroke-width: 0.6;"/><polygon fill="none" points="112.53,314.706,108.432,326.736,104.13,314.772,112.53,314.706" style="stroke: #A80036; stroke-width: 0.6;"/><!--MD5=[4040cc291ddbeff7cb38541d72ef8cc0]
link RepositoryImpl to ParkingContext--><path d="M133.122,195.522 C143.052,203.814 154.794,212.946 166.2,220.2 C211.488,249 274.8,219.33 274.8,273 C274.8,273 274.8,273 274.8,493.2 C274.8,513.342 265.332,567.978 277.8,583.8 C292.776,602.802 345.444,617.256 394.14,626.928 " fill="none" id="RepositoryImpl-&gt;ParkingContext" style="stroke: #A80036; stroke-width: 0.6;"/><polygon fill="#A80036" points="397.338,627.558,392.4983,624.1673,394.3936,626.9829,391.5781,628.8782,397.338,627.558" style="stroke: #A80036; stroke-width: 0.6;"/><!--MD5=[d2d167f6e071df6a4b26783f974c0853]
link RepositoryImpl to RepositoryDisp_--><path d="M108,195.522 C108,210.036 108,229.062 108,244.632 " fill="none" id="RepositoryImpl-&gt;RepositoryDisp_" style="stroke: #A80036; stroke-width: 0.6;"/><polygon fill="none" points="112.2,244.716,108,256.716,103.8,244.716,112.2,244.716" style="stroke: #A80036; stroke-width: 0.6;"/><!--MD5=[461927f37854ed549a77c913d00ad629]
link Main to ParkingService--><path d="M187.128,73.686 C198.738,86.784 214.992,105.114 230.316,122.4 " fill="none" id="Main-&gt;ParkingService" style="stroke: #A80036; stroke-width: 0.6; stroke-dasharray: 7.0,7.0;"/><polygon fill="#A80036" points="232.374,124.722,230.5909,119.0881,230.3852,122.476,226.9973,122.2703,232.374,124.722" style="stroke: #A80036; stroke-width: 0.6;"/><!--MD5=[9a35be41693c54aef52dd5eb2ead8791]
link Main to ParkingContext--><path d="M244.53,57.522 C322.83,64.056 435.6,88.026 435.6,171.9 C435.6,171.9 435.6,171.9 435.6,493.2 C435.6,536.298 455.124,582.798 470.01,611.988 " fill="none" id="Main-&gt;ParkingContext" style="stroke: #A80036; stroke-width: 0.6; stroke-dasharray: 7.0,7.0;"/><polygon fill="#A80036" points="471.438,614.76,471.1095,608.8598,470.0691,612.0905,466.8383,611.0501,471.438,614.76" style="stroke: #A80036; stroke-width: 0.6;"/><!--MD5=[9bed9b7d0924d0c25dd3396f50ae41b9]
link Main to RepositoryImpl--><path d="M161.154,73.686 C150.522,93.33 133.512,124.758 121.608,146.76 " fill="none" id="Main-&gt;RepositoryImpl" style="stroke: #A80036; stroke-width: 0.6; stroke-dasharray: 7.0,7.0;"/><polygon fill="#A80036" points="120.036,149.664,124.7107,146.0491,121.4593,147.0231,120.4853,143.7718,120.036,149.664" style="stroke: #A80036; stroke-width: 0.6;"/><!--MD5=[f2e8d1e432365ea38a143b58a2b547ea]
link Main to RepositoryDisp_--><path d="M97.392,62.7 C76.104,68.598 55.098,78.942 42,96.9 C9.708,141.174 18.264,170.808 42,220.2 C48.942,234.642 61.974,246.372 74.634,255.078 " fill="none" id="Main-&gt;RepositoryDisp_" style="stroke: #A80036; stroke-width: 0.6; stroke-dasharray: 7.0,7.0;"/><polygon fill="#A80036" points="77.16,256.776,74.018,251.7712,74.6705,255.102,71.3397,255.7544,77.16,256.776" style="stroke: #A80036; stroke-width: 0.6;"/><!--MD5=[ce8c63a76bd6122e419a27da2d9aa92a]
@startuml

package Parking {


    package Dao {
    
        class ParkingContext {
            - Personas: DbSet<Personas>
            # OnConfiguring(optionsBuilder: DbContextOptionsBuilder)
            # OnModelCreating(modelBuilder: ModelBuilder)
        }
    
    }

    package ZeroIce {

        package Model {
        
            class Persona <<Entity>> {
                - uid: Long
                - codigo: Integer
                - rut: String
                - nombre: String
                - email: String
                - cargo: String
                - unidad: String
                - direccion: String
                - sexo: Sexo
                - movil: String
                - fijo: String
            }
            Persona <.. ParkingContext: <<use>>
        
            enum Sexo {
                MASCULINO,
                FEMENINO
            }
            Persona - -> Sexo
                
        }
        
        class ParkingService {
            - Port: int
            - _communicator: Communicator 
            - _logger: ILogger<ParkingService>
            - _theRepo: RepositoryDisp_
            + StartAsync(cancellationToken: CancellationToken): Task
            + StopAsync(cancellationToken: CancellationToken): Task
            + Dispose()
            - BuildCommunicator(): Communicator
        }
    
        package Services {
        
            interface Repository <<Ice>> {
                + save(persona: Persona): Persona
            }
            Repository ..> Persona: <<use>>       
 
            class RepositoryDisp_ <<Generated>> {
            }
            RepositoryDisp_ - -|> Repository
        
            class RepositoryImpl {
                - _logger: ILogger<RepositoryImpl>
                - _parkingContext: ParkingContext
            }
            RepositoryImpl - -> ParkingContext
            RepositoryImpl - -|> RepositoryDisp_
        
        }
        
    }

    class Main {
        - CreateHostBuilder(args: string[]): IHostBuilder 
    }
    Main ..> ParkingService
    Main ..> ParkingContext
    Main ..> RepositoryImpl
    Main ..> RepositoryDisp_

}

@enduml

PlantUML version 1.2020.09(Sun May 10 06:51:06 CLT 2020)
(GPL source distribution)
Java Runtime: OpenJDK Runtime Environment
JVM: OpenJDK 64-Bit Server VM
Java Version: 11.0.7+10-b944.20
Operating System: Windows 10
Default Encoding: Cp1252
Language: en
Country: US
--></g></svg>