<?xml version="1.0" encoding="UTF-8" standalone="no"?><svg xmlns="http://www.w3.org/2000/svg" xmlns:xlink="http://www.w3.org/1999/xlink" contentScriptType="application/ecmascript" contentStyleType="text/css" height="756px" preserveAspectRatio="none" style="width:1205px;height:756px;" version="1.1" viewBox="0 0 1205 756" width="1205px" zoomAndPan="magnify"><defs><filter height="300%" id="fjing7yycfhpu" width="300%" x="-1" y="-1"><feGaussianBlur result="blurOut" stdDeviation="2.0"/><feColorMatrix in="blurOut" result="blurOut2" type="matrix" values="0 0 0 0 0 0 0 0 0 0 0 0 0 0 0 0 0 0 .4 0"/><feOffset dx="4.0" dy="4.0" in="blurOut2" result="blurOut3"/><feBlend in="SourceGraphic" in2="blurOut3" mode="normal"/></filter></defs><g><!--MD5=[b08720d16ae3d0f918a6760ea6187be0]
cluster scraper--><polygon fill="#FFFFFF" filter="url(#fjing7yycfhpu)" points="22,301,82,301,89,324.6094,459,324.6094,459,744,22,744,22,301" style="stroke: #000000; stroke-width: 1.5;"/><line style="stroke: #000000; stroke-width: 1.5;" x1="22" x2="89" y1="324.6094" y2="324.6094"/><text fill="#000000" font-family="sans-serif" font-size="14" font-weight="bold" lengthAdjust="spacingAndGlyphs" textLength="54" x="26" y="317.5332">scraper</text><!--MD5=[5d4cd377749310b66bf14896f5cd8d9b]
cluster model--><polygon fill="#FFFFFF" filter="url(#fjing7yycfhpu)" points="483,214,532,214,539,237.6094,724,237.6094,724,733,483,733,483,214" style="stroke: #000000; stroke-width: 1.5;"/><line style="stroke: #000000; stroke-width: 1.5;" x1="483" x2="539" y1="237.6094" y2="237.6094"/><text fill="#000000" font-family="sans-serif" font-size="14" font-weight="bold" lengthAdjust="spacingAndGlyphs" textLength="43" x="487" y="230.5332">model</text><!--MD5=[69f6aa72f6796478ce3447753d27545f]
cluster DAO--><polygon fill="#FFFFFF" filter="url(#fjing7yycfhpu)" points="748,24.5,784,24.5,791,48.1094,1183,48.1094,1183,470.5,748,470.5,748,24.5" style="stroke: #000000; stroke-width: 1.5;"/><line style="stroke: #000000; stroke-width: 1.5;" x1="748" x2="791" y1="48.1094" y2="48.1094"/><text fill="#000000" font-family="sans-serif" font-size="14" font-weight="bold" lengthAdjust="spacingAndGlyphs" textLength="30" x="752" y="41.0332">DAO</text><!--MD5=[f07d62b14bab589ddbff025339f79d15]
class DirectorioUCN--><rect fill="#FEFECE" filter="url(#fjing7yycfhpu)" height="89.5078" id="DirectorioUCN" style="stroke: #A80036; stroke-width: 1.5;" width="186" x="38" y="337"/><ellipse cx="86.75" cy="353" fill="#ADD1B2" rx="11" ry="11" style="stroke: #A80036; stroke-width: 1.0;"/><path d="M88.75,349.5 Q88.9531,349 89.1875,348.75 Q89.4219,348.5 89.6875,348.5 Q90.1563,348.5 90.4531,348.7813 Q90.75,349.0625 90.75,349.7188 L90.75,351.2813 Q90.75,351.9375 90.4688,352.2188 Q90.1875,352.5 89.75,352.5 Q89.3594,352.5 89.1094,352.3281 Q88.8594,352.1563 88.75,351.7031 Q88.7031,351.3906 88.5313,351.2188 Q88.2188,350.8906 87.6563,350.7031 Q87.0938,350.5 86.5313,350.5 Q85.8281,350.5 85.2344,350.7813 Q84.6563,351.0625 84.2031,351.6875 Q83.75,352.3125 83.75,353.1719 L83.75,354.0938 Q83.75,355.125 84.5938,355.8125 Q85.4375,356.5 86.9375,356.5 Q87.8281,356.5 88.4531,356.2969 Q88.8125,356.1875 89.2188,355.8281 Q89.4844,355.625 89.625,355.5625 Q89.7656,355.5 89.9375,355.5 Q90.2656,355.5 90.5,355.7656 Q90.75,356.0156 90.75,356.375 Q90.75,356.7188 90.4063,357.125 Q89.9063,357.7188 89.1094,358.0469 Q88.0625,358.5 86.7813,358.5 Q85.2813,358.5 84.0781,357.9063 Q83.1094,357.4375 82.4219,356.4219 Q81.75,355.4063 81.75,354.2031 L81.75,353.1094 Q81.75,351.8594 82.3438,350.7656 Q82.9531,349.6719 84,349.0938 Q85.0625,348.5 86.25,348.5 Q86.9688,348.5 87.5938,348.75 Q88.2188,349 88.75,349.5 Z "/><text fill="#000000" font-family="sans-serif" font-size="12" lengthAdjust="spacingAndGlyphs" textLength="80" x="107.25" y="357.9102">DirectorioUCN</text><line style="stroke: #A80036; stroke-width: 1.5;" x1="39" x2="223" y1="369" y2="369"/><rect fill="none" height="6" style="stroke: #C82930; stroke-width: 1.0;" width="6" x="46" y="377"/><text fill="#000000" font-family="sans-serif" font-size="11" lengthAdjust="spacingAndGlyphs" text-decoration="underline" textLength="54" x="58" y="384.4189">URL: String</text><line style="stroke: #A80036; stroke-width: 1.5;" x1="39" x2="223" y1="390.8359" y2="390.8359"/><ellipse cx="49" cy="401.8359" fill="#84BE84" rx="3" ry="3" style="stroke: #038048; stroke-width: 1.0;"/><text fill="#000000" font-family="sans-serif" font-size="11" lengthAdjust="spacingAndGlyphs" text-decoration="underline" textLength="107" x="58" y="406.2549">scrape(Integer): Ficha</text><rect fill="#F24D5C" height="6" style="stroke: #C82930; stroke-width: 1.0;" width="6" x="46" y="412.6719"/><text fill="#000000" font-family="sans-serif" font-size="11" lengthAdjust="spacingAndGlyphs" text-decoration="underline" textLength="160" x="58" y="420.0908">getText(Document, String): String</text><!--MD5=[0587adf760024d04fa2c5edc0ad907c9]
class Ficha--><rect fill="#FEFECE" filter="url(#fjing7yycfhpu)" height="153.0391" id="Ficha" style="stroke: #A80036; stroke-width: 1.5;" width="104" x="79" y="575"/><ellipse cx="104.35" cy="595.0938" fill="#ADD1B2" rx="11" ry="11" style="stroke: #A80036; stroke-width: 1.0;"/><path d="M106.35,591.5938 Q106.5531,591.0938 106.7875,590.8438 Q107.0219,590.5938 107.2875,590.5938 Q107.7563,590.5938 108.0531,590.875 Q108.35,591.1563 108.35,591.8125 L108.35,593.375 Q108.35,594.0313 108.0688,594.3125 Q107.7875,594.5938 107.35,594.5938 Q106.9594,594.5938 106.7094,594.4219 Q106.4594,594.25 106.35,593.7969 Q106.3031,593.4844 106.1313,593.3125 Q105.8188,592.9844 105.2563,592.7969 Q104.6938,592.5938 104.1313,592.5938 Q103.4281,592.5938 102.8344,592.875 Q102.2563,593.1563 101.8031,593.7813 Q101.35,594.4063 101.35,595.2656 L101.35,596.1875 Q101.35,597.2188 102.1938,597.9063 Q103.0375,598.5938 104.5375,598.5938 Q105.4281,598.5938 106.0531,598.3906 Q106.4125,598.2813 106.8188,597.9219 Q107.0844,597.7188 107.225,597.6563 Q107.3656,597.5938 107.5375,597.5938 Q107.8656,597.5938 108.1,597.8594 Q108.35,598.1094 108.35,598.4688 Q108.35,598.8125 108.0063,599.2188 Q107.5063,599.8125 106.7094,600.1406 Q105.6625,600.5938 104.3813,600.5938 Q102.8813,600.5938 101.6781,600 Q100.7094,599.5313 100.0219,598.5156 Q99.35,597.5 99.35,596.2969 L99.35,595.2031 Q99.35,593.9531 99.9438,592.8594 Q100.5531,591.7656 101.6,591.1875 Q102.6625,590.5938 103.85,590.5938 Q104.5688,590.5938 105.1938,590.8438 Q105.8188,591.0938 106.35,591.5938 Z "/><text fill="#000000" font-family="sans-serif" font-size="12" font-style="italic" lengthAdjust="spacingAndGlyphs" textLength="53" x="118.65" y="592.457">«Builder»</text><text fill="#000000" font-family="sans-serif" font-size="12" lengthAdjust="spacingAndGlyphs" textLength="30" x="130.15" y="607.5508">Ficha</text><line style="stroke: #A80036; stroke-width: 1.5;" x1="80" x2="182" y1="615.1875" y2="615.1875"/><rect fill="none" height="6" style="stroke: #C82930; stroke-width: 1.0;" width="6" x="87" y="623.1875"/><text fill="#000000" font-family="sans-serif" font-size="11" lengthAdjust="spacingAndGlyphs" textLength="70" x="99" y="630.6064">nombre: String</text><rect fill="none" height="6" style="stroke: #C82930; stroke-width: 1.0;" width="6" x="87" y="637.0234"/><text fill="#000000" font-family="sans-serif" font-size="11" lengthAdjust="spacingAndGlyphs" textLength="62" x="99" y="644.4424">cargo: String</text><rect fill="none" height="6" style="stroke: #C82930; stroke-width: 1.0;" width="6" x="87" y="650.8594"/><text fill="#000000" font-family="sans-serif" font-size="11" lengthAdjust="spacingAndGlyphs" textLength="66" x="99" y="658.2783">unidad: String</text><rect fill="none" height="6" style="stroke: #C82930; stroke-width: 1.0;" width="6" x="87" y="664.6953"/><text fill="#000000" font-family="sans-serif" font-size="11" lengthAdjust="spacingAndGlyphs" textLength="58" x="99" y="672.1143">email: String</text><rect fill="none" height="6" style="stroke: #C82930; stroke-width: 1.0;" width="6" x="87" y="678.5313"/><text fill="#000000" font-family="sans-serif" font-size="11" lengthAdjust="spacingAndGlyphs" textLength="73" x="99" y="685.9502">telefono: String</text><rect fill="none" height="6" style="stroke: #C82930; stroke-width: 1.0;" width="6" x="87" y="692.3672"/><text fill="#000000" font-family="sans-serif" font-size="11" lengthAdjust="spacingAndGlyphs" textLength="66" x="99" y="699.7861">oficina: String</text><rect fill="none" height="6" style="stroke: #C82930; stroke-width: 1.0;" width="6" x="87" y="706.2031"/><text fill="#000000" font-family="sans-serif" font-size="11" lengthAdjust="spacingAndGlyphs" textLength="78" x="99" y="713.6221">direccion: String</text><line style="stroke: #A80036; stroke-width: 1.5;" x1="80" x2="182" y1="720.0391" y2="720.0391"/><!--MD5=[9c83e8a36c8b91d421c11bb5e95af223]
class NombreRutFirma--><rect fill="#FEFECE" filter="url(#fjing7yycfhpu)" height="75.6719" id="NombreRutFirma" style="stroke: #A80036; stroke-width: 1.5;" width="183" x="259.5" y="344"/><ellipse cx="299.25" cy="360" fill="#ADD1B2" rx="11" ry="11" style="stroke: #A80036; stroke-width: 1.0;"/><path d="M301.25,356.5 Q301.4531,356 301.6875,355.75 Q301.9219,355.5 302.1875,355.5 Q302.6563,355.5 302.9531,355.7813 Q303.25,356.0625 303.25,356.7188 L303.25,358.2813 Q303.25,358.9375 302.9688,359.2188 Q302.6875,359.5 302.25,359.5 Q301.8594,359.5 301.6094,359.3281 Q301.3594,359.1563 301.25,358.7031 Q301.2031,358.3906 301.0313,358.2188 Q300.7188,357.8906 300.1563,357.7031 Q299.5938,357.5 299.0313,357.5 Q298.3281,357.5 297.7344,357.7813 Q297.1563,358.0625 296.7031,358.6875 Q296.25,359.3125 296.25,360.1719 L296.25,361.0938 Q296.25,362.125 297.0938,362.8125 Q297.9375,363.5 299.4375,363.5 Q300.3281,363.5 300.9531,363.2969 Q301.3125,363.1875 301.7188,362.8281 Q301.9844,362.625 302.125,362.5625 Q302.2656,362.5 302.4375,362.5 Q302.7656,362.5 303,362.7656 Q303.25,363.0156 303.25,363.375 Q303.25,363.7188 302.9063,364.125 Q302.4063,364.7188 301.6094,365.0469 Q300.5625,365.5 299.2813,365.5 Q297.7813,365.5 296.5781,364.9063 Q295.6094,364.4375 294.9219,363.4219 Q294.25,362.4063 294.25,361.2031 L294.25,360.1094 Q294.25,358.8594 294.8438,357.7656 Q295.4531,356.6719 296.5,356.0938 Q297.5625,355.5 298.75,355.5 Q299.4688,355.5 300.0938,355.75 Q300.7188,356 301.25,356.5 Z "/><text fill="#000000" font-family="sans-serif" font-size="12" lengthAdjust="spacingAndGlyphs" textLength="96" x="318.75" y="364.9102">NombreRutFirma</text><line style="stroke: #A80036; stroke-width: 1.5;" x1="260.5" x2="441.5" y1="376" y2="376"/><rect fill="none" height="6" style="stroke: #C82930; stroke-width: 1.0;" width="6" x="267.5" y="384"/><text fill="#000000" font-family="sans-serif" font-size="11" lengthAdjust="spacingAndGlyphs" text-decoration="underline" textLength="54" x="279.5" y="391.4189">URL: String</text><line style="stroke: #A80036; stroke-width: 1.5;" x1="260.5" x2="441.5" y1="397.8359" y2="397.8359"/><ellipse cx="270.5" cy="408.8359" fill="#84BE84" rx="3" ry="3" style="stroke: #038048; stroke-width: 1.0;"/><text fill="#000000" font-family="sans-serif" font-size="11" lengthAdjust="spacingAndGlyphs" text-decoration="underline" textLength="157" x="279.5" y="413.2549">scrape(String): List&lt;Rutificador&gt;</text><!--MD5=[0d0015e8f48cd77dcb9f429c2ad2f210]
class Rutificador--><rect fill="#FEFECE" filter="url(#fjing7yycfhpu)" height="125.3672" id="Rutificador" style="stroke: #A80036; stroke-width: 1.5;" width="104" x="299" y="589"/><ellipse cx="319.85" cy="609.0938" fill="#ADD1B2" rx="11" ry="11" style="stroke: #A80036; stroke-width: 1.0;"/><path d="M321.85,605.5938 Q322.0531,605.0938 322.2875,604.8438 Q322.5219,604.5938 322.7875,604.5938 Q323.2563,604.5938 323.5531,604.875 Q323.85,605.1563 323.85,605.8125 L323.85,607.375 Q323.85,608.0313 323.5688,608.3125 Q323.2875,608.5938 322.85,608.5938 Q322.4594,608.5938 322.2094,608.4219 Q321.9594,608.25 321.85,607.7969 Q321.8031,607.4844 321.6313,607.3125 Q321.3188,606.9844 320.7563,606.7969 Q320.1938,606.5938 319.6313,606.5938 Q318.9281,606.5938 318.3344,606.875 Q317.7563,607.1563 317.3031,607.7813 Q316.85,608.4063 316.85,609.2656 L316.85,610.1875 Q316.85,611.2188 317.6938,611.9063 Q318.5375,612.5938 320.0375,612.5938 Q320.9281,612.5938 321.5531,612.3906 Q321.9125,612.2813 322.3188,611.9219 Q322.5844,611.7188 322.725,611.6563 Q322.8656,611.5938 323.0375,611.5938 Q323.3656,611.5938 323.6,611.8594 Q323.85,612.1094 323.85,612.4688 Q323.85,612.8125 323.5063,613.2188 Q323.0063,613.8125 322.2094,614.1406 Q321.1625,614.5938 319.8813,614.5938 Q318.3813,614.5938 317.1781,614 Q316.2094,613.5313 315.5219,612.5156 Q314.85,611.5 314.85,610.2969 L314.85,609.2031 Q314.85,607.9531 315.4438,606.8594 Q316.0531,605.7656 317.1,605.1875 Q318.1625,604.5938 319.35,604.5938 Q320.0688,604.5938 320.6938,604.8438 Q321.3188,605.0938 321.85,605.5938 Z "/><text fill="#000000" font-family="sans-serif" font-size="12" font-style="italic" lengthAdjust="spacingAndGlyphs" textLength="53" x="338.15" y="606.457">«Builder»</text><text fill="#000000" font-family="sans-serif" font-size="12" lengthAdjust="spacingAndGlyphs" textLength="59" x="335.15" y="621.5508">Rutificador</text><line style="stroke: #A80036; stroke-width: 1.5;" x1="300" x2="402" y1="629.1875" y2="629.1875"/><rect fill="none" height="6" style="stroke: #C82930; stroke-width: 1.0;" width="6" x="307" y="637.1875"/><text fill="#000000" font-family="sans-serif" font-size="11" lengthAdjust="spacingAndGlyphs" textLength="70" x="319" y="644.6064">nombre: String</text><rect fill="none" height="6" style="stroke: #C82930; stroke-width: 1.0;" width="6" x="307" y="651.0234"/><text fill="#000000" font-family="sans-serif" font-size="11" lengthAdjust="spacingAndGlyphs" textLength="47" x="319" y="658.4424">rut: String</text><rect fill="none" height="6" style="stroke: #C82930; stroke-width: 1.0;" width="6" x="307" y="664.8594"/><text fill="#000000" font-family="sans-serif" font-size="11" lengthAdjust="spacingAndGlyphs" textLength="58" x="319" y="672.2783">sexo: String</text><rect fill="none" height="6" style="stroke: #C82930; stroke-width: 1.0;" width="6" x="307" y="678.6953"/><text fill="#000000" font-family="sans-serif" font-size="11" lengthAdjust="spacingAndGlyphs" textLength="78" x="319" y="686.1143">direccion: String</text><rect fill="none" height="6" style="stroke: #C82930; stroke-width: 1.0;" width="6" x="307" y="692.5313"/><text fill="#000000" font-family="sans-serif" font-size="11" lengthAdjust="spacingAndGlyphs" textLength="72" x="319" y="699.9502">comuna: String</text><line style="stroke: #A80036; stroke-width: 1.5;" x1="300" x2="402" y1="706.3672" y2="706.3672"/><!--MD5=[cf98b8104f7f757d2a3327e9c712e420]
class Funcionario--><rect fill="#FEFECE" filter="url(#fjing7yycfhpu)" height="263.7266" id="Funcionario" style="stroke: #A80036; stroke-width: 1.5;" width="138" x="499" y="250"/><ellipse cx="532.45" cy="270.0938" fill="#ADD1B2" rx="11" ry="11" style="stroke: #A80036; stroke-width: 1.0;"/><path d="M534.45,266.5938 Q534.6531,266.0938 534.8875,265.8438 Q535.1219,265.5938 535.3875,265.5938 Q535.8563,265.5938 536.1531,265.875 Q536.45,266.1563 536.45,266.8125 L536.45,268.375 Q536.45,269.0313 536.1688,269.3125 Q535.8875,269.5938 535.45,269.5938 Q535.0594,269.5938 534.8094,269.4219 Q534.5594,269.25 534.45,268.7969 Q534.4031,268.4844 534.2313,268.3125 Q533.9188,267.9844 533.3563,267.7969 Q532.7938,267.5938 532.2313,267.5938 Q531.5281,267.5938 530.9344,267.875 Q530.3563,268.1563 529.9031,268.7813 Q529.45,269.4063 529.45,270.2656 L529.45,271.1875 Q529.45,272.2188 530.2938,272.9063 Q531.1375,273.5938 532.6375,273.5938 Q533.5281,273.5938 534.1531,273.3906 Q534.5125,273.2813 534.9188,272.9219 Q535.1844,272.7188 535.325,272.6563 Q535.4656,272.5938 535.6375,272.5938 Q535.9656,272.5938 536.2,272.8594 Q536.45,273.1094 536.45,273.4688 Q536.45,273.8125 536.1063,274.2188 Q535.6063,274.8125 534.8094,275.1406 Q533.7625,275.5938 532.4813,275.5938 Q530.9813,275.5938 529.7781,275 Q528.8094,274.5313 528.1219,273.5156 Q527.45,272.5 527.45,271.2969 L527.45,270.2031 Q527.45,268.9531 528.0438,267.8594 Q528.6531,266.7656 529.7,266.1875 Q530.7625,265.5938 531.95,265.5938 Q532.6688,265.5938 533.2938,265.8438 Q533.9188,266.0938 534.45,266.5938 Z "/><text fill="#000000" font-family="sans-serif" font-size="12" font-style="italic" lengthAdjust="spacingAndGlyphs" textLength="44" x="561.05" y="267.457">«Entity»</text><text fill="#000000" font-family="sans-serif" font-size="12" lengthAdjust="spacingAndGlyphs" textLength="65" x="550.55" y="282.5508">Funcionario</text><line style="stroke: #A80036; stroke-width: 1.5;" x1="500" x2="636" y1="290.1875" y2="290.1875"/><rect fill="none" height="6" style="stroke: #C82930; stroke-width: 1.0;" width="6" x="507" y="298.1875"/><text fill="#000000" font-family="sans-serif" font-size="11" lengthAdjust="spacingAndGlyphs" textLength="38" x="519" y="305.6064">id: Long</text><rect fill="none" height="6" style="stroke: #C82930; stroke-width: 1.0;" width="6" x="507" y="312.0234"/><text fill="#000000" font-family="sans-serif" font-size="11" lengthAdjust="spacingAndGlyphs" textLength="71" x="519" y="319.4424">codigo: Integer</text><rect fill="none" height="6" style="stroke: #C82930; stroke-width: 1.0;" width="6" x="507" y="325.8594"/><text fill="#000000" font-family="sans-serif" font-size="11" lengthAdjust="spacingAndGlyphs" textLength="47" x="519" y="333.2783">rut: String</text><rect fill="none" height="6" style="stroke: #C82930; stroke-width: 1.0;" width="6" x="507" y="339.6953"/><text fill="#000000" font-family="sans-serif" font-size="11" lengthAdjust="spacingAndGlyphs" textLength="70" x="519" y="347.1143">nombre: String</text><rect fill="none" height="6" style="stroke: #C82930; stroke-width: 1.0;" width="6" x="507" y="353.5313"/><text fill="#000000" font-family="sans-serif" font-size="11" lengthAdjust="spacingAndGlyphs" textLength="58" x="519" y="360.9502">email: String</text><rect fill="none" height="6" style="stroke: #C82930; stroke-width: 1.0;" width="6" x="507" y="367.3672"/><text fill="#000000" font-family="sans-serif" font-size="11" lengthAdjust="spacingAndGlyphs" textLength="62" x="519" y="374.7861">cargo: String</text><rect fill="none" height="6" style="stroke: #C82930; stroke-width: 1.0;" width="6" x="507" y="381.2031"/><text fill="#000000" font-family="sans-serif" font-size="11" lengthAdjust="spacingAndGlyphs" textLength="66" x="519" y="388.6221">unidad: String</text><rect fill="none" height="6" style="stroke: #C82930; stroke-width: 1.0;" width="6" x="507" y="395.0391"/><text fill="#000000" font-family="sans-serif" font-size="11" lengthAdjust="spacingAndGlyphs" textLength="66" x="519" y="402.458">oficina: String</text><rect fill="none" height="6" style="stroke: #C82930; stroke-width: 1.0;" width="6" x="507" y="408.875"/><text fill="#000000" font-family="sans-serif" font-size="11" lengthAdjust="spacingAndGlyphs" textLength="112" x="519" y="416.2939">direccionOficina: String</text><rect fill="none" height="6" style="stroke: #C82930; stroke-width: 1.0;" width="6" x="507" y="422.7109"/><text fill="#000000" font-family="sans-serif" font-size="11" lengthAdjust="spacingAndGlyphs" textLength="55" x="519" y="430.1299">sexo: Sexo</text><rect fill="none" height="6" style="stroke: #C82930; stroke-width: 1.0;" width="6" x="507" y="436.5469"/><text fill="#000000" font-family="sans-serif" font-size="11" lengthAdjust="spacingAndGlyphs" textLength="78" x="519" y="443.9658">direccion: String</text><rect fill="none" height="6" style="stroke: #C82930; stroke-width: 1.0;" width="6" x="507" y="450.3828"/><text fill="#000000" font-family="sans-serif" font-size="11" lengthAdjust="spacingAndGlyphs" textLength="72" x="519" y="457.8018">comuna: String</text><rect fill="none" height="6" style="stroke: #C82930; stroke-width: 1.0;" width="6" x="507" y="464.2188"/><text fill="#000000" font-family="sans-serif" font-size="11" lengthAdjust="spacingAndGlyphs" textLength="89" x="519" y="471.6377">telefonoFijo: String</text><rect fill="none" height="6" style="stroke: #C82930; stroke-width: 1.0;" width="6" x="507" y="478.0547"/><text fill="#000000" font-family="sans-serif" font-size="11" lengthAdjust="spacingAndGlyphs" textLength="97" x="519" y="485.4736">telefonoMovil: String</text><rect fill="none" height="6" style="stroke: #C82930; stroke-width: 1.0;" width="6" x="507" y="491.8906"/><text fill="#000000" font-family="sans-serif" font-size="11" lengthAdjust="spacingAndGlyphs" textLength="67" x="519" y="499.3096">status: Status</text><line style="stroke: #A80036; stroke-width: 1.5;" x1="500" x2="636" y1="505.7266" y2="505.7266"/><!--MD5=[2bd084d4f9b8ff009b6d8ba013c0f313]
class Sexo--><rect fill="#FEFECE" filter="url(#fjing7yycfhpu)" height="75.6719" id="Sexo" style="stroke: #A80036; stroke-width: 1.5;" width="75" x="499.5" y="613.5"/><ellipse cx="521.7" cy="629.5" fill="#EB937F" rx="11" ry="11" style="stroke: #A80036; stroke-width: 1.0;"/><path d="M520.2,630.5 L520.2,632.5 L524.2,632.5 L524.2,631.5 L524.2,631.0156 L524.825,630.5 L525.2,630.5 L525.575,630.5 L526.2,631.0156 L526.2,631.5 L526.2,634.5 L518.2,634.5 L517.7156,634.5 L517.2,633.875 L517.2,633.5 L517.2,633.125 L517.7156,632.5 L518.2,632.5 L518.2,632.5 L518.2,626.5 L518.2,626.5 L517.7156,626.5 L517.2,625.875 L517.2,625.5 L517.2,625.125 L517.7156,624.5 L518.2,624.5 L526.2,624.5 L526.2,627.5 L526.2,627.9844 L525.575,628.5 L525.2,628.5 L524.825,628.5 L524.2,627.9844 L524.2,627.5 L524.2,626.5 L520.2,626.5 L520.2,628.5 L521.2,628.5 L521.2,628.0156 L521.2,628.0156 L521.825,627.5 L522.2,627.5 L522.575,627.5 L523.2,628.0156 L523.2,628.5 L523.2,630.5 L523.2,630.9844 L522.575,631.5 L522.575,631.5 L522.2,631.5 L521.825,631.5 L521.2,630.9844 L521.2,630.9844 L521.2,630.5 L520.2,630.5 Z "/><text fill="#000000" font-family="sans-serif" font-size="12" lengthAdjust="spacingAndGlyphs" textLength="27" x="537.3" y="634.4102">Sexo</text><line style="stroke: #A80036; stroke-width: 1.5;" x1="500.5" x2="573.5" y1="645.5" y2="645.5"/><text fill="#000000" font-family="sans-serif" font-size="11" lengthAdjust="spacingAndGlyphs" textLength="63" x="505.5" y="660.9189">MASCULINO,</text><text fill="#000000" font-family="sans-serif" font-size="11" lengthAdjust="spacingAndGlyphs" textLength="50" x="505.5" y="674.7549">FEMENINO</text><line style="stroke: #A80036; stroke-width: 1.5;" x1="500.5" x2="573.5" y1="681.1719" y2="681.1719"/><!--MD5=[e3d83ec5fd90ea9f3f2bfe265cb53458]
class Status--><rect fill="#FEFECE" filter="url(#fjing7yycfhpu)" height="131.0156" id="Status" style="stroke: #A80036; stroke-width: 1.5;" width="98" x="610" y="586"/><ellipse cx="638.95" cy="602" fill="#EB937F" rx="11" ry="11" style="stroke: #A80036; stroke-width: 1.0;"/><path d="M637.45,603 L637.45,605 L641.45,605 L641.45,604 L641.45,603.5156 L642.075,603 L642.45,603 L642.825,603 L643.45,603.5156 L643.45,604 L643.45,607 L635.45,607 L634.9656,607 L634.45,606.375 L634.45,606 L634.45,605.625 L634.9656,605 L635.45,605 L635.45,605 L635.45,599 L635.45,599 L634.9656,599 L634.45,598.375 L634.45,598 L634.45,597.625 L634.9656,597 L635.45,597 L643.45,597 L643.45,600 L643.45,600.4844 L642.825,601 L642.45,601 L642.075,601 L641.45,600.4844 L641.45,600 L641.45,599 L637.45,599 L637.45,601 L638.45,601 L638.45,600.5156 L638.45,600.5156 L639.075,600 L639.45,600 L639.825,600 L640.45,600.5156 L640.45,601 L640.45,603 L640.45,603.4844 L639.825,604 L639.825,604 L639.45,604 L639.075,604 L638.45,603.4844 L638.45,603.4844 L638.45,603 L637.45,603 Z "/><text fill="#000000" font-family="sans-serif" font-size="12" lengthAdjust="spacingAndGlyphs" textLength="35" x="656.05" y="606.9102">Status</text><line style="stroke: #A80036; stroke-width: 1.5;" x1="611" x2="707" y1="618" y2="618"/><text fill="#000000" font-family="sans-serif" font-size="11" lengthAdjust="spacingAndGlyphs" textLength="86" x="616" y="633.4189">UCN_NOTFOUND,</text><text fill="#000000" font-family="sans-serif" font-size="11" lengthAdjust="spacingAndGlyphs" textLength="78" x="616" y="647.2549">UCN_SCRAPED,</text><text fill="#000000" font-family="sans-serif" font-size="11" lengthAdjust="spacingAndGlyphs" textLength="85" x="616" y="661.0908">NRF_NOTFOUND,</text><text fill="#000000" font-family="sans-serif" font-size="11" lengthAdjust="spacingAndGlyphs" textLength="77" x="616" y="674.9268">NRF_SCRAPED,</text><text fill="#000000" font-family="sans-serif" font-size="11" lengthAdjust="spacingAndGlyphs" textLength="60" x="616" y="688.7627">NRF_MANY,</text><text fill="#000000" font-family="sans-serif" font-size="11" lengthAdjust="spacingAndGlyphs" textLength="58" x="616" y="702.5986">UPLOADED,</text><line style="stroke: #A80036; stroke-width: 1.5;" x1="611" x2="707" y1="709.0156" y2="709.0156"/><!--MD5=[c05f8d4c5007184b0fb1ea93cdb8d9fe]
class Repository--><rect fill="#FEFECE" filter="url(#fjing7yycfhpu)" height="144.8516" id="Repository" style="stroke: #A80036; stroke-width: 1.5;" width="225" x="764.5" y="309.5"/><ellipse cx="830.75" cy="325.5" fill="#B4A7E5" rx="11" ry="11" style="stroke: #A80036; stroke-width: 1.0;"/><path d="M831.75,322.5 L831.75,328.5 L833.75,328.5 L834.2344,328.5 L834.75,329.125 L834.75,329.5 L834.75,329.875 L834.2344,330.5 L833.75,330.5 L827.75,330.5 L827.2656,330.5 L826.75,329.875 L826.75,329.5 L826.75,329.125 L827.2656,328.5 L827.75,328.5 L829.75,328.5 L829.75,322.5 L827.75,322.5 L827.2656,322.5 L826.75,321.875 L826.75,321.5 L826.75,321.125 L827.2656,320.5 L827.75,320.5 L833.75,320.5 L834.2344,320.5 L834.75,321.125 L834.75,321.5 L834.75,321.875 L834.2344,322.5 L833.75,322.5 L831.75,322.5 Z "/><text fill="#000000" font-family="sans-serif" font-size="12" font-style="italic" lengthAdjust="spacingAndGlyphs" textLength="59" x="851.25" y="330.4102">Repository</text><rect fill="#FFFFFF" height="17.0938" style="stroke: #000000; stroke-width: 1.0; stroke-dasharray: 2.0,2.0;" width="23" x="969.5" y="306.5"/><text fill="#000000" font-family="sans-serif" font-size="12" font-style="italic" lengthAdjust="spacingAndGlyphs" textLength="21" x="970.5" y="319.957">T, K</text><line style="stroke: #A80036; stroke-width: 1.5;" x1="765.5" x2="988.5" y1="341.5" y2="341.5"/><line style="stroke: #A80036; stroke-width: 1.5;" x1="765.5" x2="988.5" y1="349.5" y2="349.5"/><ellipse cx="775.5" cy="360.5" fill="#84BE84" rx="3" ry="3" style="stroke: #038048; stroke-width: 1.0;"/><text fill="#000000" font-family="sans-serif" font-size="11" lengthAdjust="spacingAndGlyphs" textLength="79" x="784.5" y="364.9189">findAll(): List&lt;T&gt;</text><ellipse cx="775.5" cy="374.3359" fill="#84BE84" rx="3" ry="3" style="stroke: #038048; stroke-width: 1.0;"/><text fill="#000000" font-family="sans-serif" font-size="11" lengthAdjust="spacingAndGlyphs" textLength="199" x="784.5" y="378.7549">findAll(key: String, value: Object): List&lt;T&gt;</text><ellipse cx="775.5" cy="388.1719" fill="#84BE84" rx="3" ry="3" style="stroke: #038048; stroke-width: 1.0;"/><text fill="#000000" font-family="sans-serif" font-size="11" lengthAdjust="spacingAndGlyphs" textLength="68" x="784.5" y="392.5908">findById(id: K)</text><ellipse cx="775.5" cy="402.0078" fill="#84BE84" rx="3" ry="3" style="stroke: #038048; stroke-width: 1.0;"/><text fill="#000000" font-family="sans-serif" font-size="11" lengthAdjust="spacingAndGlyphs" textLength="153" x="784.5" y="406.4268">getQuery(): QueryBuilder&lt;T, K&gt;</text><ellipse cx="775.5" cy="415.8438" fill="#84BE84" rx="3" ry="3" style="stroke: #038048; stroke-width: 1.0;"/><text fill="#000000" font-family="sans-serif" font-size="11" lengthAdjust="spacingAndGlyphs" textLength="98" x="784.5" y="420.2627">create(t: T): boolean</text><ellipse cx="775.5" cy="429.6797" fill="#84BE84" rx="3" ry="3" style="stroke: #038048; stroke-width: 1.0;"/><text fill="#000000" font-family="sans-serif" font-size="11" lengthAdjust="spacingAndGlyphs" textLength="100" x="784.5" y="434.0986">update(t: T): boolean</text><ellipse cx="775.5" cy="443.5156" fill="#84BE84" rx="3" ry="3" style="stroke: #038048; stroke-width: 1.0;"/><text fill="#000000" font-family="sans-serif" font-size="11" lengthAdjust="spacingAndGlyphs" textLength="96" x="784.5" y="447.9346">delete(t: T): boolean</text><!--MD5=[0fe309ad46508f8321401ae5b24b3bfe]
class RepositoryOrmLite--><rect fill="#FEFECE" filter="url(#fjing7yycfhpu)" height="75.6719" id="RepositoryOrmLite" style="stroke: #A80036; stroke-width: 1.5;" width="160" x="902" y="60.5"/><ellipse cx="917" cy="76.5" fill="#ADD1B2" rx="11" ry="11" style="stroke: #A80036; stroke-width: 1.0;"/><path d="M919,73 Q919.2031,72.5 919.4375,72.25 Q919.6719,72 919.9375,72 Q920.4063,72 920.7031,72.2813 Q921,72.5625 921,73.2188 L921,74.7813 Q921,75.4375 920.7188,75.7188 Q920.4375,76 920,76 Q919.6094,76 919.3594,75.8281 Q919.1094,75.6563 919,75.2031 Q918.9531,74.8906 918.7813,74.7188 Q918.4688,74.3906 917.9063,74.2031 Q917.3438,74 916.7813,74 Q916.0781,74 915.4844,74.2813 Q914.9063,74.5625 914.4531,75.1875 Q914,75.8125 914,76.6719 L914,77.5938 Q914,78.625 914.8438,79.3125 Q915.6875,80 917.1875,80 Q918.0781,80 918.7031,79.7969 Q919.0625,79.6875 919.4688,79.3281 Q919.7344,79.125 919.875,79.0625 Q920.0156,79 920.1875,79 Q920.5156,79 920.75,79.2656 Q921,79.5156 921,79.875 Q921,80.2188 920.6563,80.625 Q920.1563,81.2188 919.3594,81.5469 Q918.3125,82 917.0313,82 Q915.5313,82 914.3281,81.4063 Q913.3594,80.9375 912.6719,79.9219 Q912,78.9063 912,77.7031 L912,76.6094 Q912,75.3594 912.5938,74.2656 Q913.2031,73.1719 914.25,72.5938 Q915.3125,72 916.5,72 Q917.2188,72 917.8438,72.25 Q918.4688,72.5 919,73 Z "/><text fill="#000000" font-family="sans-serif" font-size="12" lengthAdjust="spacingAndGlyphs" textLength="103" x="931" y="81.4102">RepositoryOrmLite</text><rect fill="#FFFFFF" height="17.0938" style="stroke: #000000; stroke-width: 1.0; stroke-dasharray: 2.0,2.0;" width="23" x="1042" y="57.5"/><text fill="#000000" font-family="sans-serif" font-size="12" font-style="italic" lengthAdjust="spacingAndGlyphs" textLength="21" x="1043" y="70.957">T, K</text><line style="stroke: #A80036; stroke-width: 1.5;" x1="903" x2="1061" y1="92.5" y2="92.5"/><rect fill="none" height="6" style="stroke: #C82930; stroke-width: 1.0;" width="6" x="910" y="100.5"/><text fill="#000000" font-family="sans-serif" font-size="11" lengthAdjust="spacingAndGlyphs" text-decoration="underline" textLength="88" x="922" y="107.9189">log: Logger&lt;Main&gt;</text><rect fill="none" height="6" style="stroke: #C82930; stroke-width: 1.0;" width="6" x="910" y="114.3359"/><text fill="#000000" font-family="sans-serif" font-size="11" lengthAdjust="spacingAndGlyphs" textLength="90" x="922" y="121.7549">theDao: Dao&lt;T, K&gt;</text><line style="stroke: #A80036; stroke-width: 1.5;" x1="903" x2="1061" y1="128.1719" y2="128.1719"/><!--MD5=[f733cf00a4892e2d83b2489249445920]
class TableUtils--><rect fill="#FEFECE" filter="url(#fjing7yycfhpu)" height="61.8359" id="TableUtils" style="stroke: #A80036; stroke-width: 1.5;" width="142" x="1025" y="351"/><ellipse cx="1064.3" cy="367" fill="#ADD1B2" rx="11" ry="11" style="stroke: #A80036; stroke-width: 1.0;"/><path d="M1066.3,363.5 Q1066.5031,363 1066.7375,362.75 Q1066.9719,362.5 1067.2375,362.5 Q1067.7063,362.5 1068.0031,362.7813 Q1068.3,363.0625 1068.3,363.7188 L1068.3,365.2813 Q1068.3,365.9375 1068.0188,366.2188 Q1067.7375,366.5 1067.3,366.5 Q1066.9094,366.5 1066.6594,366.3281 Q1066.4094,366.1563 1066.3,365.7031 Q1066.2531,365.3906 1066.0813,365.2188 Q1065.7688,364.8906 1065.2063,364.7031 Q1064.6438,364.5 1064.0813,364.5 Q1063.3781,364.5 1062.7844,364.7813 Q1062.2063,365.0625 1061.7531,365.6875 Q1061.3,366.3125 1061.3,367.1719 L1061.3,368.0938 Q1061.3,369.125 1062.1438,369.8125 Q1062.9875,370.5 1064.4875,370.5 Q1065.3781,370.5 1066.0031,370.2969 Q1066.3625,370.1875 1066.7688,369.8281 Q1067.0344,369.625 1067.175,369.5625 Q1067.3156,369.5 1067.4875,369.5 Q1067.8156,369.5 1068.05,369.7656 Q1068.3,370.0156 1068.3,370.375 Q1068.3,370.7188 1067.9563,371.125 Q1067.4563,371.7188 1066.6594,372.0469 Q1065.6125,372.5 1064.3313,372.5 Q1062.8313,372.5 1061.6281,371.9063 Q1060.6594,371.4375 1059.9719,370.4219 Q1059.3,369.4063 1059.3,368.2031 L1059.3,367.1094 Q1059.3,365.8594 1059.8938,364.7656 Q1060.5031,363.6719 1061.55,363.0938 Q1062.6125,362.5 1063.8,362.5 Q1064.5188,362.5 1065.1438,362.75 Q1065.7688,363 1066.3,363.5 Z "/><text fill="#000000" font-family="sans-serif" font-size="12" lengthAdjust="spacingAndGlyphs" textLength="56" x="1083.7" y="371.9102">TableUtils</text><line style="stroke: #A80036; stroke-width: 1.5;" x1="1026" x2="1166" y1="383" y2="383"/><line style="stroke: #A80036; stroke-width: 1.5;" x1="1026" x2="1166" y1="391" y2="391"/><ellipse cx="1036" cy="402" fill="#84BE84" rx="3" ry="3" style="stroke: #038048; stroke-width: 1.0;"/><text fill="#000000" font-family="sans-serif" font-size="11" lengthAdjust="spacingAndGlyphs" text-decoration="underline" textLength="116" x="1045" y="406.4189">createTableIfNotExists()</text><!--MD5=[84718776d214be480e4c259efcb737fc]
class Main--><rect fill="#FEFECE" filter="url(#fjing7yycfhpu)" height="103.3438" id="Main" style="stroke: #A80036; stroke-width: 1.5;" width="391" x="228.5" y="47"/><ellipse cx="406.75" cy="63" fill="#ADD1B2" rx="11" ry="11" style="stroke: #A80036; stroke-width: 1.0;"/><path d="M408.75,59.5 Q408.9531,59 409.1875,58.75 Q409.4219,58.5 409.6875,58.5 Q410.1563,58.5 410.4531,58.7813 Q410.75,59.0625 410.75,59.7188 L410.75,61.2813 Q410.75,61.9375 410.4688,62.2188 Q410.1875,62.5 409.75,62.5 Q409.3594,62.5 409.1094,62.3281 Q408.8594,62.1563 408.75,61.7031 Q408.7031,61.3906 408.5313,61.2188 Q408.2188,60.8906 407.6563,60.7031 Q407.0938,60.5 406.5313,60.5 Q405.8281,60.5 405.2344,60.7813 Q404.6563,61.0625 404.2031,61.6875 Q403.75,62.3125 403.75,63.1719 L403.75,64.0938 Q403.75,65.125 404.5938,65.8125 Q405.4375,66.5 406.9375,66.5 Q407.8281,66.5 408.4531,66.2969 Q408.8125,66.1875 409.2188,65.8281 Q409.4844,65.625 409.625,65.5625 Q409.7656,65.5 409.9375,65.5 Q410.2656,65.5 410.5,65.7656 Q410.75,66.0156 410.75,66.375 Q410.75,66.7188 410.4063,67.125 Q409.9063,67.7188 409.1094,68.0469 Q408.0625,68.5 406.7813,68.5 Q405.2813,68.5 404.0781,67.9063 Q403.1094,67.4375 402.4219,66.4219 Q401.75,65.4063 401.75,64.2031 L401.75,63.1094 Q401.75,61.8594 402.3438,60.7656 Q402.9531,59.6719 404,59.0938 Q405.0625,58.5 406.25,58.5 Q406.9688,58.5 407.5938,58.75 Q408.2188,59 408.75,59.5 Z "/><text fill="#000000" font-family="sans-serif" font-size="12" lengthAdjust="spacingAndGlyphs" textLength="26" x="427.25" y="67.9102">Main</text><line style="stroke: #A80036; stroke-width: 1.5;" x1="229.5" x2="618.5" y1="79" y2="79"/><rect fill="none" height="6" style="stroke: #C82930; stroke-width: 1.0;" width="6" x="236.5" y="87"/><text fill="#000000" font-family="sans-serif" font-size="11" lengthAdjust="spacingAndGlyphs" text-decoration="underline" textLength="88" x="248.5" y="94.4189">log: Logger&lt;Main&gt;</text><line style="stroke: #A80036; stroke-width: 1.5;" x1="229.5" x2="618.5" y1="100.8359" y2="100.8359"/><ellipse cx="239.5" cy="111.8359" fill="#84BE84" rx="3" ry="3" style="stroke: #038048; stroke-width: 1.0;"/><text fill="#000000" font-family="sans-serif" font-size="11" lengthAdjust="spacingAndGlyphs" text-decoration="underline" textLength="64" x="248.5" y="116.2549">main(String[])</text><rect fill="#F24D5C" height="6" style="stroke: #C82930; stroke-width: 1.0;" width="6" x="236.5" y="122.6719"/><text fill="#000000" font-family="sans-serif" font-size="11" lengthAdjust="spacingAndGlyphs" text-decoration="underline" textLength="34" x="248.5" y="130.0908">sleep()</text><rect fill="#F24D5C" height="6" style="stroke: #C82930; stroke-width: 1.0;" width="6" x="236.5" y="136.5078"/><text fill="#000000" font-family="sans-serif" font-size="11" lengthAdjust="spacingAndGlyphs" text-decoration="underline" textLength="365" x="248.5" y="143.9268">getOrScrape(codigo: int, repo: Repository&lt;Funcionario, Long&gt;): Funcionario</text><!--MD5=[4293f839dc53cf7c13e004701db90715]
reverse link NombreRutFirma to Rutificador--><path d="M351,435.21 C351,479.28 351,542.44 351,588.96 " fill="none" id="NombreRutFirma&lt;-Rutificador" style="stroke: #A80036; stroke-width: 1.0;"/><ellipse cx="351" cy="428.19" fill="#FFFFFF" rx="8" ry="8" style="stroke: #A80036; stroke-width: 1.0;"/><line style="stroke: #A80036; stroke-width: 1.0;" x1="351" x2="351" y1="436.19" y2="420.19"/><line style="stroke: #A80036; stroke-width: 1.0;" x1="343" x2="359" y1="428.19" y2="428.19"/><!--MD5=[aebacbaf3a5aaa57ba0d25777dbfcaa4]
reverse link DirectorioUCN to Ficha--><path d="M131,442.28 C131,481.34 131,532.83 131,574.84 " fill="none" id="DirectorioUCN&lt;-Ficha" style="stroke: #A80036; stroke-width: 1.0;"/><ellipse cx="131" cy="435.17" fill="#FFFFFF" rx="8" ry="8" style="stroke: #A80036; stroke-width: 1.0;"/><line style="stroke: #A80036; stroke-width: 1.0;" x1="131" x2="131" y1="443.17" y2="427.17"/><line style="stroke: #A80036; stroke-width: 1.0;" x1="123" x2="139" y1="435.17" y2="435.17"/><!--MD5=[c81887365afb6a3ea1bbdcf6df6f4e29]
link Funcionario to Sexo--><path d="M552.82,514.01 C548.86,548.14 544.88,582.5 541.9,608.21 " fill="none" id="Funcionario-&gt;Sexo" style="stroke: #A80036; stroke-width: 1.0;"/><polygon fill="#A80036" points="541.32,613.24,546.3243,604.7573,541.8926,608.2729,538.377,603.8411,541.32,613.24" style="stroke: #A80036; stroke-width: 1.0;"/><!--MD5=[200278e35345049854ed176d029f201a]
link Funcionario to Status--><path d="M612.57,514.01 C620.45,537.17 628.36,560.44 635.37,581.04 " fill="none" id="Funcionario-&gt;Status" style="stroke: #A80036; stroke-width: 1.0;"/><polygon fill="#A80036" points="637.04,585.94,637.9533,576.1336,635.4417,581.2023,630.373,578.6908,637.04,585.94" style="stroke: #A80036; stroke-width: 1.0;"/><!--MD5=[9fbbda9eb0d9e2ba2b319fec51d2e91c]
link RepositoryOrmLite to Repository--><path d="M968.17,136.59 C953.64,175.53 930.26,238.22 910.81,290.36 " fill="none" id="RepositoryOrmLite-&gt;Repository" style="stroke: #A80036; stroke-width: 1.0;"/><polygon fill="none" points="917.26,293.1,903.71,309.4,904.14,288.21,917.26,293.1" style="stroke: #A80036; stroke-width: 1.0;"/><!--MD5=[a45f1d55dd9a93012232fb8a759c381e]
link RepositoryOrmLite to TableUtils--><path d="M997.02,136.59 C1019.15,191.23 1060.21,292.62 1081.84,346.02 " fill="none" id="RepositoryOrmLite-&gt;TableUtils" style="stroke: #A80036; stroke-width: 1.0; stroke-dasharray: 7.0,7.0;"/><polygon fill="#A80036" points="1083.74,350.72,1084.0487,340.876,1081.8535,346.0895,1076.64,343.8944,1083.74,350.72" style="stroke: #A80036; stroke-width: 1.0;"/><text fill="#000000" font-family="sans-serif" font-size="13" lengthAdjust="spacingAndGlyphs" textLength="35" x="1019" y="194.4951">«use»</text><!--MD5=[91ef0adb766951267d7204e02a70af72]
link Main to DirectorioUCN--><path d="M317.9,150.21 C291.33,165.84 264.13,184.65 242,206 C204.06,242.61 173.18,294.65 153.71,332.46 " fill="none" id="Main-&gt;DirectorioUCN" style="stroke: #A80036; stroke-width: 1.0; stroke-dasharray: 7.0,7.0;"/><polygon fill="#A80036" points="151.4,337,159.0504,330.7974,153.6703,332.5451,151.9226,327.165,151.4,337" style="stroke: #A80036; stroke-width: 1.0;"/><text fill="#000000" font-family="sans-serif" font-size="13" lengthAdjust="spacingAndGlyphs" textLength="35" x="274" y="194.4951">«use»</text><!--MD5=[5f0b7d4f0ba913a92a07d415c2c7d4eb]
link Main to NombreRutFirma--><path d="M410.86,150.15 C396.9,204.02 375.05,288.27 361.97,338.71 " fill="none" id="Main-&gt;NombreRutFirma" style="stroke: #A80036; stroke-width: 1.0; stroke-dasharray: 7.0,7.0;"/><polygon fill="#A80036" points="360.65,343.78,366.783,336.0738,361.9063,338.9404,359.0397,334.0637,360.65,343.78" style="stroke: #A80036; stroke-width: 1.0;"/><text fill="#000000" font-family="sans-serif" font-size="13" lengthAdjust="spacingAndGlyphs" textLength="35" x="403" y="194.4951">«use»</text><!--MD5=[79fe0eaf94be6a0bec13bbbf4a95b787]
link Main to Funcionario--><path d="M449.91,150.15 C463.63,176.97 481.19,211.31 498.56,245.26 " fill="none" id="Main-&gt;Funcionario" style="stroke: #A80036; stroke-width: 1.0; stroke-dasharray: 7.0,7.0;"/><polygon fill="#A80036" points="500.9,249.83,500.3774,239.995,498.6297,245.3751,493.2496,243.6274,500.9,249.83" style="stroke: #A80036; stroke-width: 1.0;"/><text fill="#000000" font-family="sans-serif" font-size="13" lengthAdjust="spacingAndGlyphs" textLength="35" x="471" y="194.4951">«use»</text><!--MD5=[3fe1bf4a1541b85447cb040480d2375f]
link Main to Repository--><path d="M613.18,150.05 C651.63,164.8 690.51,183.25 724,206 C762.81,232.37 797.93,270.89 824.71,305.08 " fill="none" id="Main-&gt;Repository" style="stroke: #A80036; stroke-width: 1.0; stroke-dasharray: 7.0,7.0;"/><polygon fill="#A80036" points="827.93,309.22,825.5548,299.6619,824.8573,305.2755,819.2436,304.5781,827.93,309.22" style="stroke: #A80036; stroke-width: 1.0;"/><text fill="#000000" font-family="sans-serif" font-size="13" lengthAdjust="spacingAndGlyphs" textLength="35" x="710" y="194.4951">«use»</text><!--MD5=[67c7c4b0edb7ad7ef338cd5f4dff2c25]
@startuml

class Main {
    {static} - log: Logger<Main>
    {static} + main(String[])
    {static} - sleep()
    {static} - getOrScrape(codigo: int, repo: Repository<Funcionario, Long>): Funcionario
}

package scraper {
    class DirectorioUCN {
        {static} - URL: String
        {static} + scrape(Integer): Ficha
        {static} - getText(Document, String): String
    }
    
    class Ficha <<Builder>> {
        - nombre: String
        - cargo: String
        - unidad: String
        - email: String
        - telefono: String
        - oficina: String
        - direccion: String
    }
    
    class NombreRutFirma {
        {static} - URL: String
        {static} + scrape(String): List<Rutificador>
    }
    
    class Rutificador <<Builder>> {
        - nombre: String
        - rut: String
        - sexo: String
        - direccion: String
        - comuna: String
    }

    NombreRutFirma +- - Rutificador
    DirectorioUCN +- - Ficha
}

package model {
    class Funcionario <<Entity>> {
        - id: Long
        - codigo: Integer
        - rut: String
        - nombre: String
        - email: String
        - cargo: String
        - unidad: String
        - oficina: String
        - direccionOficina: String
        - sexo: Sexo
        - direccion: String
        - comuna: String
        - telefonoFijo: String
        - telefonoMovil: String
        - status: Status
    }

    enum Sexo {
        MASCULINO,
        FEMENINO
    }
    
    enum Status {
        UCN_NOTFOUND,
        UCN_SCRAPED,
        NRF_NOTFOUND,
        NRF_SCRAPED,
        NRF_MANY,
        UPLOADED,
    }

    Funcionario - -> Sexo
    Funcionario - -> Status
}

package DAO {
    interface Repository<T, K> {
        + findAll(): List<T>
        + findAll(key: String, value: Object): List<T>
        + findById(id: K)
        + getQuery(): QueryBuilder<T, K>
        + create(t: T): boolean
        + update(t: T): boolean
        + delete(t: T): boolean
    }
    
    class RepositoryOrmLite<T, K> {
        {static} - log: Logger<Main>
        - theDao: Dao<T, K>
    }

    class TableUtils {
        {static} + createTableIfNotExists()
    }
    
    RepositoryOrmLite - -|> Repository
    RepositoryOrmLite ..> TableUtils: <<use>>
}

Main ..> DirectorioUCN: <<use>>
Main ..> NombreRutFirma: <<use>>
Main ..> Funcionario: <<use>>
Main ..> Repository: <<use>>

@enduml

PlantUML version 1.2020.09(Sun May 10 06:51:06 CLT 2020)
(GPL source distribution)
Java Runtime: OpenJDK Runtime Environment
JVM: OpenJDK 64-Bit Server VM
Java Version: 11.0.7+10-b944.20
Operating System: Windows 10
Default Encoding: Cp1252
Language: en
Country: US
--></g></svg>