<?xml version="1.0" encoding="UTF-8" standalone="no"?><svg xmlns="http://www.w3.org/2000/svg" xmlns:xlink="http://www.w3.org/1999/xlink" contentScriptType="application/ecmascript" contentStyleType="text/css" height="453.6px" preserveAspectRatio="none" style="width:723px;height:453px;" version="1.1" viewBox="0 0 723 453" width="723px" zoomAndPan="magnify"><defs><filter height="300%" id="f1hiunfv3obz8s" width="300%" x="-1" y="-1"><feGaussianBlur result="blurOut" stdDeviation="1.2"/><feColorMatrix in="blurOut" result="blurOut2" type="matrix" values="0 0 0 0 0 0 0 0 0 0 0 0 0 0 0 0 0 0 .4 0"/><feOffset dx="2.4" dy="2.4" in="blurOut2" result="blurOut3"/><feBlend in="SourceGraphic" in2="blurOut3" mode="normal"/></filter></defs><g><!--MD5=[b08720d16ae3d0f918a6760ea6187be0]
cluster scraper--><polygon fill="#FFFFFF" filter="url(#f1hiunfv3obz8s)" points="13.2,180.6,49.2,180.6,53.4,194.7656,275.4,194.7656,275.4,446.4,13.2,446.4,13.2,180.6" style="stroke: #000000; stroke-width: 0.8999999999999999;"/><line style="stroke: #000000; stroke-width: 0.8999999999999999;" x1="13.2" x2="53.4" y1="194.7656" y2="194.7656"/><text fill="#000000" font-family="sans-serif" font-size="8.4" font-weight="bold" lengthAdjust="spacingAndGlyphs" textLength="32.4" x="15.6" y="190.5199">scraper</text><!--MD5=[5d4cd377749310b66bf14896f5cd8d9b]
cluster model--><polygon fill="#FFFFFF" filter="url(#f1hiunfv3obz8s)" points="289.8,128.4,319.2,128.4,323.4,142.5656,434.4,142.5656,434.4,439.8,289.8,439.8,289.8,128.4" style="stroke: #000000; stroke-width: 0.8999999999999999;"/><line style="stroke: #000000; stroke-width: 0.8999999999999999;" x1="289.8" x2="323.4" y1="142.5656" y2="142.5656"/><text fill="#000000" font-family="sans-serif" font-size="8.4" font-weight="bold" lengthAdjust="spacingAndGlyphs" textLength="25.8" x="292.2" y="138.3199">model</text><!--MD5=[69f6aa72f6796478ce3447753d27545f]
cluster DAO--><polygon fill="#FFFFFF" filter="url(#f1hiunfv3obz8s)" points="448.8,14.7,470.4,14.7,474.6,28.8656,709.8,28.8656,709.8,282.3,448.8,282.3,448.8,14.7" style="stroke: #000000; stroke-width: 0.8999999999999999;"/><line style="stroke: #000000; stroke-width: 0.8999999999999999;" x1="448.8" x2="474.6" y1="28.8656" y2="28.8656"/><text fill="#000000" font-family="sans-serif" font-size="8.4" font-weight="bold" lengthAdjust="spacingAndGlyphs" textLength="18" x="451.2" y="24.6199">DAO</text><!--MD5=[f07d62b14bab589ddbff025339f79d15]
class DirectorioUCN--><rect fill="#FEFECE" filter="url(#f1hiunfv3obz8s)" height="53.7047" id="DirectorioUCN" style="stroke: #A80036; stroke-width: 0.8999999999999999;" width="111.6" x="22.8" y="202.2"/><ellipse cx="52.05" cy="211.8" fill="#ADD1B2" rx="6.6" ry="6.6" style="stroke: #A80036; stroke-width: 0.6;"/><path d="M53.25,209.7 Q53.3719,209.4 53.5125,209.25 Q53.6531,209.1 53.8125,209.1 Q54.0938,209.1 54.2719,209.2687 Q54.45,209.4375 54.45,209.8312 L54.45,210.7687 Q54.45,211.1625 54.2813,211.3312 Q54.1125,211.5 53.85,211.5 Q53.6156,211.5 53.4656,211.3969 Q53.3156,211.2938 53.25,211.0219 Q53.2219,210.8344 53.1188,210.7313 Q52.9313,210.5344 52.5938,210.4219 Q52.2563,210.3 51.9187,210.3 Q51.4969,210.3 51.1406,210.4688 Q50.7937,210.6375 50.5219,211.0125 Q50.25,211.3875 50.25,211.9031 L50.25,212.4562 Q50.25,213.075 50.7563,213.4875 Q51.2625,213.9 52.1625,213.9 Q52.6969,213.9 53.0719,213.7781 Q53.2875,213.7125 53.5313,213.4969 Q53.6906,213.375 53.775,213.3375 Q53.8594,213.3 53.9625,213.3 Q54.1594,213.3 54.3,213.4594 Q54.45,213.6094 54.45,213.825 Q54.45,214.0313 54.2438,214.275 Q53.9438,214.6313 53.4656,214.8281 Q52.8375,215.1 52.0688,215.1 Q51.1687,215.1 50.4469,214.7438 Q49.8656,214.4625 49.4531,213.8531 Q49.05,213.2438 49.05,212.5219 L49.05,211.8656 Q49.05,211.1156 49.4063,210.4594 Q49.7719,209.8031 50.4,209.4562 Q51.0375,209.1 51.75,209.1 Q52.1813,209.1 52.5563,209.25 Q52.9313,209.4 53.25,209.7 Z "/><text fill="#000000" font-family="sans-serif" font-size="7.2" lengthAdjust="spacingAndGlyphs" textLength="48" x="64.35" y="214.7461">DirectorioUCN</text><line style="stroke: #A80036; stroke-width: 0.8999999999999999;" x1="23.4" x2="133.8" y1="221.4" y2="221.4"/><rect fill="none" height="3.6" style="stroke: #C82930; stroke-width: 0.6;" width="3.6" x="27.6" y="226.2"/><text fill="#000000" font-family="sans-serif" font-size="6.6" lengthAdjust="spacingAndGlyphs" text-decoration="underline" textLength="32.4" x="34.8" y="230.6514">URL: String</text><line style="stroke: #A80036; stroke-width: 0.8999999999999999;" x1="23.4" x2="133.8" y1="234.5016" y2="234.5016"/><ellipse cx="29.4" cy="241.1016" fill="#84BE84" rx="1.8" ry="1.8" style="stroke: #038048; stroke-width: 0.6;"/><text fill="#000000" font-family="sans-serif" font-size="6.6" lengthAdjust="spacingAndGlyphs" text-decoration="underline" textLength="64.2" x="34.8" y="243.7529">scrape(Integer): Ficha</text><rect fill="#F24D5C" height="3.6" style="stroke: #C82930; stroke-width: 0.6;" width="3.6" x="27.6" y="247.6031"/><text fill="#000000" font-family="sans-serif" font-size="6.6" lengthAdjust="spacingAndGlyphs" text-decoration="underline" textLength="96" x="34.8" y="252.0545">getText(Document, String): String</text><!--MD5=[0587adf760024d04fa2c5edc0ad907c9]
class Ficha--><rect fill="#FEFECE" filter="url(#f1hiunfv3obz8s)" height="91.8234" id="Ficha" style="stroke: #A80036; stroke-width: 0.8999999999999999;" width="62.4" x="47.4" y="345"/><ellipse cx="62.61" cy="357.0563" fill="#ADD1B2" rx="6.6" ry="6.6" style="stroke: #A80036; stroke-width: 0.6;"/><path d="M63.81,354.9563 Q63.9319,354.6563 64.0725,354.5062 Q64.2131,354.3563 64.3725,354.3563 Q64.6537,354.3563 64.8319,354.525 Q65.01,354.6937 65.01,355.0875 L65.01,356.025 Q65.01,356.4188 64.8412,356.5875 Q64.6725,356.7562 64.41,356.7562 Q64.1756,356.7562 64.0256,356.6531 Q63.8756,356.55 63.81,356.2781 Q63.7819,356.0906 63.6787,355.9875 Q63.4912,355.7906 63.1537,355.6781 Q62.8163,355.5563 62.4787,355.5563 Q62.0569,355.5563 61.7006,355.725 Q61.3537,355.8938 61.0819,356.2688 Q60.81,356.6438 60.81,357.1594 L60.81,357.7125 Q60.81,358.3313 61.3163,358.7438 Q61.8225,359.1563 62.7225,359.1563 Q63.2569,359.1563 63.6319,359.0344 Q63.8475,358.9688 64.0912,358.7531 Q64.2506,358.6312 64.335,358.5938 Q64.4194,358.5563 64.5225,358.5563 Q64.7194,358.5563 64.86,358.7156 Q65.01,358.8656 65.01,359.0813 Q65.01,359.2875 64.8038,359.5313 Q64.5038,359.8875 64.0256,360.0844 Q63.3975,360.3563 62.6288,360.3563 Q61.7287,360.3563 61.0069,360 Q60.4256,359.7188 60.0131,359.1094 Q59.61,358.5 59.61,357.7781 L59.61,357.1219 Q59.61,356.3719 59.9662,355.7156 Q60.3319,355.0594 60.96,354.7125 Q61.5975,354.3563 62.31,354.3563 Q62.7412,354.3563 63.1162,354.5062 Q63.4912,354.6563 63.81,354.9563 Z "/><text fill="#000000" font-family="sans-serif" font-size="7.2" font-style="italic" lengthAdjust="spacingAndGlyphs" textLength="31.8" x="71.19" y="355.4742">«Builder»</text><text fill="#000000" font-family="sans-serif" font-size="7.2" lengthAdjust="spacingAndGlyphs" textLength="18" x="78.09" y="364.5305">Ficha</text><line style="stroke: #A80036; stroke-width: 0.8999999999999999;" x1="48" x2="109.2" y1="369.1125" y2="369.1125"/><rect fill="none" height="3.6" style="stroke: #C82930; stroke-width: 0.6;" width="3.6" x="52.2" y="373.9125"/><text fill="#000000" font-family="sans-serif" font-size="6.6" lengthAdjust="spacingAndGlyphs" textLength="42" x="59.4" y="378.3639">nombre: String</text><rect fill="none" height="3.6" style="stroke: #C82930; stroke-width: 0.6;" width="3.6" x="52.2" y="382.2141"/><text fill="#000000" font-family="sans-serif" font-size="6.6" lengthAdjust="spacingAndGlyphs" textLength="37.2" x="59.4" y="386.6654">cargo: String</text><rect fill="none" height="3.6" style="stroke: #C82930; stroke-width: 0.6;" width="3.6" x="52.2" y="390.5156"/><text fill="#000000" font-family="sans-serif" font-size="6.6" lengthAdjust="spacingAndGlyphs" textLength="39.6" x="59.4" y="394.967">unidad: String</text><rect fill="none" height="3.6" style="stroke: #C82930; stroke-width: 0.6;" width="3.6" x="52.2" y="398.8172"/><text fill="#000000" font-family="sans-serif" font-size="6.6" lengthAdjust="spacingAndGlyphs" textLength="34.8" x="59.4" y="403.2686">email: String</text><rect fill="none" height="3.6" style="stroke: #C82930; stroke-width: 0.6;" width="3.6" x="52.2" y="407.1188"/><text fill="#000000" font-family="sans-serif" font-size="6.6" lengthAdjust="spacingAndGlyphs" textLength="43.8" x="59.4" y="411.5701">telefono: String</text><rect fill="none" height="3.6" style="stroke: #C82930; stroke-width: 0.6;" width="3.6" x="52.2" y="415.4203"/><text fill="#000000" font-family="sans-serif" font-size="6.6" lengthAdjust="spacingAndGlyphs" textLength="39.6" x="59.4" y="419.8717">oficina: String</text><rect fill="none" height="3.6" style="stroke: #C82930; stroke-width: 0.6;" width="3.6" x="52.2" y="423.7219"/><text fill="#000000" font-family="sans-serif" font-size="6.6" lengthAdjust="spacingAndGlyphs" textLength="46.8" x="59.4" y="428.1732">direccion: String</text><line style="stroke: #A80036; stroke-width: 0.8999999999999999;" x1="48" x2="109.2" y1="432.0234" y2="432.0234"/><!--MD5=[9c83e8a36c8b91d421c11bb5e95af223]
class NombreRutFirma--><rect fill="#FEFECE" filter="url(#f1hiunfv3obz8s)" height="45.4031" id="NombreRutFirma" style="stroke: #A80036; stroke-width: 0.8999999999999999;" width="109.8" x="155.7" y="206.4"/><ellipse cx="179.55" cy="216" fill="#ADD1B2" rx="6.6" ry="6.6" style="stroke: #A80036; stroke-width: 0.6;"/><path d="M180.75,213.9 Q180.8719,213.6 181.0125,213.45 Q181.1531,213.3 181.3125,213.3 Q181.5938,213.3 181.7719,213.4688 Q181.95,213.6375 181.95,214.0313 L181.95,214.9688 Q181.95,215.3625 181.7813,215.5313 Q181.6125,215.7 181.35,215.7 Q181.1156,215.7 180.9656,215.5969 Q180.8156,215.4938 180.75,215.2219 Q180.7219,215.0344 180.6188,214.9313 Q180.4313,214.7344 180.0938,214.6219 Q179.7563,214.5 179.4188,214.5 Q178.9969,214.5 178.6406,214.6688 Q178.2938,214.8375 178.0219,215.2125 Q177.75,215.5875 177.75,216.1031 L177.75,216.6563 Q177.75,217.275 178.2563,217.6875 Q178.7625,218.1 179.6625,218.1 Q180.1969,218.1 180.5719,217.9781 Q180.7875,217.9125 181.0313,217.6969 Q181.1906,217.575 181.275,217.5375 Q181.3594,217.5 181.4625,217.5 Q181.6594,217.5 181.8,217.6594 Q181.95,217.8094 181.95,218.025 Q181.95,218.2313 181.7438,218.475 Q181.4438,218.8312 180.9656,219.0281 Q180.3375,219.3 179.5688,219.3 Q178.6688,219.3 177.9469,218.9438 Q177.3656,218.6625 176.9531,218.0531 Q176.55,217.4438 176.55,216.7219 L176.55,216.0656 Q176.55,215.3156 176.9063,214.6594 Q177.2719,214.0031 177.9,213.6563 Q178.5375,213.3 179.25,213.3 Q179.6813,213.3 180.0563,213.45 Q180.4313,213.6 180.75,213.9 Z "/><text fill="#000000" font-family="sans-serif" font-size="7.2" lengthAdjust="spacingAndGlyphs" textLength="57.6" x="191.25" y="218.9461">NombreRutFirma</text><line style="stroke: #A80036; stroke-width: 0.8999999999999999;" x1="156.3" x2="264.9" y1="225.6" y2="225.6"/><rect fill="none" height="3.6" style="stroke: #C82930; stroke-width: 0.6;" width="3.6" x="160.5" y="230.4"/><text fill="#000000" font-family="sans-serif" font-size="6.6" lengthAdjust="spacingAndGlyphs" text-decoration="underline" textLength="32.4" x="167.7" y="234.8514">URL: String</text><line style="stroke: #A80036; stroke-width: 0.8999999999999999;" x1="156.3" x2="264.9" y1="238.7016" y2="238.7016"/><ellipse cx="162.3" cy="245.3016" fill="#84BE84" rx="1.8" ry="1.8" style="stroke: #038048; stroke-width: 0.6;"/><text fill="#000000" font-family="sans-serif" font-size="6.6" lengthAdjust="spacingAndGlyphs" text-decoration="underline" textLength="94.2" x="167.7" y="247.9529">scrape(String): List&lt;Rutificador&gt;</text><!--MD5=[0d0015e8f48cd77dcb9f429c2ad2f210]
class Rutificador--><rect fill="#FEFECE" filter="url(#f1hiunfv3obz8s)" height="75.2203" id="Rutificador" style="stroke: #A80036; stroke-width: 0.8999999999999999;" width="62.4" x="179.4" y="353.4"/><ellipse cx="191.91" cy="365.4563" fill="#ADD1B2" rx="6.6" ry="6.6" style="stroke: #A80036; stroke-width: 0.6;"/><path d="M193.11,363.3563 Q193.2319,363.0563 193.3725,362.9063 Q193.5131,362.7562 193.6725,362.7562 Q193.9538,362.7562 194.1319,362.925 Q194.31,363.0938 194.31,363.4875 L194.31,364.425 Q194.31,364.8187 194.1413,364.9875 Q193.9725,365.1563 193.71,365.1563 Q193.4756,365.1563 193.3256,365.0531 Q193.1756,364.95 193.11,364.6781 Q193.0819,364.4906 192.9788,364.3875 Q192.7913,364.1906 192.4538,364.0781 Q192.1163,363.9563 191.7788,363.9563 Q191.3569,363.9563 191.0006,364.125 Q190.6538,364.2938 190.3819,364.6688 Q190.11,365.0438 190.11,365.5594 L190.11,366.1125 Q190.11,366.7313 190.6163,367.1438 Q191.1225,367.5563 192.0225,367.5563 Q192.5569,367.5563 192.9319,367.4344 Q193.1475,367.3688 193.3913,367.1531 Q193.5506,367.0313 193.635,366.9938 Q193.7194,366.9563 193.8225,366.9563 Q194.0194,366.9563 194.16,367.1156 Q194.31,367.2656 194.31,367.4813 Q194.31,367.6875 194.1038,367.9313 Q193.8038,368.2875 193.3256,368.4844 Q192.6975,368.7562 191.9288,368.7562 Q191.0288,368.7562 190.3069,368.4 Q189.7256,368.1188 189.3131,367.5094 Q188.91,366.9 188.91,366.1781 L188.91,365.5219 Q188.91,364.7719 189.2663,364.1156 Q189.6319,363.4594 190.26,363.1125 Q190.8975,362.7562 191.61,362.7562 Q192.0413,362.7562 192.4163,362.9063 Q192.7913,363.0563 193.11,363.3563 Z "/><text fill="#000000" font-family="sans-serif" font-size="7.2" font-style="italic" lengthAdjust="spacingAndGlyphs" textLength="31.8" x="202.89" y="363.8742">«Builder»</text><text fill="#000000" font-family="sans-serif" font-size="7.2" lengthAdjust="spacingAndGlyphs" textLength="35.4" x="201.09" y="372.9305">Rutificador</text><line style="stroke: #A80036; stroke-width: 0.8999999999999999;" x1="180" x2="241.2" y1="377.5125" y2="377.5125"/><rect fill="none" height="3.6" style="stroke: #C82930; stroke-width: 0.6;" width="3.6" x="184.2" y="382.3125"/><text fill="#000000" font-family="sans-serif" font-size="6.6" lengthAdjust="spacingAndGlyphs" textLength="42" x="191.4" y="386.7639">nombre: String</text><rect fill="none" height="3.6" style="stroke: #C82930; stroke-width: 0.6;" width="3.6" x="184.2" y="390.6141"/><text fill="#000000" font-family="sans-serif" font-size="6.6" lengthAdjust="spacingAndGlyphs" textLength="28.2" x="191.4" y="395.0654">rut: String</text><rect fill="none" height="3.6" style="stroke: #C82930; stroke-width: 0.6;" width="3.6" x="184.2" y="398.9156"/><text fill="#000000" font-family="sans-serif" font-size="6.6" lengthAdjust="spacingAndGlyphs" textLength="34.8" x="191.4" y="403.367">sexo: String</text><rect fill="none" height="3.6" style="stroke: #C82930; stroke-width: 0.6;" width="3.6" x="184.2" y="407.2172"/><text fill="#000000" font-family="sans-serif" font-size="6.6" lengthAdjust="spacingAndGlyphs" textLength="46.8" x="191.4" y="411.6686">direccion: String</text><rect fill="none" height="3.6" style="stroke: #C82930; stroke-width: 0.6;" width="3.6" x="184.2" y="415.5188"/><text fill="#000000" font-family="sans-serif" font-size="6.6" lengthAdjust="spacingAndGlyphs" textLength="43.2" x="191.4" y="419.9701">comuna: String</text><line style="stroke: #A80036; stroke-width: 0.8999999999999999;" x1="180" x2="241.2" y1="423.8203" y2="423.8203"/><!--MD5=[8f63dadf5c643e74a34e53c8f0a15d23]
class Persona--><rect fill="#FEFECE" filter="url(#f1hiunfv3obz8s)" height="158.2359" id="Persona" style="stroke: #A80036; stroke-width: 0.8999999999999999;" width="82.8" x="299.4" y="150"/><ellipse cx="324.33" cy="162.0563" fill="#ADD1B2" rx="6.6" ry="6.6" style="stroke: #A80036; stroke-width: 0.6;"/><path d="M325.53,159.9562 Q325.6519,159.6563 325.7925,159.5063 Q325.9331,159.3563 326.0925,159.3563 Q326.3738,159.3563 326.5519,159.525 Q326.73,159.6938 326.73,160.0875 L326.73,161.025 Q326.73,161.4188 326.5613,161.5875 Q326.3925,161.7563 326.13,161.7563 Q325.8956,161.7563 325.7456,161.6531 Q325.5956,161.55 325.53,161.2781 Q325.5019,161.0906 325.3987,160.9875 Q325.2112,160.7906 324.8738,160.6781 Q324.5362,160.5563 324.1987,160.5563 Q323.7769,160.5563 323.4206,160.725 Q323.0737,160.8937 322.8019,161.2687 Q322.53,161.6437 322.53,162.1594 L322.53,162.7125 Q322.53,163.3312 323.0362,163.7438 Q323.5425,164.1563 324.4425,164.1563 Q324.9769,164.1563 325.3519,164.0344 Q325.5675,163.9688 325.8113,163.7531 Q325.9706,163.6313 326.055,163.5938 Q326.1394,163.5563 326.2425,163.5563 Q326.4394,163.5563 326.58,163.7156 Q326.73,163.8656 326.73,164.0812 Q326.73,164.2875 326.5237,164.5313 Q326.2237,164.8875 325.7456,165.0844 Q325.1175,165.3563 324.3487,165.3563 Q323.4487,165.3563 322.7269,165 Q322.1456,164.7188 321.7331,164.1094 Q321.33,163.5 321.33,162.7781 L321.33,162.1219 Q321.33,161.3719 321.6863,160.7156 Q322.0519,160.0594 322.68,159.7125 Q323.3175,159.3563 324.03,159.3563 Q324.4612,159.3563 324.8362,159.5063 Q325.2112,159.6563 325.53,159.9562 Z "/><text fill="#000000" font-family="sans-serif" font-size="7.2" font-style="italic" lengthAdjust="spacingAndGlyphs" textLength="26.4" x="337.17" y="160.4742">«Entity»</text><text fill="#000000" font-family="sans-serif" font-size="7.2" lengthAdjust="spacingAndGlyphs" textLength="28.2" x="336.27" y="169.5305">Persona</text><line style="stroke: #A80036; stroke-width: 0.8999999999999999;" x1="300" x2="381.6" y1="174.1125" y2="174.1125"/><rect fill="none" height="3.6" style="stroke: #C82930; stroke-width: 0.6;" width="3.6" x="304.2" y="178.9125"/><text fill="#000000" font-family="sans-serif" font-size="6.6" lengthAdjust="spacingAndGlyphs" textLength="22.8" x="311.4" y="183.3639">id: Long</text><rect fill="none" height="3.6" style="stroke: #C82930; stroke-width: 0.6;" width="3.6" x="304.2" y="187.2141"/><text fill="#000000" font-family="sans-serif" font-size="6.6" lengthAdjust="spacingAndGlyphs" textLength="42.6" x="311.4" y="191.6654">codigo: Integer</text><rect fill="none" height="3.6" style="stroke: #C82930; stroke-width: 0.6;" width="3.6" x="304.2" y="195.5156"/><text fill="#000000" font-family="sans-serif" font-size="6.6" lengthAdjust="spacingAndGlyphs" textLength="28.2" x="311.4" y="199.967">rut: String</text><rect fill="none" height="3.6" style="stroke: #C82930; stroke-width: 0.6;" width="3.6" x="304.2" y="203.8172"/><text fill="#000000" font-family="sans-serif" font-size="6.6" lengthAdjust="spacingAndGlyphs" textLength="42" x="311.4" y="208.2686">nombre: String</text><rect fill="none" height="3.6" style="stroke: #C82930; stroke-width: 0.6;" width="3.6" x="304.2" y="212.1188"/><text fill="#000000" font-family="sans-serif" font-size="6.6" lengthAdjust="spacingAndGlyphs" textLength="34.8" x="311.4" y="216.5701">email: String</text><rect fill="none" height="3.6" style="stroke: #C82930; stroke-width: 0.6;" width="3.6" x="304.2" y="220.4203"/><text fill="#000000" font-family="sans-serif" font-size="6.6" lengthAdjust="spacingAndGlyphs" textLength="37.2" x="311.4" y="224.8717">cargo: String</text><rect fill="none" height="3.6" style="stroke: #C82930; stroke-width: 0.6;" width="3.6" x="304.2" y="228.7219"/><text fill="#000000" font-family="sans-serif" font-size="6.6" lengthAdjust="spacingAndGlyphs" textLength="39.6" x="311.4" y="233.1732">unidad: String</text><rect fill="none" height="3.6" style="stroke: #C82930; stroke-width: 0.6;" width="3.6" x="304.2" y="237.0234"/><text fill="#000000" font-family="sans-serif" font-size="6.6" lengthAdjust="spacingAndGlyphs" textLength="39.6" x="311.4" y="241.4748">oficina: String</text><rect fill="none" height="3.6" style="stroke: #C82930; stroke-width: 0.6;" width="3.6" x="304.2" y="245.325"/><text fill="#000000" font-family="sans-serif" font-size="6.6" lengthAdjust="spacingAndGlyphs" textLength="67.2" x="311.4" y="249.7764">direccionOficina: String</text><rect fill="none" height="3.6" style="stroke: #C82930; stroke-width: 0.6;" width="3.6" x="304.2" y="253.6266"/><text fill="#000000" font-family="sans-serif" font-size="6.6" lengthAdjust="spacingAndGlyphs" textLength="33" x="311.4" y="258.0779">sexo: Sexo</text><rect fill="none" height="3.6" style="stroke: #C82930; stroke-width: 0.6;" width="3.6" x="304.2" y="261.9281"/><text fill="#000000" font-family="sans-serif" font-size="6.6" lengthAdjust="spacingAndGlyphs" textLength="46.8" x="311.4" y="266.3795">direccion: String</text><rect fill="none" height="3.6" style="stroke: #C82930; stroke-width: 0.6;" width="3.6" x="304.2" y="270.2297"/><text fill="#000000" font-family="sans-serif" font-size="6.6" lengthAdjust="spacingAndGlyphs" textLength="43.2" x="311.4" y="274.6811">comuna: String</text><rect fill="none" height="3.6" style="stroke: #C82930; stroke-width: 0.6;" width="3.6" x="304.2" y="278.5313"/><text fill="#000000" font-family="sans-serif" font-size="6.6" lengthAdjust="spacingAndGlyphs" textLength="53.4" x="311.4" y="282.9826">telefonoFijo: String</text><rect fill="none" height="3.6" style="stroke: #C82930; stroke-width: 0.6;" width="3.6" x="304.2" y="286.8328"/><text fill="#000000" font-family="sans-serif" font-size="6.6" lengthAdjust="spacingAndGlyphs" textLength="58.2" x="311.4" y="291.2842">telefonoMovil: String</text><rect fill="none" height="3.6" style="stroke: #C82930; stroke-width: 0.6;" width="3.6" x="304.2" y="295.1344"/><text fill="#000000" font-family="sans-serif" font-size="6.6" lengthAdjust="spacingAndGlyphs" textLength="40.2" x="311.4" y="299.5857">status: Status</text><line style="stroke: #A80036; stroke-width: 0.8999999999999999;" x1="300" x2="381.6" y1="303.4359" y2="303.4359"/><!--MD5=[2bd084d4f9b8ff009b6d8ba013c0f313]
class Sexo--><rect fill="#FEFECE" filter="url(#f1hiunfv3obz8s)" height="45.4031" id="Sexo" style="stroke: #A80036; stroke-width: 0.8999999999999999;" width="45" x="299.7" y="368.1"/><ellipse cx="313.02" cy="377.7" fill="#EB937F" rx="6.6" ry="6.6" style="stroke: #A80036; stroke-width: 0.6;"/><path d="M312.12,378.3 L312.12,379.5 L314.52,379.5 L314.52,378.9 L314.52,378.6094 L314.895,378.3 L315.12,378.3 L315.345,378.3 L315.72,378.6094 L315.72,378.9 L315.72,380.7 L310.92,380.7 L310.6294,380.7 L310.32,380.325 L310.32,380.1 L310.32,379.875 L310.6294,379.5 L310.92,379.5 L310.92,379.5 L310.92,375.9 L310.92,375.9 L310.6294,375.9 L310.32,375.525 L310.32,375.3 L310.32,375.075 L310.6294,374.7 L310.92,374.7 L315.72,374.7 L315.72,376.5 L315.72,376.7906 L315.345,377.1 L315.12,377.1 L314.895,377.1 L314.52,376.7906 L314.52,376.5 L314.52,375.9 L312.12,375.9 L312.12,377.1 L312.72,377.1 L312.72,376.8094 L312.72,376.8094 L313.095,376.5 L313.32,376.5 L313.545,376.5 L313.92,376.8094 L313.92,377.1 L313.92,378.3 L313.92,378.5906 L313.545,378.9 L313.545,378.9 L313.32,378.9 L313.095,378.9 L312.72,378.5906 L312.72,378.5906 L312.72,378.3 L312.12,378.3 Z "/><text fill="#000000" font-family="sans-serif" font-size="7.2" lengthAdjust="spacingAndGlyphs" textLength="16.2" x="322.38" y="380.6461">Sexo</text><line style="stroke: #A80036; stroke-width: 0.8999999999999999;" x1="300.3" x2="344.1" y1="387.3" y2="387.3"/><text fill="#000000" font-family="sans-serif" font-size="6.6" lengthAdjust="spacingAndGlyphs" textLength="37.8" x="303.3" y="396.5514">MASCULINO,</text><text fill="#000000" font-family="sans-serif" font-size="6.6" lengthAdjust="spacingAndGlyphs" textLength="30" x="303.3" y="404.8529">FEMENINO</text><line style="stroke: #A80036; stroke-width: 0.8999999999999999;" x1="300.3" x2="344.1" y1="408.7031" y2="408.7031"/><!--MD5=[e3d83ec5fd90ea9f3f2bfe265cb53458]
class Status--><rect fill="#FEFECE" filter="url(#f1hiunfv3obz8s)" height="78.6094" id="Status" style="stroke: #A80036; stroke-width: 0.8999999999999999;" width="58.8" x="366" y="351.6"/><ellipse cx="383.37" cy="361.2" fill="#EB937F" rx="6.6" ry="6.6" style="stroke: #A80036; stroke-width: 0.6;"/><path d="M382.47,361.8 L382.47,363 L384.87,363 L384.87,362.4 L384.87,362.1094 L385.245,361.8 L385.47,361.8 L385.695,361.8 L386.07,362.1094 L386.07,362.4 L386.07,364.2 L381.27,364.2 L380.9794,364.2 L380.67,363.825 L380.67,363.6 L380.67,363.375 L380.9794,363 L381.27,363 L381.27,363 L381.27,359.4 L381.27,359.4 L380.9794,359.4 L380.67,359.025 L380.67,358.8 L380.67,358.575 L380.9794,358.2 L381.27,358.2 L386.07,358.2 L386.07,360 L386.07,360.2906 L385.695,360.6 L385.47,360.6 L385.245,360.6 L384.87,360.2906 L384.87,360 L384.87,359.4 L382.47,359.4 L382.47,360.6 L383.07,360.6 L383.07,360.3094 L383.07,360.3094 L383.445,360 L383.67,360 L383.895,360 L384.27,360.3094 L384.27,360.6 L384.27,361.8 L384.27,362.0906 L383.895,362.4 L383.895,362.4 L383.67,362.4 L383.445,362.4 L383.07,362.0906 L383.07,362.0906 L383.07,361.8 L382.47,361.8 Z "/><text fill="#000000" font-family="sans-serif" font-size="7.2" lengthAdjust="spacingAndGlyphs" textLength="21" x="393.63" y="364.1461">Status</text><line style="stroke: #A80036; stroke-width: 0.8999999999999999;" x1="366.6" x2="424.2" y1="370.8" y2="370.8"/><text fill="#000000" font-family="sans-serif" font-size="6.6" lengthAdjust="spacingAndGlyphs" textLength="51.6" x="369.6" y="380.0514">UCN_NOTFOUND,</text><text fill="#000000" font-family="sans-serif" font-size="6.6" lengthAdjust="spacingAndGlyphs" textLength="46.8" x="369.6" y="388.3529">UCN_SCRAPED,</text><text fill="#000000" font-family="sans-serif" font-size="6.6" lengthAdjust="spacingAndGlyphs" textLength="51" x="369.6" y="396.6545">NRF_NOTFOUND,</text><text fill="#000000" font-family="sans-serif" font-size="6.6" lengthAdjust="spacingAndGlyphs" textLength="46.2" x="369.6" y="404.9561">NRF_SCRAPED,</text><text fill="#000000" font-family="sans-serif" font-size="6.6" lengthAdjust="spacingAndGlyphs" textLength="36" x="369.6" y="413.2576">NRF_MANY,</text><text fill="#000000" font-family="sans-serif" font-size="6.6" lengthAdjust="spacingAndGlyphs" textLength="34.8" x="369.6" y="421.5592">UPLOADED,</text><line style="stroke: #A80036; stroke-width: 0.8999999999999999;" x1="366.6" x2="424.2" y1="425.4094" y2="425.4094"/><!--MD5=[c05f8d4c5007184b0fb1ea93cdb8d9fe]
class Repository--><rect fill="#FEFECE" filter="url(#f1hiunfv3obz8s)" height="86.9109" id="Repository" style="stroke: #A80036; stroke-width: 0.8999999999999999;" width="135" x="458.7" y="185.7"/><ellipse cx="498.45" cy="195.3" fill="#B4A7E5" rx="6.6" ry="6.6" style="stroke: #A80036; stroke-width: 0.6;"/><path d="M499.05,193.5 L499.05,197.1 L500.25,197.1 L500.5406,197.1 L500.85,197.475 L500.85,197.7 L500.85,197.925 L500.5406,198.3 L500.25,198.3 L496.65,198.3 L496.3594,198.3 L496.05,197.925 L496.05,197.7 L496.05,197.475 L496.3594,197.1 L496.65,197.1 L497.85,197.1 L497.85,193.5 L496.65,193.5 L496.3594,193.5 L496.05,193.125 L496.05,192.9 L496.05,192.675 L496.3594,192.3 L496.65,192.3 L500.25,192.3 L500.5406,192.3 L500.85,192.675 L500.85,192.9 L500.85,193.125 L500.5406,193.5 L500.25,193.5 L499.05,193.5 Z "/><text fill="#000000" font-family="sans-serif" font-size="7.2" font-style="italic" lengthAdjust="spacingAndGlyphs" textLength="35.4" x="510.75" y="198.2461">Repository</text><rect fill="#FFFFFF" height="10.2563" style="stroke: #000000; stroke-width: 0.6; stroke-dasharray: 2.0,2.0;" width="13.8" x="581.7" y="183.9"/><text fill="#000000" font-family="sans-serif" font-size="7.2" font-style="italic" lengthAdjust="spacingAndGlyphs" textLength="12.6" x="582.3" y="191.9742">T, K</text><line style="stroke: #A80036; stroke-width: 0.8999999999999999;" x1="459.3" x2="593.1" y1="204.9" y2="204.9"/><line style="stroke: #A80036; stroke-width: 0.8999999999999999;" x1="459.3" x2="593.1" y1="209.7" y2="209.7"/><ellipse cx="465.3" cy="216.3" fill="#84BE84" rx="1.8" ry="1.8" style="stroke: #038048; stroke-width: 0.6;"/><text fill="#000000" font-family="sans-serif" font-size="6.6" lengthAdjust="spacingAndGlyphs" textLength="47.4" x="470.7" y="218.9514">findAll(): List&lt;T&gt;</text><ellipse cx="465.3" cy="224.6016" fill="#84BE84" rx="1.8" ry="1.8" style="stroke: #038048; stroke-width: 0.6;"/><text fill="#000000" font-family="sans-serif" font-size="6.6" lengthAdjust="spacingAndGlyphs" textLength="119.4" x="470.7" y="227.2529">findAll(key: String, value: Object): List&lt;T&gt;</text><ellipse cx="465.3" cy="232.9031" fill="#84BE84" rx="1.8" ry="1.8" style="stroke: #038048; stroke-width: 0.6;"/><text fill="#000000" font-family="sans-serif" font-size="6.6" lengthAdjust="spacingAndGlyphs" textLength="40.8" x="470.7" y="235.5545">findById(id: K)</text><ellipse cx="465.3" cy="241.2047" fill="#84BE84" rx="1.8" ry="1.8" style="stroke: #038048; stroke-width: 0.6;"/><text fill="#000000" font-family="sans-serif" font-size="6.6" lengthAdjust="spacingAndGlyphs" textLength="91.8" x="470.7" y="243.8561">getQuery(): QueryBuilder&lt;T, K&gt;</text><ellipse cx="465.3" cy="249.5063" fill="#84BE84" rx="1.8" ry="1.8" style="stroke: #038048; stroke-width: 0.6;"/><text fill="#000000" font-family="sans-serif" font-size="6.6" lengthAdjust="spacingAndGlyphs" textLength="58.8" x="470.7" y="252.1576">create(t: T): boolean</text><ellipse cx="465.3" cy="257.8078" fill="#84BE84" rx="1.8" ry="1.8" style="stroke: #038048; stroke-width: 0.6;"/><text fill="#000000" font-family="sans-serif" font-size="6.6" lengthAdjust="spacingAndGlyphs" textLength="60" x="470.7" y="260.4592">update(t: T): boolean</text><ellipse cx="465.3" cy="266.1094" fill="#84BE84" rx="1.8" ry="1.8" style="stroke: #038048; stroke-width: 0.6;"/><text fill="#000000" font-family="sans-serif" font-size="6.6" lengthAdjust="spacingAndGlyphs" textLength="57.6" x="470.7" y="268.7607">delete(t: T): boolean</text><!--MD5=[0fe309ad46508f8321401ae5b24b3bfe]
class RepositoryOrmLite--><rect fill="#FEFECE" filter="url(#f1hiunfv3obz8s)" height="45.4031" id="RepositoryOrmLite" style="stroke: #A80036; stroke-width: 0.8999999999999999;" width="96" x="541.2" y="36.3"/><ellipse cx="550.2" cy="45.9" fill="#ADD1B2" rx="6.6" ry="6.6" style="stroke: #A80036; stroke-width: 0.6;"/><path d="M551.4,43.8 Q551.5219,43.5 551.6625,43.35 Q551.8031,43.2 551.9625,43.2 Q552.2438,43.2 552.4219,43.3688 Q552.6,43.5375 552.6,43.9313 L552.6,44.8688 Q552.6,45.2625 552.4313,45.4313 Q552.2625,45.6 552,45.6 Q551.7656,45.6 551.6156,45.4969 Q551.4656,45.3938 551.4,45.1219 Q551.3719,44.9344 551.2688,44.8313 Q551.0813,44.6344 550.7438,44.5219 Q550.4063,44.4 550.0688,44.4 Q549.6469,44.4 549.2906,44.5688 Q548.9438,44.7375 548.6719,45.1125 Q548.4,45.4875 548.4,46.0031 L548.4,46.5563 Q548.4,47.175 548.9063,47.5875 Q549.4125,48 550.3125,48 Q550.8469,48 551.2219,47.8781 Q551.4375,47.8125 551.6813,47.5969 Q551.8406,47.475 551.925,47.4375 Q552.0094,47.4 552.1125,47.4 Q552.3094,47.4 552.45,47.5594 Q552.6,47.7094 552.6,47.925 Q552.6,48.1313 552.3938,48.375 Q552.0938,48.7312 551.6156,48.9281 Q550.9875,49.2 550.2188,49.2 Q549.3188,49.2 548.5969,48.8438 Q548.0156,48.5625 547.6031,47.9531 Q547.2,47.3438 547.2,46.6219 L547.2,45.9656 Q547.2,45.2156 547.5563,44.5594 Q547.9219,43.9031 548.55,43.5563 Q549.1875,43.2 549.9,43.2 Q550.3313,43.2 550.7063,43.35 Q551.0813,43.5 551.4,43.8 Z "/><text fill="#000000" font-family="sans-serif" font-size="7.2" lengthAdjust="spacingAndGlyphs" textLength="61.8" x="558.6" y="48.8461">RepositoryOrmLite</text><rect fill="#FFFFFF" height="10.2563" style="stroke: #000000; stroke-width: 0.6; stroke-dasharray: 2.0,2.0;" width="13.8" x="625.2" y="34.5"/><text fill="#000000" font-family="sans-serif" font-size="7.2" font-style="italic" lengthAdjust="spacingAndGlyphs" textLength="12.6" x="625.8" y="42.5742">T, K</text><line style="stroke: #A80036; stroke-width: 0.8999999999999999;" x1="541.8" x2="636.6" y1="55.5" y2="55.5"/><rect fill="none" height="3.6" style="stroke: #C82930; stroke-width: 0.6;" width="3.6" x="546" y="60.3"/><text fill="#000000" font-family="sans-serif" font-size="6.6" lengthAdjust="spacingAndGlyphs" text-decoration="underline" textLength="52.8" x="553.2" y="64.7514">log: Logger&lt;Main&gt;</text><rect fill="none" height="3.6" style="stroke: #C82930; stroke-width: 0.6;" width="3.6" x="546" y="68.6016"/><text fill="#000000" font-family="sans-serif" font-size="6.6" lengthAdjust="spacingAndGlyphs" textLength="54" x="553.2" y="73.0529">theDao: Dao&lt;T, K&gt;</text><line style="stroke: #A80036; stroke-width: 0.8999999999999999;" x1="541.8" x2="636.6" y1="76.9031" y2="76.9031"/><!--MD5=[f733cf00a4892e2d83b2489249445920]
class TableUtils--><rect fill="#FEFECE" filter="url(#f1hiunfv3obz8s)" height="37.1016" id="TableUtils" style="stroke: #A80036; stroke-width: 0.8999999999999999;" width="85.2" x="615" y="210.6"/><ellipse cx="638.58" cy="220.2" fill="#ADD1B2" rx="6.6" ry="6.6" style="stroke: #A80036; stroke-width: 0.6;"/><path d="M639.78,218.1 Q639.9019,217.8 640.0425,217.65 Q640.1831,217.5 640.3425,217.5 Q640.6238,217.5 640.8019,217.6688 Q640.98,217.8375 640.98,218.2313 L640.98,219.1688 Q640.98,219.5625 640.8113,219.7313 Q640.6425,219.9 640.38,219.9 Q640.1456,219.9 639.9956,219.7969 Q639.8456,219.6938 639.78,219.4219 Q639.7519,219.2344 639.6488,219.1313 Q639.4613,218.9344 639.1238,218.8219 Q638.7863,218.7 638.4487,218.7 Q638.0269,218.7 637.6706,218.8688 Q637.3237,219.0375 637.0519,219.4125 Q636.78,219.7875 636.78,220.3031 L636.78,220.8563 Q636.78,221.475 637.2863,221.8875 Q637.7925,222.3 638.6925,222.3 Q639.2269,222.3 639.6019,222.1781 Q639.8175,222.1125 640.0613,221.8969 Q640.2206,221.775 640.305,221.7375 Q640.3894,221.7 640.4925,221.7 Q640.6894,221.7 640.83,221.8594 Q640.98,222.0094 640.98,222.225 Q640.98,222.4313 640.7738,222.675 Q640.4738,223.0313 639.9956,223.2281 Q639.3675,223.5 638.5988,223.5 Q637.6987,223.5 636.9769,223.1437 Q636.3956,222.8625 635.9831,222.2531 Q635.58,221.6437 635.58,220.9219 L635.58,220.2656 Q635.58,219.5156 635.9363,218.8594 Q636.3019,218.2031 636.93,217.8563 Q637.5675,217.5 638.28,217.5 Q638.7113,217.5 639.0863,217.65 Q639.4613,217.8 639.78,218.1 Z "/><text fill="#000000" font-family="sans-serif" font-size="7.2" lengthAdjust="spacingAndGlyphs" textLength="33.6" x="650.22" y="223.1461">TableUtils</text><line style="stroke: #A80036; stroke-width: 0.8999999999999999;" x1="615.6" x2="699.6" y1="229.8" y2="229.8"/><line style="stroke: #A80036; stroke-width: 0.8999999999999999;" x1="615.6" x2="699.6" y1="234.6" y2="234.6"/><ellipse cx="621.6" cy="241.2" fill="#84BE84" rx="1.8" ry="1.8" style="stroke: #038048; stroke-width: 0.6;"/><text fill="#000000" font-family="sans-serif" font-size="6.6" lengthAdjust="spacingAndGlyphs" text-decoration="underline" textLength="69.6" x="627" y="243.8514">createTableIfNotExists()</text><!--MD5=[84718776d214be480e4c259efcb737fc]
class Main--><rect fill="#FEFECE" filter="url(#f1hiunfv3obz8s)" height="62.0062" id="Main" style="stroke: #A80036; stroke-width: 0.8999999999999999;" width="215.4" x="146.7" y="28.2"/><ellipse cx="244.05" cy="37.8" fill="#ADD1B2" rx="6.6" ry="6.6" style="stroke: #A80036; stroke-width: 0.6;"/><path d="M245.25,35.7 Q245.3719,35.4 245.5125,35.25 Q245.6531,35.1 245.8125,35.1 Q246.0938,35.1 246.2719,35.2688 Q246.45,35.4375 246.45,35.8313 L246.45,36.7688 Q246.45,37.1625 246.2813,37.3313 Q246.1125,37.5 245.85,37.5 Q245.6156,37.5 245.4656,37.3969 Q245.3156,37.2937 245.25,37.0219 Q245.2219,36.8344 245.1187,36.7312 Q244.9312,36.5344 244.5938,36.4219 Q244.2563,36.3 243.9188,36.3 Q243.4969,36.3 243.1406,36.4688 Q242.7938,36.6375 242.5219,37.0125 Q242.25,37.3875 242.25,37.9031 L242.25,38.4563 Q242.25,39.075 242.7563,39.4875 Q243.2625,39.9 244.1625,39.9 Q244.6969,39.9 245.0719,39.7781 Q245.2875,39.7125 245.5313,39.4969 Q245.6906,39.375 245.775,39.3375 Q245.8594,39.3 245.9625,39.3 Q246.1594,39.3 246.3,39.4594 Q246.45,39.6094 246.45,39.825 Q246.45,40.0313 246.2437,40.275 Q245.9438,40.6313 245.4656,40.8281 Q244.8375,41.1 244.0688,41.1 Q243.1688,41.1 242.4469,40.7438 Q241.8656,40.4625 241.4531,39.8531 Q241.05,39.2438 241.05,38.5219 L241.05,37.8656 Q241.05,37.1156 241.4063,36.4594 Q241.7719,35.8031 242.4,35.4563 Q243.0375,35.1 243.75,35.1 Q244.1812,35.1 244.5562,35.25 Q244.9312,35.4 245.25,35.7 Z "/><text fill="#000000" font-family="sans-serif" font-size="7.2" lengthAdjust="spacingAndGlyphs" textLength="15.6" x="256.35" y="40.7461">Main</text><line style="stroke: #A80036; stroke-width: 0.8999999999999999;" x1="147.3" x2="361.5" y1="47.4" y2="47.4"/><rect fill="none" height="3.6" style="stroke: #C82930; stroke-width: 0.6;" width="3.6" x="151.5" y="52.2"/><text fill="#000000" font-family="sans-serif" font-size="6.6" lengthAdjust="spacingAndGlyphs" text-decoration="underline" textLength="52.8" x="158.7" y="56.6514">log: Logger&lt;Main&gt;</text><line style="stroke: #A80036; stroke-width: 0.8999999999999999;" x1="147.3" x2="361.5" y1="60.5016" y2="60.5016"/><ellipse cx="153.3" cy="67.1016" fill="#84BE84" rx="1.8" ry="1.8" style="stroke: #038048; stroke-width: 0.6;"/><text fill="#000000" font-family="sans-serif" font-size="6.6" lengthAdjust="spacingAndGlyphs" text-decoration="underline" textLength="38.4" x="158.7" y="69.7529">main(String[])</text><rect fill="#F24D5C" height="3.6" style="stroke: #C82930; stroke-width: 0.6;" width="3.6" x="151.5" y="73.6031"/><text fill="#000000" font-family="sans-serif" font-size="6.6" lengthAdjust="spacingAndGlyphs" text-decoration="underline" textLength="20.4" x="158.7" y="78.0545">sleep()</text><rect fill="#F24D5C" height="3.6" style="stroke: #C82930; stroke-width: 0.6;" width="3.6" x="151.5" y="81.9047"/><text fill="#000000" font-family="sans-serif" font-size="6.6" lengthAdjust="spacingAndGlyphs" text-decoration="underline" textLength="199.8" x="158.7" y="86.3561">getOrScrape(codigo: int, repo: Repository&lt;Persona, Long&gt;): Persona</text><!--MD5=[4293f839dc53cf7c13e004701db90715]
reverse link NombreRutFirma to Rutificador--><path d="M210.6,261.126 C210.6,287.568 210.6,325.464 210.6,353.376 " fill="none" id="NombreRutFirma&lt;-Rutificador" style="stroke: #A80036; stroke-width: 0.6;"/><ellipse cx="210.6" cy="256.914" fill="#FFFFFF" rx="4.8" ry="4.8" style="stroke: #A80036; stroke-width: 0.6;"/><line style="stroke: #A80036; stroke-width: 0.6;" x1="210.6" x2="210.6" y1="261.714" y2="252.114"/><line style="stroke: #A80036; stroke-width: 0.6;" x1="205.8" x2="215.4" y1="256.914" y2="256.914"/><!--MD5=[aebacbaf3a5aaa57ba0d25777dbfcaa4]
reverse link DirectorioUCN to Ficha--><path d="M78.6,265.368 C78.6,288.804 78.6,319.698 78.6,344.904 " fill="none" id="DirectorioUCN&lt;-Ficha" style="stroke: #A80036; stroke-width: 0.6;"/><ellipse cx="78.6" cy="261.102" fill="#FFFFFF" rx="4.8" ry="4.8" style="stroke: #A80036; stroke-width: 0.6;"/><line style="stroke: #A80036; stroke-width: 0.6;" x1="78.6" x2="78.6" y1="265.902" y2="256.302"/><line style="stroke: #A80036; stroke-width: 0.6;" x1="73.8" x2="83.4" y1="261.102" y2="261.102"/><!--MD5=[93eda055a1fdb4dab9fc4d9c53718769]
link Persona to Sexo--><path d="M331.692,308.406 C329.316,328.884 326.928,349.5 325.14,364.926 " fill="none" id="Persona-&gt;Sexo" style="stroke: #A80036; stroke-width: 0.6;"/><polygon fill="#A80036" points="324.792,367.944,327.7946,362.8544,325.1355,364.9637,323.0262,362.3047,324.792,367.944" style="stroke: #A80036; stroke-width: 0.6;"/><!--MD5=[aeb4ea0ab0f379d4a202da2c8c7aa69f]
link Persona to Status--><path d="M367.542,308.406 C372.27,322.302 377.016,336.264 381.222,348.624 " fill="none" id="Persona-&gt;Status" style="stroke: #A80036; stroke-width: 0.6;"/><polygon fill="#A80036" points="382.224,351.564,382.772,345.6801,381.265,348.7214,378.2238,347.2145,382.224,351.564" style="stroke: #A80036; stroke-width: 0.6;"/><!--MD5=[9fbbda9eb0d9e2ba2b319fec51d2e91c]
link RepositoryOrmLite to Repository--><path d="M580.902,81.954 C572.184,105.318 558.156,142.932 546.486,174.216 " fill="none" id="RepositoryOrmLite-&gt;Repository" style="stroke: #A80036; stroke-width: 0.6;"/><polygon fill="none" points="550.356,175.86,542.226,185.64,542.484,172.926,550.356,175.86" style="stroke: #A80036; stroke-width: 0.6;"/><!--MD5=[a45f1d55dd9a93012232fb8a759c381e]
link RepositoryOrmLite to TableUtils--><path d="M598.212,81.954 C611.49,114.738 636.126,175.572 649.104,207.612 " fill="none" id="RepositoryOrmLite-&gt;TableUtils" style="stroke: #A80036; stroke-width: 0.6; stroke-dasharray: 7.0,7.0;"/><polygon fill="#A80036" points="650.244,210.432,650.4292,204.5256,649.1121,207.6537,645.984,206.3366,650.244,210.432" style="stroke: #A80036; stroke-width: 0.6;"/><text fill="#000000" font-family="sans-serif" font-size="7.8" lengthAdjust="spacingAndGlyphs" textLength="21" x="611.4" y="116.6971">«use»</text><!--MD5=[91ef0adb766951267d7204e02a70af72]
link Main to DirectorioUCN--><path d="M190.74,90.126 C174.798,99.504 158.478,110.79 145.2,123.6 C122.436,145.566 103.908,176.79 92.226,199.476 " fill="none" id="Main-&gt;DirectorioUCN" style="stroke: #A80036; stroke-width: 0.6; stroke-dasharray: 7.0,7.0;"/><polygon fill="#A80036" points="90.84,202.2,95.4302,198.4785,92.2022,199.5271,91.1536,196.299,90.84,202.2" style="stroke: #A80036; stroke-width: 0.6;"/><text fill="#000000" font-family="sans-serif" font-size="7.8" lengthAdjust="spacingAndGlyphs" textLength="21" x="164.4" y="116.6971">«use»</text><!--MD5=[5f0b7d4f0ba913a92a07d415c2c7d4eb]
link Main to NombreRutFirma--><path d="M246.516,90.09 C238.14,122.412 225.03,172.962 217.182,203.226 " fill="none" id="Main-&gt;NombreRutFirma" style="stroke: #A80036; stroke-width: 0.6; stroke-dasharray: 7.0,7.0;"/><polygon fill="#A80036" points="216.39,206.268,220.0698,201.6443,217.1438,203.3642,215.4238,200.4382,216.39,206.268" style="stroke: #A80036; stroke-width: 0.6;"/><text fill="#000000" font-family="sans-serif" font-size="7.8" lengthAdjust="spacingAndGlyphs" textLength="21" x="241.8" y="116.6971">«use»</text><!--MD5=[761a830538f7b81eea3332d750340669]
link Main to Persona--><path d="M269.946,90.09 C278.178,106.182 288.714,126.786 299.136,147.156 " fill="none" id="Main-&gt;Persona" style="stroke: #A80036; stroke-width: 0.6; stroke-dasharray: 7.0,7.0;"/><polygon fill="#A80036" points="300.54,149.898,300.2264,143.997,299.1778,147.2251,295.9498,146.1765,300.54,149.898" style="stroke: #A80036; stroke-width: 0.6;"/><text fill="#000000" font-family="sans-serif" font-size="7.8" lengthAdjust="spacingAndGlyphs" textLength="21" x="282.6" y="116.6971">«use»</text><!--MD5=[3fe1bf4a1541b85447cb040480d2375f]
link Main to Repository--><path d="M362.244,87.9 C387.132,97.086 412.662,108.834 434.4,123.6 C457.686,139.422 478.758,162.534 494.826,183.048 " fill="none" id="Main-&gt;Repository" style="stroke: #A80036; stroke-width: 0.6; stroke-dasharray: 7.0,7.0;"/><polygon fill="#A80036" points="496.758,185.532,495.3329,179.7971,494.9144,183.1653,491.5462,182.7469,496.758,185.532" style="stroke: #A80036; stroke-width: 0.6;"/><text fill="#000000" font-family="sans-serif" font-size="7.8" lengthAdjust="spacingAndGlyphs" textLength="21" x="426" y="116.6971">«use»</text><!--MD5=[a14fd222017fd70a3b4c0d29683554cb]
@startuml

class Main {
    {static} - log: Logger<Main>
    {static} + main(String[])
    {static} - sleep()
    {static} - getOrScrape(codigo: int, repo: Repository<Persona, Long>): Persona
}

package scraper {
    class DirectorioUCN {
        {static} - URL: String
        {static} + scrape(Integer): Ficha
        {static} - getText(Document, String): String
    }
    
    class Ficha <<Builder>> {
        - nombre: String
        - cargo: String
        - unidad: String
        - email: String
        - telefono: String
        - oficina: String
        - direccion: String
    }
    
    class NombreRutFirma {
        {static} - URL: String
        {static} + scrape(String): List<Rutificador>
    }
    
    class Rutificador <<Builder>> {
        - nombre: String
        - rut: String
        - sexo: String
        - direccion: String
        - comuna: String
    }

    NombreRutFirma +- - Rutificador
    DirectorioUCN +- - Ficha
}

package model {
    class Persona <<Entity>> {
        - id: Long
        - codigo: Integer
        - rut: String
        - nombre: String
        - email: String
        - cargo: String
        - unidad: String
        - oficina: String
        - direccionOficina: String
        - sexo: Sexo
        - direccion: String
        - comuna: String
        - telefonoFijo: String
        - telefonoMovil: String
        - status: Status
    }

    enum Sexo {
        MASCULINO,
        FEMENINO
    }
    
    enum Status {
        UCN_NOTFOUND,
        UCN_SCRAPED,
        NRF_NOTFOUND,
        NRF_SCRAPED,
        NRF_MANY,
        UPLOADED,
    }

    Persona - -> Sexo
    Persona - -> Status
}

package DAO {
    interface Repository<T, K> {
        + findAll(): List<T>
        + findAll(key: String, value: Object): List<T>
        + findById(id: K)
        + getQuery(): QueryBuilder<T, K>
        + create(t: T): boolean
        + update(t: T): boolean
        + delete(t: T): boolean
    }
    
    class RepositoryOrmLite<T, K> {
        {static} - log: Logger<Main>
        - theDao: Dao<T, K>
    }

    class TableUtils {
        {static} + createTableIfNotExists()
    }
    
    RepositoryOrmLite - -|> Repository
    RepositoryOrmLite ..> TableUtils: <<use>>
}

Main ..> DirectorioUCN: <<use>>
Main ..> NombreRutFirma: <<use>>
Main ..> Persona: <<use>>
Main ..> Repository: <<use>>

@enduml

PlantUML version 1.2020.09(Sun May 10 06:51:06 CLT 2020)
(GPL source distribution)
Java Runtime: OpenJDK Runtime Environment
JVM: OpenJDK 64-Bit Server VM
Java Version: 11.0.7+10-b944.20
Operating System: Windows 10
Default Encoding: Cp1252
Language: en
Country: US
--></g></svg>