<?xml version="1.0" encoding="UTF-8" standalone="no"?><svg xmlns="http://www.w3.org/2000/svg" xmlns:xlink="http://www.w3.org/1999/xlink" contentScriptType="application/ecmascript" contentStyleType="text/css" height="651px" preserveAspectRatio="none" style="width:563px;height:651px;" version="1.1" viewBox="0 0 563 651" width="563px" zoomAndPan="magnify"><defs><filter height="300%" id="fpqiovhfie0zr" width="300%" x="-1" y="-1"><feGaussianBlur result="blurOut" stdDeviation="2.0"/><feColorMatrix in="blurOut" result="blurOut2" type="matrix" values="0 0 0 0 0 0 0 0 0 0 0 0 0 0 0 0 0 0 .4 0"/><feOffset dx="4.0" dy="4.0" in="blurOut2" result="blurOut3"/><feBlend in="SourceGraphic" in2="blurOut3" mode="normal"/></filter></defs><g><!--MD5=[84718776d214be480e4c259efcb737fc]
class Main--><rect fill="#FEFECE" filter="url(#fpqiovhfie0zr)" height="75.6719" id="Main" style="stroke: #A80036; stroke-width: 1.5;" width="90" x="165" y="95"/><ellipse cx="194.4" cy="111" fill="#ADD1B2" rx="11" ry="11" style="stroke: #A80036; stroke-width: 1.0;"/><path d="M196.4,107.5 Q196.6031,107 196.8375,106.75 Q197.0719,106.5 197.3375,106.5 Q197.8063,106.5 198.1031,106.7813 Q198.4,107.0625 198.4,107.7188 L198.4,109.2813 Q198.4,109.9375 198.1188,110.2188 Q197.8375,110.5 197.4,110.5 Q197.0094,110.5 196.7594,110.3281 Q196.5094,110.1563 196.4,109.7031 Q196.3531,109.3906 196.1813,109.2188 Q195.8688,108.8906 195.3063,108.7031 Q194.7438,108.5 194.1813,108.5 Q193.4781,108.5 192.8844,108.7813 Q192.3063,109.0625 191.8531,109.6875 Q191.4,110.3125 191.4,111.1719 L191.4,112.0938 Q191.4,113.125 192.2438,113.8125 Q193.0875,114.5 194.5875,114.5 Q195.4781,114.5 196.1031,114.2969 Q196.4625,114.1875 196.8688,113.8281 Q197.1344,113.625 197.275,113.5625 Q197.4156,113.5 197.5875,113.5 Q197.9156,113.5 198.15,113.7656 Q198.4,114.0156 198.4,114.375 Q198.4,114.7188 198.0563,115.125 Q197.5563,115.7188 196.7594,116.0469 Q195.7125,116.5 194.4313,116.5 Q192.9313,116.5 191.7281,115.9063 Q190.7594,115.4375 190.0719,114.4219 Q189.4,113.4063 189.4,112.2031 L189.4,111.1094 Q189.4,109.8594 189.9938,108.7656 Q190.6031,107.6719 191.65,107.0938 Q192.7125,106.5 193.9,106.5 Q194.6188,106.5 195.2438,106.75 Q195.8688,107 196.4,107.5 Z "/><text fill="#000000" font-family="sans-serif" font-size="12" lengthAdjust="spacingAndGlyphs" textLength="26" x="211.6" y="115.9102">Main</text><line style="stroke: #A80036; stroke-width: 1.5;" x1="166" x2="254" y1="127" y2="127"/><line style="stroke: #A80036; stroke-width: 1.5;" x1="166" x2="254" y1="135" y2="135"/><ellipse cx="176" cy="146" fill="#84BE84" rx="3" ry="3" style="stroke: #038048; stroke-width: 1.0;"/><text fill="#000000" font-family="sans-serif" font-size="11" lengthAdjust="spacingAndGlyphs" text-decoration="underline" textLength="64" x="185" y="150.4189">main(String[])</text><rect fill="#F24D5C" height="6" style="stroke: #C82930; stroke-width: 1.0;" width="6" x="173" y="156.8359"/><text fill="#000000" font-family="sans-serif" font-size="11" lengthAdjust="spacingAndGlyphs" text-decoration="underline" textLength="34" x="185" y="164.2549">sleep()</text><!--MD5=[f07d62b14bab589ddbff025339f79d15]
class DirectorioUCN--><rect fill="#FEFECE" filter="url(#fpqiovhfie0zr)" height="89.5078" id="DirectorioUCN" style="stroke: #A80036; stroke-width: 1.5;" width="186" x="6" y="336"/><ellipse cx="54.75" cy="352" fill="#ADD1B2" rx="11" ry="11" style="stroke: #A80036; stroke-width: 1.0;"/><path d="M56.75,348.5 Q56.9531,348 57.1875,347.75 Q57.4219,347.5 57.6875,347.5 Q58.1563,347.5 58.4531,347.7813 Q58.75,348.0625 58.75,348.7188 L58.75,350.2813 Q58.75,350.9375 58.4688,351.2188 Q58.1875,351.5 57.75,351.5 Q57.3594,351.5 57.1094,351.3281 Q56.8594,351.1563 56.75,350.7031 Q56.7031,350.3906 56.5313,350.2188 Q56.2188,349.8906 55.6563,349.7031 Q55.0938,349.5 54.5313,349.5 Q53.8281,349.5 53.2344,349.7813 Q52.6563,350.0625 52.2031,350.6875 Q51.75,351.3125 51.75,352.1719 L51.75,353.0938 Q51.75,354.125 52.5938,354.8125 Q53.4375,355.5 54.9375,355.5 Q55.8281,355.5 56.4531,355.2969 Q56.8125,355.1875 57.2188,354.8281 Q57.4844,354.625 57.625,354.5625 Q57.7656,354.5 57.9375,354.5 Q58.2656,354.5 58.5,354.7656 Q58.75,355.0156 58.75,355.375 Q58.75,355.7188 58.4063,356.125 Q57.9063,356.7188 57.1094,357.0469 Q56.0625,357.5 54.7813,357.5 Q53.2813,357.5 52.0781,356.9063 Q51.1094,356.4375 50.4219,355.4219 Q49.75,354.4063 49.75,353.2031 L49.75,352.1094 Q49.75,350.8594 50.3438,349.7656 Q50.9531,348.6719 52,348.0938 Q53.0625,347.5 54.25,347.5 Q54.9688,347.5 55.5938,347.75 Q56.2188,348 56.75,348.5 Z "/><text fill="#000000" font-family="sans-serif" font-size="12" lengthAdjust="spacingAndGlyphs" textLength="80" x="75.25" y="356.9102">DirectorioUCN</text><line style="stroke: #A80036; stroke-width: 1.5;" x1="7" x2="191" y1="368" y2="368"/><rect fill="none" height="6" style="stroke: #C82930; stroke-width: 1.0;" width="6" x="14" y="376"/><text fill="#000000" font-family="sans-serif" font-size="11" lengthAdjust="spacingAndGlyphs" text-decoration="underline" textLength="54" x="26" y="383.4189">URL: String</text><line style="stroke: #A80036; stroke-width: 1.5;" x1="7" x2="191" y1="389.8359" y2="389.8359"/><ellipse cx="17" cy="400.8359" fill="#84BE84" rx="3" ry="3" style="stroke: #038048; stroke-width: 1.0;"/><text fill="#000000" font-family="sans-serif" font-size="11" lengthAdjust="spacingAndGlyphs" text-decoration="underline" textLength="107" x="26" y="405.2549">scrape(Integer): Ficha</text><rect fill="#F24D5C" height="6" style="stroke: #C82930; stroke-width: 1.0;" width="6" x="14" y="411.6719"/><text fill="#000000" font-family="sans-serif" font-size="11" lengthAdjust="spacingAndGlyphs" text-decoration="underline" textLength="160" x="26" y="419.0908">getText(Document, String): String</text><!--MD5=[0587adf760024d04fa2c5edc0ad907c9]
class Ficha--><rect fill="#FEFECE" filter="url(#fpqiovhfie0zr)" height="153.0391" id="Ficha" style="stroke: #A80036; stroke-width: 1.5;" width="104" x="47" y="487"/><ellipse cx="72.35" cy="507.0938" fill="#ADD1B2" rx="11" ry="11" style="stroke: #A80036; stroke-width: 1.0;"/><path d="M74.35,503.5938 Q74.5531,503.0938 74.7875,502.8438 Q75.0219,502.5938 75.2875,502.5938 Q75.7563,502.5938 76.0531,502.875 Q76.35,503.1563 76.35,503.8125 L76.35,505.375 Q76.35,506.0313 76.0688,506.3125 Q75.7875,506.5938 75.35,506.5938 Q74.9594,506.5938 74.7094,506.4219 Q74.4594,506.25 74.35,505.7969 Q74.3031,505.4844 74.1313,505.3125 Q73.8188,504.9844 73.2563,504.7969 Q72.6938,504.5938 72.1313,504.5938 Q71.4281,504.5938 70.8344,504.875 Q70.2563,505.1563 69.8031,505.7813 Q69.35,506.4063 69.35,507.2656 L69.35,508.1875 Q69.35,509.2188 70.1938,509.9063 Q71.0375,510.5938 72.5375,510.5938 Q73.4281,510.5938 74.0531,510.3906 Q74.4125,510.2813 74.8188,509.9219 Q75.0844,509.7188 75.225,509.6563 Q75.3656,509.5938 75.5375,509.5938 Q75.8656,509.5938 76.1,509.8594 Q76.35,510.1094 76.35,510.4688 Q76.35,510.8125 76.0063,511.2188 Q75.5063,511.8125 74.7094,512.1406 Q73.6625,512.5938 72.3813,512.5938 Q70.8813,512.5938 69.6781,512 Q68.7094,511.5313 68.0219,510.5156 Q67.35,509.5 67.35,508.2969 L67.35,507.2031 Q67.35,505.9531 67.9438,504.8594 Q68.5531,503.7656 69.6,503.1875 Q70.6625,502.5938 71.85,502.5938 Q72.5688,502.5938 73.1938,502.8438 Q73.8188,503.0938 74.35,503.5938 Z "/><text fill="#000000" font-family="sans-serif" font-size="12" font-style="italic" lengthAdjust="spacingAndGlyphs" textLength="53" x="86.65" y="504.457">«Builder»</text><text fill="#000000" font-family="sans-serif" font-size="12" lengthAdjust="spacingAndGlyphs" textLength="30" x="98.15" y="519.5508">Ficha</text><line style="stroke: #A80036; stroke-width: 1.5;" x1="48" x2="150" y1="527.1875" y2="527.1875"/><rect fill="none" height="6" style="stroke: #C82930; stroke-width: 1.0;" width="6" x="55" y="535.1875"/><text fill="#000000" font-family="sans-serif" font-size="11" lengthAdjust="spacingAndGlyphs" textLength="70" x="67" y="542.6064">nombre: String</text><rect fill="none" height="6" style="stroke: #C82930; stroke-width: 1.0;" width="6" x="55" y="549.0234"/><text fill="#000000" font-family="sans-serif" font-size="11" lengthAdjust="spacingAndGlyphs" textLength="62" x="67" y="556.4424">cargo: String</text><rect fill="none" height="6" style="stroke: #C82930; stroke-width: 1.0;" width="6" x="55" y="562.8594"/><text fill="#000000" font-family="sans-serif" font-size="11" lengthAdjust="spacingAndGlyphs" textLength="66" x="67" y="570.2783">unidad: String</text><rect fill="none" height="6" style="stroke: #C82930; stroke-width: 1.0;" width="6" x="55" y="576.6953"/><text fill="#000000" font-family="sans-serif" font-size="11" lengthAdjust="spacingAndGlyphs" textLength="58" x="67" y="584.1143">email: String</text><rect fill="none" height="6" style="stroke: #C82930; stroke-width: 1.0;" width="6" x="55" y="590.5313"/><text fill="#000000" font-family="sans-serif" font-size="11" lengthAdjust="spacingAndGlyphs" textLength="73" x="67" y="597.9502">telefono: String</text><rect fill="none" height="6" style="stroke: #C82930; stroke-width: 1.0;" width="6" x="55" y="604.3672"/><text fill="#000000" font-family="sans-serif" font-size="11" lengthAdjust="spacingAndGlyphs" textLength="66" x="67" y="611.7861">oficina: String</text><rect fill="none" height="6" style="stroke: #C82930; stroke-width: 1.0;" width="6" x="55" y="618.2031"/><text fill="#000000" font-family="sans-serif" font-size="11" lengthAdjust="spacingAndGlyphs" textLength="78" x="67" y="625.6221">direccion: String</text><line style="stroke: #A80036; stroke-width: 1.5;" x1="48" x2="150" y1="632.0391" y2="632.0391"/><!--MD5=[9c83e8a36c8b91d421c11bb5e95af223]
class NombreRutFirma--><rect fill="#FEFECE" filter="url(#fpqiovhfie0zr)" height="75.6719" id="NombreRutFirma" style="stroke: #A80036; stroke-width: 1.5;" width="183" x="227.5" y="343"/><ellipse cx="267.25" cy="359" fill="#ADD1B2" rx="11" ry="11" style="stroke: #A80036; stroke-width: 1.0;"/><path d="M269.25,355.5 Q269.4531,355 269.6875,354.75 Q269.9219,354.5 270.1875,354.5 Q270.6563,354.5 270.9531,354.7813 Q271.25,355.0625 271.25,355.7188 L271.25,357.2813 Q271.25,357.9375 270.9688,358.2188 Q270.6875,358.5 270.25,358.5 Q269.8594,358.5 269.6094,358.3281 Q269.3594,358.1563 269.25,357.7031 Q269.2031,357.3906 269.0313,357.2188 Q268.7188,356.8906 268.1563,356.7031 Q267.5938,356.5 267.0313,356.5 Q266.3281,356.5 265.7344,356.7813 Q265.1563,357.0625 264.7031,357.6875 Q264.25,358.3125 264.25,359.1719 L264.25,360.0938 Q264.25,361.125 265.0938,361.8125 Q265.9375,362.5 267.4375,362.5 Q268.3281,362.5 268.9531,362.2969 Q269.3125,362.1875 269.7188,361.8281 Q269.9844,361.625 270.125,361.5625 Q270.2656,361.5 270.4375,361.5 Q270.7656,361.5 271,361.7656 Q271.25,362.0156 271.25,362.375 Q271.25,362.7188 270.9063,363.125 Q270.4063,363.7188 269.6094,364.0469 Q268.5625,364.5 267.2813,364.5 Q265.7813,364.5 264.5781,363.9063 Q263.6094,363.4375 262.9219,362.4219 Q262.25,361.4063 262.25,360.2031 L262.25,359.1094 Q262.25,357.8594 262.8438,356.7656 Q263.4531,355.6719 264.5,355.0938 Q265.5625,354.5 266.75,354.5 Q267.4688,354.5 268.0938,354.75 Q268.7188,355 269.25,355.5 Z "/><text fill="#000000" font-family="sans-serif" font-size="12" lengthAdjust="spacingAndGlyphs" textLength="96" x="286.75" y="363.9102">NombreRutFirma</text><line style="stroke: #A80036; stroke-width: 1.5;" x1="228.5" x2="409.5" y1="375" y2="375"/><rect fill="none" height="6" style="stroke: #C82930; stroke-width: 1.0;" width="6" x="235.5" y="383"/><text fill="#000000" font-family="sans-serif" font-size="11" lengthAdjust="spacingAndGlyphs" text-decoration="underline" textLength="54" x="247.5" y="390.4189">URL: String</text><line style="stroke: #A80036; stroke-width: 1.5;" x1="228.5" x2="409.5" y1="396.8359" y2="396.8359"/><ellipse cx="238.5" cy="407.8359" fill="#84BE84" rx="3" ry="3" style="stroke: #038048; stroke-width: 1.0;"/><text fill="#000000" font-family="sans-serif" font-size="11" lengthAdjust="spacingAndGlyphs" text-decoration="underline" textLength="157" x="247.5" y="412.2549">scrape(String): List&lt;Rutificador&gt;</text><!--MD5=[0d0015e8f48cd77dcb9f429c2ad2f210]
class Rutificador--><rect fill="#FEFECE" filter="url(#fpqiovhfie0zr)" height="125.3672" id="Rutificador" style="stroke: #A80036; stroke-width: 1.5;" width="104" x="267" y="501"/><ellipse cx="287.85" cy="521.0938" fill="#ADD1B2" rx="11" ry="11" style="stroke: #A80036; stroke-width: 1.0;"/><path d="M289.85,517.5938 Q290.0531,517.0938 290.2875,516.8438 Q290.5219,516.5938 290.7875,516.5938 Q291.2563,516.5938 291.5531,516.875 Q291.85,517.1563 291.85,517.8125 L291.85,519.375 Q291.85,520.0313 291.5688,520.3125 Q291.2875,520.5938 290.85,520.5938 Q290.4594,520.5938 290.2094,520.4219 Q289.9594,520.25 289.85,519.7969 Q289.8031,519.4844 289.6313,519.3125 Q289.3188,518.9844 288.7563,518.7969 Q288.1938,518.5938 287.6313,518.5938 Q286.9281,518.5938 286.3344,518.875 Q285.7563,519.1563 285.3031,519.7813 Q284.85,520.4063 284.85,521.2656 L284.85,522.1875 Q284.85,523.2188 285.6938,523.9063 Q286.5375,524.5938 288.0375,524.5938 Q288.9281,524.5938 289.5531,524.3906 Q289.9125,524.2813 290.3188,523.9219 Q290.5844,523.7188 290.725,523.6563 Q290.8656,523.5938 291.0375,523.5938 Q291.3656,523.5938 291.6,523.8594 Q291.85,524.1094 291.85,524.4688 Q291.85,524.8125 291.5063,525.2188 Q291.0063,525.8125 290.2094,526.1406 Q289.1625,526.5938 287.8813,526.5938 Q286.3813,526.5938 285.1781,526 Q284.2094,525.5313 283.5219,524.5156 Q282.85,523.5 282.85,522.2969 L282.85,521.2031 Q282.85,519.9531 283.4438,518.8594 Q284.0531,517.7656 285.1,517.1875 Q286.1625,516.5938 287.35,516.5938 Q288.0688,516.5938 288.6938,516.8438 Q289.3188,517.0938 289.85,517.5938 Z "/><text fill="#000000" font-family="sans-serif" font-size="12" font-style="italic" lengthAdjust="spacingAndGlyphs" textLength="53" x="306.15" y="518.457">«Builder»</text><text fill="#000000" font-family="sans-serif" font-size="12" lengthAdjust="spacingAndGlyphs" textLength="59" x="303.15" y="533.5508">Rutificador</text><line style="stroke: #A80036; stroke-width: 1.5;" x1="268" x2="370" y1="541.1875" y2="541.1875"/><rect fill="none" height="6" style="stroke: #C82930; stroke-width: 1.0;" width="6" x="275" y="549.1875"/><text fill="#000000" font-family="sans-serif" font-size="11" lengthAdjust="spacingAndGlyphs" textLength="70" x="287" y="556.6064">nombre: String</text><rect fill="none" height="6" style="stroke: #C82930; stroke-width: 1.0;" width="6" x="275" y="563.0234"/><text fill="#000000" font-family="sans-serif" font-size="11" lengthAdjust="spacingAndGlyphs" textLength="47" x="287" y="570.4424">rut: String</text><rect fill="none" height="6" style="stroke: #C82930; stroke-width: 1.0;" width="6" x="275" y="576.8594"/><text fill="#000000" font-family="sans-serif" font-size="11" lengthAdjust="spacingAndGlyphs" textLength="58" x="287" y="584.2783">sexo: String</text><rect fill="none" height="6" style="stroke: #C82930; stroke-width: 1.0;" width="6" x="275" y="590.6953"/><text fill="#000000" font-family="sans-serif" font-size="11" lengthAdjust="spacingAndGlyphs" textLength="78" x="287" y="598.1143">direccion: String</text><rect fill="none" height="6" style="stroke: #C82930; stroke-width: 1.0;" width="6" x="275" y="604.5313"/><text fill="#000000" font-family="sans-serif" font-size="11" lengthAdjust="spacingAndGlyphs" textLength="72" x="287" y="611.9502">comuna: String</text><line style="stroke: #A80036; stroke-width: 1.5;" x1="268" x2="370" y1="618.3672" y2="618.3672"/><!--MD5=[8f63dadf5c643e74a34e53c8f0a15d23]
class Persona--><rect fill="#FEFECE" filter="url(#fpqiovhfie0zr)" height="249.8906" id="Persona" style="stroke: #A80036; stroke-width: 1.5;" width="138" x="414" y="8"/><ellipse cx="455.55" cy="28.0938" fill="#ADD1B2" rx="11" ry="11" style="stroke: #A80036; stroke-width: 1.0;"/><path d="M457.55,24.5938 Q457.7531,24.0938 457.9875,23.8438 Q458.2219,23.5938 458.4875,23.5938 Q458.9563,23.5938 459.2531,23.875 Q459.55,24.1563 459.55,24.8125 L459.55,26.375 Q459.55,27.0313 459.2688,27.3125 Q458.9875,27.5938 458.55,27.5938 Q458.1594,27.5938 457.9094,27.4219 Q457.6594,27.25 457.55,26.7969 Q457.5031,26.4844 457.3313,26.3125 Q457.0188,25.9844 456.4563,25.7969 Q455.8938,25.5938 455.3313,25.5938 Q454.6281,25.5938 454.0344,25.875 Q453.4563,26.1563 453.0031,26.7813 Q452.55,27.4063 452.55,28.2656 L452.55,29.1875 Q452.55,30.2188 453.3938,30.9063 Q454.2375,31.5938 455.7375,31.5938 Q456.6281,31.5938 457.2531,31.3906 Q457.6125,31.2813 458.0188,30.9219 Q458.2844,30.7188 458.425,30.6563 Q458.5656,30.5938 458.7375,30.5938 Q459.0656,30.5938 459.3,30.8594 Q459.55,31.1094 459.55,31.4688 Q459.55,31.8125 459.2063,32.2188 Q458.7063,32.8125 457.9094,33.1406 Q456.8625,33.5938 455.5813,33.5938 Q454.0813,33.5938 452.8781,33 Q451.9094,32.5313 451.2219,31.5156 Q450.55,30.5 450.55,29.2969 L450.55,28.2031 Q450.55,26.9531 451.1438,25.8594 Q451.7531,24.7656 452.8,24.1875 Q453.8625,23.5938 455.05,23.5938 Q455.7688,23.5938 456.3938,23.8438 Q457.0188,24.0938 457.55,24.5938 Z "/><text fill="#000000" font-family="sans-serif" font-size="12" font-style="italic" lengthAdjust="spacingAndGlyphs" textLength="44" x="476.95" y="25.457">«Entity»</text><text fill="#000000" font-family="sans-serif" font-size="12" lengthAdjust="spacingAndGlyphs" textLength="47" x="475.45" y="40.5508">Persona</text><line style="stroke: #A80036; stroke-width: 1.5;" x1="415" x2="551" y1="48.1875" y2="48.1875"/><rect fill="none" height="6" style="stroke: #C82930; stroke-width: 1.0;" width="6" x="422" y="56.1875"/><text fill="#000000" font-family="sans-serif" font-size="11" lengthAdjust="spacingAndGlyphs" textLength="38" x="434" y="63.6064">id: Long</text><rect fill="none" height="6" style="stroke: #C82930; stroke-width: 1.0;" width="6" x="422" y="70.0234"/><text fill="#000000" font-family="sans-serif" font-size="11" lengthAdjust="spacingAndGlyphs" textLength="71" x="434" y="77.4424">codigo: Integer</text><rect fill="none" height="6" style="stroke: #C82930; stroke-width: 1.0;" width="6" x="422" y="83.8594"/><text fill="#000000" font-family="sans-serif" font-size="11" lengthAdjust="spacingAndGlyphs" textLength="47" x="434" y="91.2783">rut: String</text><rect fill="none" height="6" style="stroke: #C82930; stroke-width: 1.0;" width="6" x="422" y="97.6953"/><text fill="#000000" font-family="sans-serif" font-size="11" lengthAdjust="spacingAndGlyphs" textLength="70" x="434" y="105.1143">nombre: String</text><rect fill="none" height="6" style="stroke: #C82930; stroke-width: 1.0;" width="6" x="422" y="111.5313"/><text fill="#000000" font-family="sans-serif" font-size="11" lengthAdjust="spacingAndGlyphs" textLength="58" x="434" y="118.9502">email: String</text><rect fill="none" height="6" style="stroke: #C82930; stroke-width: 1.0;" width="6" x="422" y="125.3672"/><text fill="#000000" font-family="sans-serif" font-size="11" lengthAdjust="spacingAndGlyphs" textLength="62" x="434" y="132.7861">cargo: String</text><rect fill="none" height="6" style="stroke: #C82930; stroke-width: 1.0;" width="6" x="422" y="139.2031"/><text fill="#000000" font-family="sans-serif" font-size="11" lengthAdjust="spacingAndGlyphs" textLength="66" x="434" y="146.6221">unidad: String</text><rect fill="none" height="6" style="stroke: #C82930; stroke-width: 1.0;" width="6" x="422" y="153.0391"/><text fill="#000000" font-family="sans-serif" font-size="11" lengthAdjust="spacingAndGlyphs" textLength="66" x="434" y="160.458">oficina: String</text><rect fill="none" height="6" style="stroke: #C82930; stroke-width: 1.0;" width="6" x="422" y="166.875"/><text fill="#000000" font-family="sans-serif" font-size="11" lengthAdjust="spacingAndGlyphs" textLength="112" x="434" y="174.2939">direccionOficina: String</text><rect fill="none" height="6" style="stroke: #C82930; stroke-width: 1.0;" width="6" x="422" y="180.7109"/><text fill="#000000" font-family="sans-serif" font-size="11" lengthAdjust="spacingAndGlyphs" textLength="55" x="434" y="188.1299">sexo: Sexo</text><rect fill="none" height="6" style="stroke: #C82930; stroke-width: 1.0;" width="6" x="422" y="194.5469"/><text fill="#000000" font-family="sans-serif" font-size="11" lengthAdjust="spacingAndGlyphs" textLength="78" x="434" y="201.9658">direccion: String</text><rect fill="none" height="6" style="stroke: #C82930; stroke-width: 1.0;" width="6" x="422" y="208.3828"/><text fill="#000000" font-family="sans-serif" font-size="11" lengthAdjust="spacingAndGlyphs" textLength="72" x="434" y="215.8018">comuna: String</text><rect fill="none" height="6" style="stroke: #C82930; stroke-width: 1.0;" width="6" x="422" y="222.2188"/><text fill="#000000" font-family="sans-serif" font-size="11" lengthAdjust="spacingAndGlyphs" textLength="89" x="434" y="229.6377">telefonoFijo: String</text><rect fill="none" height="6" style="stroke: #C82930; stroke-width: 1.0;" width="6" x="422" y="236.0547"/><text fill="#000000" font-family="sans-serif" font-size="11" lengthAdjust="spacingAndGlyphs" textLength="97" x="434" y="243.4736">telefonoMovil: String</text><line style="stroke: #A80036; stroke-width: 1.5;" x1="415" x2="551" y1="249.8906" y2="249.8906"/><!--MD5=[2bd084d4f9b8ff009b6d8ba013c0f313]
class Sexo--><rect fill="#FEFECE" filter="url(#fpqiovhfie0zr)" height="75.6719" id="Sexo" style="stroke: #A80036; stroke-width: 1.5;" width="75" x="445.5" y="343"/><ellipse cx="467.7" cy="359" fill="#EB937F" rx="11" ry="11" style="stroke: #A80036; stroke-width: 1.0;"/><path d="M466.2,360 L466.2,362 L470.2,362 L470.2,361 L470.2,360.5156 L470.825,360 L471.2,360 L471.575,360 L472.2,360.5156 L472.2,361 L472.2,364 L464.2,364 L463.7156,364 L463.2,363.375 L463.2,363 L463.2,362.625 L463.7156,362 L464.2,362 L464.2,362 L464.2,356 L464.2,356 L463.7156,356 L463.2,355.375 L463.2,355 L463.2,354.625 L463.7156,354 L464.2,354 L472.2,354 L472.2,357 L472.2,357.4844 L471.575,358 L471.2,358 L470.825,358 L470.2,357.4844 L470.2,357 L470.2,356 L466.2,356 L466.2,358 L467.2,358 L467.2,357.5156 L467.2,357.5156 L467.825,357 L468.2,357 L468.575,357 L469.2,357.5156 L469.2,358 L469.2,360 L469.2,360.4844 L468.575,361 L468.575,361 L468.2,361 L467.825,361 L467.2,360.4844 L467.2,360.4844 L467.2,360 L466.2,360 Z "/><text fill="#000000" font-family="sans-serif" font-size="12" lengthAdjust="spacingAndGlyphs" textLength="27" x="483.3" y="363.9102">Sexo</text><line style="stroke: #A80036; stroke-width: 1.5;" x1="446.5" x2="519.5" y1="375" y2="375"/><text fill="#000000" font-family="sans-serif" font-size="11" lengthAdjust="spacingAndGlyphs" textLength="63" x="451.5" y="390.4189">MASCULINO,</text><text fill="#000000" font-family="sans-serif" font-size="11" lengthAdjust="spacingAndGlyphs" textLength="50" x="451.5" y="404.2549">FEMENINO</text><line style="stroke: #A80036; stroke-width: 1.5;" x1="446.5" x2="519.5" y1="410.6719" y2="410.6719"/><!--MD5=[91ef0adb766951267d7204e02a70af72]
link Main to DirectorioUCN--><path d="M193.26,171.1 C174,213.79 142.29,284.06 121.03,331.17 " fill="none" id="Main-&gt;DirectorioUCN" style="stroke: #A80036; stroke-width: 1.0; stroke-dasharray: 7.0,7.0;"/><polygon fill="#A80036" points="118.88,335.94,126.2287,329.3828,120.9372,331.3828,118.9371,326.0913,118.88,335.94" style="stroke: #A80036; stroke-width: 1.0;"/><text fill="#000000" font-family="sans-serif" font-size="13" lengthAdjust="spacingAndGlyphs" textLength="35" x="140" y="302.4951">«use»</text><!--MD5=[5f0b7d4f0ba913a92a07d415c2c7d4eb]
link Main to NombreRutFirma--><path d="M226.44,171.1 C246.27,215.86 279.55,290.96 300.33,337.87 " fill="none" id="Main-&gt;NombreRutFirma" style="stroke: #A80036; stroke-width: 1.0; stroke-dasharray: 7.0,7.0;"/><polygon fill="#A80036" points="302.43,342.6,302.4357,332.7511,300.402,338.0298,295.1233,335.996,302.43,342.6" style="stroke: #A80036; stroke-width: 1.0;"/><text fill="#000000" font-family="sans-serif" font-size="13" lengthAdjust="spacingAndGlyphs" textLength="35" x="285" y="302.4951">«use»</text><!--MD5=[93eda055a1fdb4dab9fc4d9c53718769]
link Persona to Sexo--><path d="M483,258.08 C483,286.71 483,315.27 483,337.54 " fill="none" id="Persona-&gt;Sexo" style="stroke: #A80036; stroke-width: 1.0;"/><polygon fill="#A80036" points="483,342.77,487,333.77,483,337.77,479,333.77,483,342.77" style="stroke: #A80036; stroke-width: 1.0;"/><!--MD5=[4293f839dc53cf7c13e004701db90715]
reverse link NombreRutFirma to Rutificador--><path d="M319,434.57 C319,455.36 319,479.4 319,500.99 " fill="none" id="NombreRutFirma&lt;-Rutificador" style="stroke: #A80036; stroke-width: 1.0;"/><ellipse cx="319" cy="427.4" fill="#FFFFFF" rx="8" ry="8" style="stroke: #A80036; stroke-width: 1.0;"/><line style="stroke: #A80036; stroke-width: 1.0;" x1="319" x2="319" y1="435.4" y2="419.4"/><line style="stroke: #A80036; stroke-width: 1.0;" x1="311" x2="327" y1="427.4" y2="427.4"/><!--MD5=[aebacbaf3a5aaa57ba0d25777dbfcaa4]
reverse link DirectorioUCN to Ficha--><path d="M99,441.35 C99,455.88 99,471.62 99,486.79 " fill="none" id="DirectorioUCN&lt;-Ficha" style="stroke: #A80036; stroke-width: 1.0;"/><ellipse cx="99" cy="434.16" fill="#FFFFFF" rx="8" ry="8" style="stroke: #A80036; stroke-width: 1.0;"/><line style="stroke: #A80036; stroke-width: 1.0;" x1="99" x2="99" y1="442.16" y2="426.16"/><line style="stroke: #A80036; stroke-width: 1.0;" x1="91" x2="107" y1="434.16" y2="434.16"/><!--MD5=[6d5bf889b5be8216bd5b73f7319643bd]
@startuml

class Main {
    {static} + main(String[])
    {static} - sleep()
}

class DirectorioUCN {
    {static} - URL: String
    {static} + scrape(Integer): Ficha
    {static} - getText(Document, String): String
}

class Ficha <<Builder>> {
    - nombre: String
    - cargo: String
    - unidad: String
    - email: String
    - telefono: String
    - oficina: String
    - direccion: String
}

class NombreRutFirma {
    {static} - URL: String
    {static} + scrape(String): List<Rutificador>
}

class Rutificador <<Builder>> {
    - nombre: String
    - rut: String
    - sexo: String
    - direccion: String
    - comuna: String
}

class Persona <<Entity>> {
    - id: Long
    - codigo: Integer
    - rut: String
    - nombre: String
    - email: String
    - cargo: String
    - unidad: String
    - oficina: String
    - direccionOficina: String
    - sexo: Sexo
    - direccion: String
    - comuna: String
    - telefonoFijo: String
    - telefonoMovil: String
}

enum Sexo {
    MASCULINO,
    FEMENINO
}

Main ..> DirectorioUCN: <<use>>
Main ..> NombreRutFirma: <<use>>

Persona - -> Sexo

NombreRutFirma +- - Rutificador
DirectorioUCN +- - Ficha

@enduml

PlantUML version 1.2020.09(Sun May 10 06:51:06 CLT 2020)
(GPL source distribution)
Java Runtime: OpenJDK Runtime Environment
JVM: OpenJDK 64-Bit Server VM
Java Version: 11.0.7+10-b944.18
Operating System: Windows 10
Default Encoding: Cp1252
Language: en
Country: US
--></g></svg>